<?xml version="1.0" encoding="UTF-8" standalone="no"?>
<svg
   xmlns:dc="http://purl.org/dc/elements/1.1/"
   xmlns:cc="http://creativecommons.org/ns#"
   xmlns:rdf="http://www.w3.org/1999/02/22-rdf-syntax-ns#"
   xmlns:svg="http://www.w3.org/2000/svg"
   xmlns="http://www.w3.org/2000/svg"
   xmlns:sodipodi="http://sodipodi.sourceforge.net/DTD/sodipodi-0.dtd"
   xmlns:inkscape="http://www.inkscape.org/namespaces/inkscape"
   width="462.565mm"
   height="190.00002mm"
   viewBox="0 0 462.565 190.00002"
   version="1.1"
   id="svg8"
   inkscape:version="1.1-dev (ddb55ca, 2020-02-02)"
   sodipodi:docname="mask_L.svg">
  <defs
     id="defs2">
    <clipPath
       id="clipPath64"
       clipPathUnits="userSpaceOnUse">
      <path
         inkscape:connector-curvature="0"
         id="path62"
         d="M 36,0 H 598.32 V 792 H 36 Z" />
    </clipPath>
    <clipPath
       id="clipPath482"
       clipPathUnits="userSpaceOnUse">
      <path
         inkscape:connector-curvature="0"
         id="path480"
         d="M 0,0 H 612 V 792 H 0 Z" />
    </clipPath>
  </defs>
  <sodipodi:namedview
     id="base"
     pagecolor="#ffffff"
     bordercolor="#666666"
     borderopacity="1.0"
     inkscape:pageopacity="0.0"
     inkscape:pageshadow="2"
     inkscape:zoom="0.27293536"
     inkscape:cx="1580.4471"
     inkscape:cy="1234.1233"
     inkscape:document-units="mm"
     inkscape:current-layer="g54"
     showgrid="false"
     fit-margin-top="0"
     fit-margin-left="0"
     fit-margin-right="0"
     fit-margin-bottom="0"
     inkscape:window-width="1488"
     inkscape:window-height="915"
     inkscape:window-x="162"
     inkscape:window-y="23"
     inkscape:window-maximized="0" />
  <metadata
     id="metadata5">
    <rdf:RDF>
      <cc:Work
         rdf:about="">
        <dc:format>image/svg+xml</dc:format>
        <dc:type
           rdf:resource="http://purl.org/dc/dcmitype/StillImage" />
        <dc:title></dc:title>
      </cc:Work>
    </rdf:RDF>
  </metadata>
  <g
     inkscape:label="Layer 1"
     inkscape:groupmode="layer"
     id="layer1"
     transform="translate(222.56856,61.536853)">
    <g
       transform="matrix(0.35277777,0,0,-0.35277777,-4.2104038,278.70941)"
       inkscape:label="003902oo-1 Olson Mask face"
       id="g54">
      <g
         id="g56" />
      <path
         inkscape:connector-curvature="0"
         id="path68-2"
         style="fill:none;stroke:#000000;stroke-width:0.0631514;stroke-linecap:butt;stroke-linejoin:miter;stroke-miterlimit:10;stroke-dasharray:none;stroke-opacity:1"
         d="m -136.81591,959.13897 c 12.47145,-9.1876 28.52416,-22.5602 44.796311,-40.98668 8.936984,-10.12217 27.492672,-31.42363 41.112579,-61.00714 16.490481,-35.81367 17.933008,-66.78957 19.161662,-100.39209 2.002829,-54.73249 -6.801599,-95.49864 -15.043497,-133.65932 -3.736089,-17.30254 -14.404108,-63.58149 -37.436642,-120.82251 -11.720673,-29.12568 -23.504843,-53.29108 -33.141363,-71.59614 l -2.99532,-4.7375 c -27.98058,16.43367 -67.75868,37.0891 -117.95974,54.7091 -48.19824,16.91822 -86.09269,24.04843 -121.1344,30.49024 -68.35351,12.56835 -122.31628,15.20947 -166.27605,17.2045 -38.07603,1.72768 -70.06337,1.75665 -93.20395,1.39685 l 0.85883,251.92316 c 29.6236,3.43757 65.8082,8.95816 106.61333,18.18699 42.54509,9.62427 77.2827,21.15891 146.75792,44.22822 43.79157,14.54 71.15614,24.64215 102.68454,39.24342 32.32375,14.96886 48.9635,25.3773 60.66412,33.47217 24.65885,17.05854 42.82801,34.52144 55.03547,47.64574 z" />
      <path
         d="m 210.08783,959.13897 c -12.47144,-9.1876 -28.52416,-22.5602 -44.79631,-40.98668 -8.93698,-10.12217 -27.49267,-31.42363 -41.11258,-61.00714 -16.49048,-35.81367 -17.93301,-66.78957 -19.16166,-100.39209 -2.00283,-54.73249 6.8016,-95.49863 15.04349,-133.65933 3.7361,-17.30253 14.40411,-63.58148 37.43665,-120.82251 11.72067,-29.12568 23.50484,-53.29108 33.14136,-71.59613 l 2.99532,-4.7375 c 27.98058,16.43367 67.75868,37.08909 117.95974,54.70909 48.19824,16.91822 86.09269,24.04844 121.1344,30.49025 68.35351,12.56835 122.31628,15.20946 166.27605,17.20449 38.07603,1.72768 70.06337,1.75665 93.20395,1.39686 l -0.85883,251.92315 c -29.6236,3.43757 -65.8082,8.95817 -106.61333,18.18699 -42.54509,9.62427 -77.28269,21.15891 -146.75792,44.22822 -43.79157,14.54 -71.15614,24.64215 -102.68454,39.24342 -32.32375,14.96886 -48.9635,25.3773 -60.66412,33.47217 -24.65885,17.05854 -42.82801,34.52144 -55.03547,47.64574 z"
         style="fill:none;stroke:#000000;stroke-width:0.0631514;stroke-linecap:butt;stroke-linejoin:miter;stroke-miterlimit:10;stroke-dasharray:none;stroke-opacity:1"
         id="path68-2-8"
         inkscape:connector-curvature="0" />
    </g>
  </g>
</svg>
