<?xml version="1.0" encoding="UTF-8" standalone="no"?>
<svg
   xmlns:dc="http://purl.org/dc/elements/1.1/"
   xmlns:cc="http://creativecommons.org/ns#"
   xmlns:rdf="http://www.w3.org/1999/02/22-rdf-syntax-ns#"
   xmlns:svg="http://www.w3.org/2000/svg"
   xmlns="http://www.w3.org/2000/svg"
   xmlns:sodipodi="http://sodipodi.sourceforge.net/DTD/sodipodi-0.dtd"
   xmlns:inkscape="http://www.inkscape.org/namespaces/inkscape"
   width="344.74728mm"
   height="136mm"
   viewBox="0 0 344.74728 136"
   version="1.1"
   id="svg8"
   inkscape:version="1.1-dev (ddb55ca, 2020-02-02)"
   sodipodi:docname="mask_S.svg">
  <defs
     id="defs2">
    <clipPath
       id="clipPath64"
       clipPathUnits="userSpaceOnUse">
      <path
         inkscape:connector-curvature="0"
         id="path62"
         d="M 36,0 H 598.32 V 792 H 36 Z" />
    </clipPath>
    <clipPath
       id="clipPath482"
       clipPathUnits="userSpaceOnUse">
      <path
         inkscape:connector-curvature="0"
         id="path480"
         d="M 0,0 H 612 V 792 H 0 Z" />
    </clipPath>
  </defs>
  <sodipodi:namedview
     id="base"
     pagecolor="#ffffff"
     bordercolor="#666666"
     borderopacity="1.0"
     inkscape:pageopacity="0.0"
     inkscape:pageshadow="2"
     inkscape:zoom="0.27751324"
     inkscape:cx="1259.1945"
     inkscape:cy="-108.55888"
     inkscape:document-units="mm"
     inkscape:current-layer="g54"
     showgrid="false"
     fit-margin-top="0"
     fit-margin-left="0"
     fit-margin-right="0"
     fit-margin-bottom="0"
     inkscape:window-width="1488"
     inkscape:window-height="915"
     inkscape:window-x="162"
     inkscape:window-y="23"
     inkscape:window-maximized="0" />
  <metadata
     id="metadata5">
    <rdf:RDF>
      <cc:Work
         rdf:about="">
        <dc:format>image/svg+xml</dc:format>
        <dc:type
           rdf:resource="http://purl.org/dc/dcmitype/StillImage" />
        <dc:title></dc:title>
      </cc:Work>
    </rdf:RDF>
  </metadata>
  <g
     inkscape:label="Layer 1"
     inkscape:groupmode="layer"
     id="layer1"
     transform="translate(161.95374,-307.30856)">
    <g
       transform="matrix(0.35277777,0,0,-0.35277777,-4.2104038,278.70941)"
       inkscape:label="003902oo-1 Olson Mask face"
       id="g54">
      <g
         id="g56" />
      <path
         d="m -102.02712,-84.889747 c 8.926931,-6.5764 20.417291,-16.148383 32.064721,-29.337853 6.397,-7.24536 19.67897,-22.49275 29.42795,-43.66832 11.80371,-25.63504 12.83626,-47.80725 13.71572,-71.85958 1.4336,-39.17694 -4.86851,-68.35692 -10.76798,-95.67194 -2.67425,-12.38496 -10.31031,-45.51095 -26.79675,-86.48347 -8.38953,-20.84786 -16.82451,-38.14519 -23.72224,-51.24775 l -2.14402,-3.39106 c -20.028201,11.76305 -48.500941,26.54798 -84.434341,39.16019 -34.49979,12.10989 -61.62423,17.21361 -86.70672,21.82459 -48.92671,8.9963 -87.55269,10.88677 -119.01862,12.3148 -27.25442,1.23666 -50.15062,1.25739 -66.7144,0.99985 l 0.61474,180.32393 c 21.20425,2.46058 47.1048,6.41216 76.31269,13.01806 30.45332,6.88895 55.31813,15.14532 105.04777,31.65808 31.34552,10.40759 50.9328,17.6386 73.50049,28.09003 23.13701,10.71456 35.04755,18.16483 43.42274,23.95905 17.65054,12.21035 30.65583,24.710133 39.39381,34.104303 z"
         style="fill:none;stroke:#000000;stroke-width:0.0452031;stroke-linecap:butt;stroke-linejoin:miter;stroke-miterlimit:10;stroke-dasharray:none;stroke-opacity:1"
         id="path68-2-4"
         inkscape:connector-curvature="0" />
      <path
         inkscape:connector-curvature="0"
         id="path68-2-4-8"
         style="fill:none;stroke:#000000;stroke-width:0.0452031;stroke-linecap:butt;stroke-linejoin:miter;stroke-miterlimit:10;stroke-dasharray:none;stroke-opacity:1"
         d="m 184.97055,-84.889749 c -8.92692,-6.5764 -20.41728,-16.148381 -32.06471,-29.337851 -6.397,-7.24536 -19.67897,-22.49275 -29.42795,-43.66832 -11.80371,-25.63504 -12.83626,-47.80725 -13.71572,-71.85958 -1.4336,-39.17694 4.86851,-68.35692 10.76798,-95.67194 2.67425,-12.38496 10.31031,-45.51095 26.79675,-86.48347 8.38953,-20.84786 16.82451,-38.14519 23.72224,-51.24775 l 2.14402,-3.39106 c 20.0282,11.76305 48.50094,26.54798 84.43433,39.16019 34.49979,12.10989 61.62423,17.21361 86.70673,21.82459 48.9267,8.9963 87.55268,10.88677 119.01862,12.3148 27.25442,1.23666 50.15062,1.25739 66.7144,0.99985 l -0.61474,180.32393 c -21.20425,2.46058 -47.1048,6.41216 -76.31269,13.01806 -30.45333,6.88894 -55.31814,15.14532 -105.04777,31.65808 -31.34553,10.40759 -50.93281,17.6386 -73.5005,28.09003 -23.13701,10.71456 -35.04754,18.16483 -43.42273,23.95905 -17.65054,12.21035 -30.65583,24.710131 -39.39381,34.104301 z" />
    </g>
  </g>
</svg>
