  0
SECTION
  2
HEADER
  9
$ACADVER
  1
AC1021
  9
$ACADMAINTVER
 70
    25
  9
$DWGCODEPAGE
  3
ANSI_1252
  9
$INSBASE
 10
0.0
 20
0.0
 30
0.0
  9
$EXTMIN
 10
-399.5934
 20
16.5752
 30
0.0
  9
$EXTMAX
 10
380.103
 20
249.4075
 30
0.0
  9
$LIMMIN
 10
0.0
 20
0.0
  9
$LIMMAX
 10
12.0
 20
9.0
  9
$ORTHOMODE
 70
     0
  9
$REGENMODE
 70
     1
  9
$FILLMODE
 70
     1
  9
$QTEXTMODE
 70
     0
  9
$MIRRTEXT
 70
     1
  9
$LTSCALE
 40
1.0
  9
$ATTMODE
 70
     1
  9
$TEXTSIZE
 40
0.2
  9
$TRACEWID
 40
0.05
  9
$TEXTSTYLE
  7
Standard
  9
$CLAYER
  8
0
  9
$CELTYPE
  6
ByLayer
  9
$CECOLOR
 62
   256
  9
$CELTSCALE
 40
1.0
  9
$DISPSILH
 70
     0
  9
$DIMSCALE
 40
1.0
  9
$DIMASZ
 40
0.18
  9
$DIMEXO
 40
0.0625
  9
$DIMDLI
 40
0.38
  9
$DIMRND
 40
0.0
  9
$DIMDLE
 40
0.0
  9
$DIMEXE
 40
0.18
  9
$DIMTP
 40
0.0
  9
$DIMTM
 40
0.0
  9
$DIMTXT
 40
0.18
  9
$DIMCEN
 40
0.09
  9
$DIMTSZ
 40
0.0
  9
$DIMTOL
 70
     0
  9
$DIMLIM
 70
     0
  9
$DIMTIH
 70
     1
  9
$DIMTOH
 70
     1
  9
$DIMSE1
 70
     0
  9
$DIMSE2
 70
     0
  9
$DIMTAD
 70
     0
  9
$DIMZIN
 70
     0
  9
$DIMBLK
  1

  9
$DIMASO
 70
     1
  9
$DIMSHO
 70
     1
  9
$DIMPOST
  1

  9
$DIMAPOST
  1

  9
$DIMALT
 70
     0
  9
$DIMALTD
 70
     2
  9
$DIMALTF
 40
25.4
  9
$DIMLFAC
 40
1.0
  9
$DIMTOFL
 70
     0
  9
$DIMTVP
 40
0.0
  9
$DIMTIX
 70
     0
  9
$DIMSOXD
 70
     0
  9
$DIMSAH
 70
     0
  9
$DIMBLK1
  1

  9
$DIMBLK2
  1

  9
$DIMSTYLE
  2
Standard
  9
$DIMCLRD
 70
     0
  9
$DIMCLRE
 70
     0
  9
$DIMCLRT
 70
     0
  9
$DIMTFAC
 40
1.0
  9
$DIMGAP
 40
0.09
  9
$DIMJUST
 70
     0
  9
$DIMSD1
 70
     0
  9
$DIMSD2
 70
     0
  9
$DIMTOLJ
 70
     1
  9
$DIMTZIN
 70
     0
  9
$DIMALTZ
 70
     0
  9
$DIMALTTZ
 70
     0
  9
$DIMUPT
 70
     0
  9
$DIMDEC
 70
     4
  9
$DIMTDEC
 70
     4
  9
$DIMALTU
 70
     2
  9
$DIMALTTD
 70
     2
  9
$DIMTXSTY
  7
Standard
  9
$DIMAUNIT
 70
     0
  9
$DIMADEC
 70
     0
  9
$DIMALTRND
 40
0.0
  9
$DIMAZIN
 70
     0
  9
$DIMDSEP
 70
    46
  9
$DIMATFIT
 70
     3
  9
$DIMFRAC
 70
     0
  9
$DIMLDRBLK
  1

  9
$DIMLUNIT
 70
     2
  9
$DIMLWD
 70
    -2
  9
$DIMLWE
 70
    -2
  9
$DIMTMOVE
 70
     0
  9
$DIMFXL
 40
1.0
  9
$DIMFXLON
 70
     0
  9
$DIMJOGANG
 40
0.7853981633974483
  9
$DIMTFILL
 70
     0
  9
$DIMTFILLCLR
 70
     0
  9
$DIMARCSYM
 70
     0
  9
$DIMLTYPE
  6

  9
$DIMLTEX1
  6

  9
$DIMLTEX2
  6

  9
$LUNITS
 70
     2
  9
$LUPREC
 70
     4
  9
$SKETCHINC
 40
0.1
  9
$FILLETRAD
 40
0.5
  9
$AUNITS
 70
     0
  9
$AUPREC
 70
     0
  9
$MENU
  1
.
  9
$ELEVATION
 40
0.0
  9
$PELEVATION
 40
0.0
  9
$THICKNESS
 40
0.0
  9
$LIMCHECK
 70
     0
  9
$CHAMFERA
 40
0.5
  9
$CHAMFERB
 40
0.5
  9
$CHAMFERC
 40
1.0
  9
$CHAMFERD
 40
0.0
  9
$SKPOLY
 70
     0
  9
$TDCREATE
 40
2458943.470663333
  9
$TDUCREATE
 40
2458943.345663333
  9
$TDUPDATE
 40
2458943.470663345
  9
$TDUUPDATE
 40
2458943.345663345
  9
$TDINDWG
 40
0.0000000116
  9
$TDUSRTIMER
 40
0.0000000116
  9
$USRTIMER
 70
     1
  9
$ANGBASE
 50
0.0
  9
$ANGDIR
 70
     0
  9
$PDMODE
 70
     0
  9
$PDSIZE
 40
0.0
  9
$PLINEWID
 40
0.0
  9
$SPLFRAME
 70
     0
  9
$SPLINETYPE
 70
     6
  9
$SPLINESEGS
 70
     8
  9
$HANDSEED
  5
98
  9
$SURFTAB1
 70
     6
  9
$SURFTAB2
 70
     6
  9
$SURFTYPE
 70
     6
  9
$SURFU
 70
     6
  9
$SURFV
 70
     6
  9
$UCSBASE
  2

  9
$UCSNAME
  2

  9
$UCSORG
 10
0.0
 20
0.0
 30
0.0
  9
$UCSXDIR
 10
1.0
 20
0.0
 30
0.0
  9
$UCSYDIR
 10
0.0
 20
1.0
 30
0.0
  9
$UCSORTHOREF
  2

  9
$UCSORTHOVIEW
 70
     0
  9
$UCSORGTOP
 10
0.0
 20
0.0
 30
0.0
  9
$UCSORGBOTTOM
 10
0.0
 20
0.0
 30
0.0
  9
$UCSORGLEFT
 10
0.0
 20
0.0
 30
0.0
  9
$UCSORGRIGHT
 10
0.0
 20
0.0
 30
0.0
  9
$UCSORGFRONT
 10
0.0
 20
0.0
 30
0.0
  9
$UCSORGBACK
 10
0.0
 20
0.0
 30
0.0
  9
$PUCSBASE
  2

  9
$PUCSNAME
  2

  9
$PUCSORG
 10
0.0
 20
0.0
 30
0.0
  9
$PUCSXDIR
 10
1.0
 20
0.0
 30
0.0
  9
$PUCSYDIR
 10
0.0
 20
1.0
 30
0.0
  9
$PUCSORTHOREF
  2

  9
$PUCSORTHOVIEW
 70
     0
  9
$PUCSORGTOP
 10
0.0
 20
0.0
 30
0.0
  9
$PUCSORGBOTTOM
 10
0.0
 20
0.0
 30
0.0
  9
$PUCSORGLEFT
 10
0.0
 20
0.0
 30
0.0
  9
$PUCSORGRIGHT
 10
0.0
 20
0.0
 30
0.0
  9
$PUCSORGFRONT
 10
0.0
 20
0.0
 30
0.0
  9
$PUCSORGBACK
 10
0.0
 20
0.0
 30
0.0
  9
$USERI1
 70
     0
  9
$USERI2
 70
     0
  9
$USERI3
 70
     0
  9
$USERI4
 70
     0
  9
$USERI5
 70
     0
  9
$USERR1
 40
0.0
  9
$USERR2
 40
0.0
  9
$USERR3
 40
0.0
  9
$USERR4
 40
0.0
  9
$USERR5
 40
0.0
  9
$WORLDVIEW
 70
     1
  9
$SHADEDGE
 70
     3
  9
$SHADEDIF
 70
    70
  9
$TILEMODE
 70
     1
  9
$MAXACTVP
 70
    64
  9
$PINSBASE
 10
0.0
 20
0.0
 30
0.0
  9
$PLIMCHECK
 70
     0
  9
$PEXTMIN
 10
1.000000000000000E+20
 20
1.000000000000000E+20
 30
1.000000000000000E+20
  9
$PEXTMAX
 10
-1.000000000000000E+20
 20
-1.000000000000000E+20
 30
-1.000000000000000E+20
  9
$PLIMMIN
 10
0.0
 20
0.0
  9
$PLIMMAX
 10
12.0
 20
9.0
  9
$UNITMODE
 70
     0
  9
$VISRETAIN
 70
     1
  9
$PLINEGEN
 70
     0
  9
$PSLTSCALE
 70
     1
  9
$TREEDEPTH
 70
  3020
  9
$CMLSTYLE
  2
Standard
  9
$CMLJUST
 70
     0
  9
$CMLSCALE
 40
1.0
  9
$PROXYGRAPHICS
 70
     1
  9
$MEASUREMENT
 70
     0
  9
$CELWEIGHT
370
    -1
  9
$ENDCAPS
280
     0
  9
$JOINSTYLE
280
     0
  9
$LWDISPLAY
290
     0
  9
$INSUNITS
 70
     4
  9
$HYPERLINKBASE
  1

  9
$STYLESHEET
  1

  9
$XEDIT
290
     1
  9
$CEPSNTYPE
380
     0
  9
$PSTYLEMODE
290
     1
  9
$FINGERPRINTGUID
  2
{1E2C020C-EFB7-4365-8586-04824C80A56A}
  9
$VERSIONGUID
  2
{FAEB1C32-E019-11D5-929B-00C0DF256EC4}
  9
$EXTNAMES
290
     1
  9
$PSVPSCALE
 40
0.0
  9
$OLESTARTUP
290
     0
  9
$SORTENTS
280
   127
  9
$INDEXCTL
280
     0
  9
$HIDETEXT
280
     1
  9
$XCLIPFRAME
290
     0
  9
$HALOGAP
280
     0
  9
$OBSCOLOR
 70
   257
  9
$OBSLTYPE
280
     0
  9
$INTERSECTIONDISPLAY
280
     0
  9
$INTERSECTIONCOLOR
 70
   257
  9
$DIMASSOC
280
     2
  9
$PROJECTNAME
  1

  9
$CAMERADISPLAY
290
     0
  9
$LENSLENGTH
 40
50.0
  9
$CAMERAHEIGHT
 40
0.0
  9
$STEPSPERSEC
 40
2.0
  9
$STEPSIZE
 40
6.0
  9
$3DDWFPREC
 40
2.0
  9
$PSOLWIDTH
 40
0.25
  9
$PSOLHEIGHT
 40
4.0
  9
$LOFTANG1
 40
1.570796326794897
  9
$LOFTANG2
 40
1.570796326794897
  9
$LOFTMAG1
 40
0.0
  9
$LOFTMAG2
 40
0.0
  9
$LOFTPARAM
 70
     7
  9
$LOFTNORMALS
280
     1
  9
$LATITUDE
 40
37.795
  9
$LONGITUDE
 40
-122.394
  9
$NORTHDIRECTION
 40
0.0
  9
$TIMEZONE
 70
 -8000
  9
$LIGHTGLYPHDISPLAY
280
     1
  9
$TILEMODELIGHTSYNCH
280
     1
  9
$SOLIDHIST
280
     1
  9
$SHOWHIST
280
     1
  9
$DWFFRAME
280
     2
  9
$DGNFRAME
280
     2
  9
$REALWORLDSCALE
290
     1
  9
$INTERFERECOLOR
 62
   256
  9
$CSHADOW
280
     0
  9
$SHADOWPLANELOCATION
 40
0.0
  0
ENDSEC
  0
SECTION
  2
CLASSES
  0
CLASS
  1
ACDBDICTIONARYWDFLT
  2
AcDbDictionaryWithDefault
  3
ObjectDBX Classes
 90
        0
 91
        4
280
     0
281
     0
  0
CLASS
  1
VISUALSTYLE
  2
AcDbVisualStyle
  3
ObjectDBX Classes
 90
     4095
 91
        4
280
     0
281
     0
  0
CLASS
  1
MATERIAL
  2
AcDbMaterial
  3
ObjectDBX Classes
 90
     1153
 91
        4
280
     0
281
     0
  0
ENDSEC
  0
SECTION
  2
TABLES
  0
TABLE
  2
VPORT
  5
8
330
0
100
AcDbSymbolTable
 70
     1
  0
VPORT
  5
29
330
8
100
AcDbSymbolTableRecord
100
AcDbViewportTableRecord
  2
*Active
 70
     0
 10
0.0
 20
0.0
 11
1.0
 21
1.0
 12
10.42990654205607
 22
4.5
 13
0.0
 23
0.0
 14
0.5
 24
0.5
 15
0.5
 25
0.5
 16
0.0
 26
0.0
 36
1.0
 17
0.0
 27
0.0
 37
0.0
 40
9.0
 41
1.972972972850329
 42
50.0
 43
0.0
 44
0.0
 50
0.0
 51
0.0
 71
     0
 72
   100
 73
     1
 74
     3
 75
     0
 76
     0
 77
     0
 78
     0
281
     0
 65
     1
110
0.0
120
0.0
130
0.0
111
1.0
121
0.0
131
0.0
112
0.0
122
1.0
132
0.0
 79
     0
146
0.0
 60
     3
 61
     5
292
     1
282
     1
141
0.0
142
0.0
 63
   250
  0
ENDTAB
  0
TABLE
  2
LTYPE
  5
5
330
0
100
AcDbSymbolTable
 70
     1
  0
LTYPE
  5
14
330
5
100
AcDbSymbolTableRecord
100
AcDbLinetypeTableRecord
  2
ByBlock
 70
     0
  3

 72
    65
 73
     0
 40
0.0
  0
LTYPE
  5
15
330
5
100
AcDbSymbolTableRecord
100
AcDbLinetypeTableRecord
  2
ByLayer
 70
     0
  3

 72
    65
 73
     0
 40
0.0
  0
LTYPE
  5
16
330
5
100
AcDbSymbolTableRecord
100
AcDbLinetypeTableRecord
  2
Continuous
 70
     0
  3
Solid line
 72
    65
 73
     0
 40
0.0
  0
ENDTAB
  0
TABLE
  2
LAYER
  5
2
330
0
100
AcDbSymbolTable
 70
     2
  0
LAYER
  5
10
330
2
100
AcDbSymbolTableRecord
100
AcDbLayerTableRecord
  2
0
 70
     0
 62
     7
  6
Continuous
370
    -3
390
F
347
3E
  0
LAYER
  5
40
330
2
100
AcDbSymbolTableRecord
100
AcDbLayerTableRecord
  2
Layer 1
 70
     0
 62
     7
  6
Continuous
370
    -3
390
F
347
3E
  0
ENDTAB
  0
TABLE
  2
STYLE
  5
3
330
0
100
AcDbSymbolTable
 70
     1
  0
STYLE
  5
11
330
3
100
AcDbSymbolTableRecord
100
AcDbTextStyleTableRecord
  2
Standard
 70
     0
 40
0.0
 41
1.0
 50
0.0
 71
     0
 42
0.2
  3
txt
  4

  0
ENDTAB
  0
TABLE
  2
VIEW
  5
6
330
0
100
AcDbSymbolTable
 70
     0
  0
ENDTAB
  0
TABLE
  2
UCS
  5
7
330
0
100
AcDbSymbolTable
 70
     0
  0
ENDTAB
  0
TABLE
  2
APPID
  5
9
330
0
100
AcDbSymbolTable
 70
     2
  0
APPID
  5
12
330
9
100
AcDbSymbolTableRecord
100
AcDbRegAppTableRecord
  2
ACAD
 70
     0
  0
APPID
  5
3F
330
9
100
AcDbSymbolTableRecord
100
AcDbRegAppTableRecord
  2
ODA
 70
     0
  0
ENDTAB
  0
TABLE
  2
DIMSTYLE
  5
A
330
0
100
AcDbSymbolTable
 70
     1
100
AcDbDimStyleTable
  0
DIMSTYLE
105
27
330
A
100
AcDbSymbolTableRecord
100
AcDbDimStyleTableRecord
  2
Standard
 70
     0
340
11
  0
ENDTAB
  0
TABLE
  2
BLOCK_RECORD
  5
1
330
0
100
AcDbSymbolTable
 70
     1
  0
BLOCK_RECORD
  5
1F
330
1
100
AcDbSymbolTableRecord
100
AcDbBlockTableRecord
  2
*Model_Space
340
22
 70
     0
280
     1
281
     0
  0
BLOCK_RECORD
  5
1B
330
1
100
AcDbSymbolTableRecord
100
AcDbBlockTableRecord
  2
*Paper_Space
340
1E
 70
     0
280
     1
281
     0
  0
BLOCK_RECORD
  5
23
330
1
100
AcDbSymbolTableRecord
100
AcDbBlockTableRecord
  2
*Paper_Space0
340
26
 70
     0
280
     1
281
     0
  0
ENDTAB
  0
ENDSEC
  0
SECTION
  2
BLOCKS
  0
BLOCK
  5
20
330
1F
100
AcDbEntity
  8
0
100
AcDbBlockBegin
  2
*Model_Space
 70
     0
 10
0.0
 20
0.0
 30
0.0
  3
*Model_Space
  1

  0
ENDBLK
  5
21
330
1F
100
AcDbEntity
  8
0
100
AcDbBlockEnd
  0
BLOCK
  5
1C
330
1B
100
AcDbEntity
 67
     1
  8
0
100
AcDbBlockBegin
  2
*Paper_Space
 70
     0
 10
0.0
 20
0.0
 30
0.0
  3
*Paper_Space
  1

  0
ENDBLK
  5
1D
330
1B
100
AcDbEntity
 67
     1
  8
0
100
AcDbBlockEnd
  0
BLOCK
  5
24
330
23
100
AcDbEntity
  8
0
100
AcDbBlockBegin
  2
*Paper_Space0
 70
     0
 10
0.0
 20
0.0
 30
0.0
  3
*Paper_Space0
  1

  0
ENDBLK
  5
25
330
23
100
AcDbEntity
  8
0
100
AcDbBlockEnd
  0
ENDSEC
  0
SECTION
  2
ENTITIES
  0
SPLINE
  5
41
330
1F
100
AcDbEntity
  8
Layer 1
 62
     1
370
     9
100
AcDbSpline
210
0.0
220
0.0
230
1.0
 70
    11
 71
     3
 72
    28
 73
    24
 74
     0
 42
0.0000000001
 43
0.0000000001
 40
0.0
 40
0.0
 40
0.0
 40
0.0
 40
0.1428571428571428
 40
0.1428571428571428
 40
0.1428571428571428
 40
0.1428571428571428
 40
0.2857142857142857
 40
0.2857142857142857
 40
0.2857142857142857
 40
0.2857142857142857
 40
0.4285714285714285
 40
0.4285714285714285
 40
0.4285714285714285
 40
0.4285714285714285
 40
0.5714285714285714
 40
0.5714285714285714
 40
0.5714285714285714
 40
0.5714285714285714
 40
0.7142857142857143
 40
0.7142857142857143
 40
0.7142857142857143
 40
0.7142857142857143
 40
1.0
 40
1.0
 40
1.0
 40
1.0
 10
-154.5183
 20
38.5191
 30
0.0
 10
-152.9915
 20
38.5184
 30
0.0
 10
-151.7539
 20
37.2801
 30
0.0
 10
-151.7546
 20
35.7533
 30
0.0
 10
-151.7546
 20
35.7533
 30
0.0
 10
-151.7553
 20
34.2272
 30
0.0
 10
-152.9922
 20
32.9904
 30
0.0
 10
-154.5183
 20
32.9897
 30
0.0
 10
-154.5183
 20
32.9897
 30
0.0
 10
-154.5183
 20
32.9897
 30
0.0
 10
-156.5288
 20
32.9897
 30
0.0
 10
-156.5288
 20
32.9897
 30
0.0
 10
-156.5288
 20
32.9897
 30
0.0
 10
-158.0552
 20
32.9904
 30
0.0
 10
-159.2931
 20
34.2286
 30
0.0
 10
-159.2924
 20
35.7554
 30
0.0
 10
-159.2924
 20
35.7554
 30
0.0
 10
-159.2914
 20
37.2816
 30
0.0
 10
-158.0545
 20
38.5184
 30
0.0
 10
-156.5288
 20
38.5191
 30
0.0
 10
-156.5288
 20
38.5191
 30
0.0
 10
-156.5288
 20
38.5191
 30
0.0
 10
-154.5183
 20
38.5191
 30
0.0
 10
-154.5183
 20
38.5191
 30
0.0
  0
SPLINE
  5
42
330
1F
100
AcDbEntity
  8
Layer 1
 62
     1
370
     9
100
AcDbSpline
210
0.0
220
0.0
230
1.0
 70
    11
 71
     3
 72
    20
 73
    16
 74
     0
 42
0.0000000001
 43
0.0000000001
 40
0.0
 40
0.0
 40
0.0
 40
0.0
 40
0.2
 40
0.2
 40
0.2
 40
0.2
 40
0.4
 40
0.4
 40
0.4
 40
0.4
 40
0.6
 40
0.6
 40
0.6
 40
0.6
 40
1.0
 40
1.0
 40
1.0
 40
1.0
 10
-203.5322
 20
35.7548
 30
0.0
 10
-203.5322
 20
34.2272
 30
0.0
 10
-202.2946
 20
32.9897
 30
0.0
 10
-200.7671
 20
32.9897
 30
0.0
 10
-200.7671
 20
32.9897
 30
0.0
 10
-199.2403
 20
32.9897
 30
0.0
 10
-198.0024
 20
34.2272
 30
0.0
 10
-198.0024
 20
35.7548
 30
0.0
 10
-198.0024
 20
35.7548
 30
0.0
 10
-198.0024
 20
37.2816
 30
0.0
 10
-199.2403
 20
38.5191
 30
0.0
 10
-200.7671
 20
38.5191
 30
0.0
 10
-200.7671
 20
38.5191
 30
0.0
 10
-202.2946
 20
38.5191
 30
0.0
 10
-203.5322
 20
37.2816
 30
0.0
 10
-203.5322
 20
35.7548
 30
0.0
  0
SPLINE
  5
43
330
1F
100
AcDbEntity
  8
Layer 1
 62
     1
370
     9
100
AcDbSpline
210
0.0
220
0.0
230
1.0
 70
    11
 71
     3
 72
    28
 73
    24
 74
     0
 42
0.0000000001
 43
0.0000000001
 40
0.0
 40
0.0
 40
0.0
 40
0.0
 40
0.1428571428571428
 40
0.1428571428571428
 40
0.1428571428571428
 40
0.1428571428571428
 40
0.2857142857142857
 40
0.2857142857142857
 40
0.2857142857142857
 40
0.2857142857142857
 40
0.4285714285714285
 40
0.4285714285714285
 40
0.4285714285714285
 40
0.4285714285714285
 40
0.5714285714285714
 40
0.5714285714285714
 40
0.5714285714285714
 40
0.5714285714285714
 40
0.7142857142857143
 40
0.7142857142857143
 40
0.7142857142857143
 40
0.7142857142857143
 40
1.0
 40
1.0
 40
1.0
 40
1.0
 10
-247.0161
 20
38.5191
 30
0.0
 10
-247.0161
 20
38.5191
 30
0.0
 10
-245.0057
 20
38.5191
 30
0.0
 10
-245.0057
 20
38.5191
 30
0.0
 10
-245.0057
 20
38.5191
 30
0.0
 10
-243.4785
 20
38.5184
 30
0.0
 10
-242.2413
 20
37.2801
 30
0.0
 10
-242.242
 20
35.7533
 30
0.0
 10
-242.242
 20
35.7533
 30
0.0
 10
-242.2427
 20
34.2272
 30
0.0
 10
-243.4796
 20
32.9904
 30
0.0
 10
-245.0057
 20
32.9897
 30
0.0
 10
-245.0057
 20
32.9897
 30
0.0
 10
-245.0057
 20
32.9897
 30
0.0
 10
-247.0161
 20
32.9897
 30
0.0
 10
-247.0161
 20
32.9897
 30
0.0
 10
-247.0161
 20
32.9897
 30
0.0
 10
-248.5433
 20
32.9904
 30
0.0
 10
-249.7805
 20
34.2286
 30
0.0
 10
-249.7798
 20
35.7554
 30
0.0
 10
-249.7798
 20
35.7554
 30
0.0
 10
-249.7791
 20
37.2816
 30
0.0
 10
-248.5423
 20
38.5184
 30
0.0
 10
-247.0161
 20
38.5191
 30
0.0
  0
SPLINE
  5
44
330
1F
100
AcDbEntity
  8
Layer 1
 62
     1
370
     9
100
AcDbSpline
210
0.0
220
0.0
230
1.0
 70
    11
 71
     3
 72
    20
 73
    16
 74
     0
 42
0.0000000001
 43
0.0000000001
 40
0.0
 40
0.0
 40
0.0
 40
0.0
 40
0.2
 40
0.2
 40
0.2
 40
0.2
 40
0.4
 40
0.4
 40
0.4
 40
0.4
 40
0.6
 40
0.6
 40
0.6
 40
0.6
 40
1.0
 40
1.0
 40
1.0
 40
1.0
 10
-383.3299
 20
223.7279
 30
0.0
 10
-383.3299
 20
223.7279
 30
0.0
 10
-384.9174
 20
223.7279
 30
0.0
 10
-384.9174
 20
223.7279
 30
0.0
 10
-384.9174
 20
223.7279
 30
0.0
 10
-384.9174
 20
223.7279
 30
0.0
 10
-384.9174
 20
239.6029
 30
0.0
 10
-384.9174
 20
239.6029
 30
0.0
 10
-384.9174
 20
239.6029
 30
0.0
 10
-384.9174
 20
239.6029
 30
0.0
 10
-383.3299
 20
239.6029
 30
0.0
 10
-383.3299
 20
239.6029
 30
0.0
 10
-383.3299
 20
239.6029
 30
0.0
 10
-383.3299
 20
239.6029
 30
0.0
 10
-383.3299
 20
223.7279
 30
0.0
 10
-383.3299
 20
223.7279
 30
0.0
  0
SPLINE
  5
45
330
1F
100
AcDbEntity
  8
Layer 1
 62
     1
370
     9
100
AcDbSpline
210
0.0
220
0.0
230
1.0
 70
    11
 71
     3
 72
    20
 73
    16
 74
     0
 42
0.0000000001
 43
0.0000000001
 40
0.0
 40
0.0
 40
0.0
 40
0.0
 40
0.2
 40
0.2
 40
0.2
 40
0.2
 40
0.4
 40
0.4
 40
0.4
 40
0.4
 40
0.6
 40
0.6
 40
0.6
 40
0.6
 40
1.0
 40
1.0
 40
1.0
 40
1.0
 10
-353.1674
 20
223.7279
 30
0.0
 10
-353.1674
 20
223.7279
 30
0.0
 10
-354.7549
 20
223.7279
 30
0.0
 10
-354.7549
 20
223.7279
 30
0.0
 10
-354.7549
 20
223.7279
 30
0.0
 10
-354.7549
 20
223.7279
 30
0.0
 10
-354.7549
 20
239.6029
 30
0.0
 10
-354.7549
 20
239.6029
 30
0.0
 10
-354.7549
 20
239.6029
 30
0.0
 10
-354.7549
 20
239.6029
 30
0.0
 10
-353.1674
 20
239.6029
 30
0.0
 10
-353.1674
 20
239.6029
 30
0.0
 10
-353.1674
 20
239.6029
 30
0.0
 10
-353.1674
 20
239.6029
 30
0.0
 10
-353.1674
 20
223.7279
 30
0.0
 10
-353.1674
 20
223.7279
 30
0.0
  0
SPLINE
  5
46
330
1F
100
AcDbEntity
  8
Layer 1
 62
     1
370
     9
100
AcDbSpline
210
0.0
220
0.0
230
1.0
 70
    11
 71
     3
 72
    20
 73
    16
 74
     0
 42
0.0000000001
 43
0.0000000001
 40
0.0
 40
0.0
 40
0.0
 40
0.0
 40
0.2
 40
0.2
 40
0.2
 40
0.2
 40
0.4
 40
0.4
 40
0.4
 40
0.4
 40
0.6
 40
0.6
 40
0.6
 40
0.6
 40
1.0
 40
1.0
 40
1.0
 40
1.0
 10
-345.2299
 20
223.7279
 30
0.0
 10
-345.2299
 20
223.7279
 30
0.0
 10
-346.8174
 20
223.7279
 30
0.0
 10
-346.8174
 20
223.7279
 30
0.0
 10
-346.8174
 20
223.7279
 30
0.0
 10
-346.8174
 20
223.7279
 30
0.0
 10
-346.8174
 20
239.6029
 30
0.0
 10
-346.8174
 20
239.6029
 30
0.0
 10
-346.8174
 20
239.6029
 30
0.0
 10
-346.8174
 20
239.6029
 30
0.0
 10
-345.2299
 20
239.6029
 30
0.0
 10
-345.2299
 20
239.6029
 30
0.0
 10
-345.2299
 20
239.6029
 30
0.0
 10
-345.2299
 20
239.6029
 30
0.0
 10
-345.2299
 20
223.7279
 30
0.0
 10
-345.2299
 20
223.7279
 30
0.0
  0
SPLINE
  5
47
330
1F
100
AcDbEntity
  8
Layer 1
 62
     1
370
     9
100
AcDbSpline
210
0.0
220
0.0
230
1.0
 70
    11
 71
     3
 72
    20
 73
    16
 74
     0
 42
0.0000000001
 43
0.0000000001
 40
0.0
 40
0.0
 40
0.0
 40
0.0
 40
0.2
 40
0.2
 40
0.2
 40
0.2
 40
0.4
 40
0.4
 40
0.4
 40
0.4
 40
0.6
 40
0.6
 40
0.6
 40
0.6
 40
1.0
 40
1.0
 40
1.0
 40
1.0
 10
-54.7171
 20
223.7279
 30
0.0
 10
-54.7171
 20
223.7279
 30
0.0
 10
-56.3046
 20
223.7279
 30
0.0
 10
-56.3046
 20
223.7279
 30
0.0
 10
-56.3046
 20
223.7279
 30
0.0
 10
-56.3046
 20
223.7279
 30
0.0
 10
-56.3046
 20
239.6029
 30
0.0
 10
-56.3046
 20
239.6029
 30
0.0
 10
-56.3046
 20
239.6029
 30
0.0
 10
-56.3046
 20
239.6029
 30
0.0
 10
-54.7171
 20
239.6029
 30
0.0
 10
-54.7171
 20
239.6029
 30
0.0
 10
-54.7171
 20
239.6029
 30
0.0
 10
-54.7171
 20
239.6029
 30
0.0
 10
-54.7171
 20
223.7279
 30
0.0
 10
-54.7171
 20
223.7279
 30
0.0
  0
SPLINE
  5
48
330
1F
100
AcDbEntity
  8
Layer 1
 62
     1
370
     9
100
AcDbSpline
210
0.0
220
0.0
230
1.0
 70
    11
 71
     3
 72
    20
 73
    16
 74
     0
 42
0.0000000001
 43
0.0000000001
 40
0.0
 40
0.0
 40
0.0
 40
0.0
 40
0.2
 40
0.2
 40
0.2
 40
0.2
 40
0.4
 40
0.4
 40
0.4
 40
0.4
 40
0.6
 40
0.6
 40
0.6
 40
0.6
 40
1.0
 40
1.0
 40
1.0
 40
1.0
 10
-46.7796
 20
223.7279
 30
0.0
 10
-46.7796
 20
223.7279
 30
0.0
 10
-48.3671
 20
223.7279
 30
0.0
 10
-48.3671
 20
223.7279
 30
0.0
 10
-48.3671
 20
223.7279
 30
0.0
 10
-48.3671
 20
223.7279
 30
0.0
 10
-48.3671
 20
239.6029
 30
0.0
 10
-48.3671
 20
239.6029
 30
0.0
 10
-48.3671
 20
239.6029
 30
0.0
 10
-48.3671
 20
239.6029
 30
0.0
 10
-46.7796
 20
239.6029
 30
0.0
 10
-46.7796
 20
239.6029
 30
0.0
 10
-46.7796
 20
239.6029
 30
0.0
 10
-46.7796
 20
239.6029
 30
0.0
 10
-46.7796
 20
223.7279
 30
0.0
 10
-46.7796
 20
223.7279
 30
0.0
  0
SPLINE
  5
49
330
1F
100
AcDbEntity
  8
Layer 1
 62
     1
370
     9
100
AcDbSpline
210
0.0
220
0.0
230
1.0
 70
    11
 71
     3
 72
    20
 73
    16
 74
     0
 42
0.0000000001
 43
0.0000000001
 40
0.0
 40
0.0
 40
0.0
 40
0.0
 40
0.2
 40
0.2
 40
0.2
 40
0.2
 40
0.4
 40
0.4
 40
0.4
 40
0.4
 40
0.6
 40
0.6
 40
0.6
 40
0.6
 40
1.0
 40
1.0
 40
1.0
 40
1.0
 10
-16.6171
 20
223.7279
 30
0.0
 10
-16.6171
 20
223.7279
 30
0.0
 10
-18.2046
 20
223.7279
 30
0.0
 10
-18.2046
 20
223.7279
 30
0.0
 10
-18.2046
 20
223.7279
 30
0.0
 10
-18.2046
 20
223.7279
 30
0.0
 10
-18.2046
 20
239.6029
 30
0.0
 10
-18.2046
 20
239.6029
 30
0.0
 10
-18.2046
 20
239.6029
 30
0.0
 10
-18.2046
 20
239.6029
 30
0.0
 10
-16.6171
 20
239.6029
 30
0.0
 10
-16.6171
 20
239.6029
 30
0.0
 10
-16.6171
 20
239.6029
 30
0.0
 10
-16.6171
 20
239.6029
 30
0.0
 10
-16.6171
 20
223.7279
 30
0.0
 10
-16.6171
 20
223.7279
 30
0.0
  0
SPLINE
  5
4A
330
1F
100
AcDbEntity
  8
Layer 1
370
     9
100
AcDbSpline
210
0.0
220
0.0
230
1.0
 70
    24
 71
     3
 72
     8
 73
     4
 74
     0
 42
0.0000000001
 43
0.0000000001
 40
0.0
 40
0.0
 40
0.0
 40
0.0
 40
1.0
 40
1.0
 40
1.0
 40
1.0
 10
-32.369
 20
249.3694
 30
0.0
 10
-32.369
 20
249.3694
 30
0.0
 10
-103.4453
 20
249.2604
 30
0.0
 10
-103.4453
 20
249.2604
 30
0.0
  0
SPLINE
  5
4B
330
1F
100
AcDbEntity
  8
Layer 1
370
     9
100
AcDbSpline
210
0.0
220
0.0
230
1.0
 70
    24
 71
     3
 72
     8
 73
     4
 74
     0
 42
0.0000000001
 43
0.0000000001
 40
0.0
 40
0.0
 40
0.0
 40
0.0
 40
1.0
 40
1.0
 40
1.0
 40
1.0
 10
-298.0063
 20
249.2604
 30
0.0
 10
-298.0063
 20
249.2604
 30
0.0
 10
-369.1656
 20
249.3694
 30
0.0
 10
-369.1656
 20
249.3694
 30
0.0
  0
SPLINE
  5
4C
330
1F
100
AcDbEntity
  8
Layer 1
370
     9
100
AcDbSpline
210
0.0
220
0.0
230
1.0
 70
    24
 71
     3
 72
     8
 73
     4
 74
     0
 42
0.0000000001
 43
0.0000000001
 40
0.0
 40
0.0
 40
0.0
 40
0.0
 40
1.0
 40
1.0
 40
1.0
 40
1.0
 10
-103.4453
 20
249.2604
 30
0.0
 10
-103.4453
 20
249.2604
 30
0.0
 10
-298.0063
 20
249.2604
 30
0.0
 10
-298.0063
 20
249.2604
 30
0.0
  0
SPLINE
  5
4D
330
1F
100
AcDbEntity
  8
Layer 1
370
     9
100
AcDbSpline
210
0.0
220
0.0
230
1.0
 70
    24
 71
     3
 72
     8
 73
     4
 74
     0
 42
0.0000000001
 43
0.0000000001
 40
0.0
 40
0.0
 40
0.0
 40
0.0
 40
1.0
 40
1.0
 40
1.0
 40
1.0
 10
-399.5553
 20
219.0267
 30
0.0
 10
-399.5553
 20
219.0267
 30
0.0
 10
-399.5553
 20
142.4605
 30
0.0
 10
-399.5553
 20
142.4605
 30
0.0
  0
SPLINE
  5
4E
330
1F
100
AcDbEntity
  8
Layer 1
370
     9
100
AcDbSpline
210
0.0
220
0.0
230
1.0
 70
    24
 71
     3
 72
     8
 73
     4
 74
     0
 42
0.0000000001
 43
0.0000000001
 40
0.0
 40
0.0
 40
0.0
 40
0.0
 40
1.0
 40
1.0
 40
1.0
 40
1.0
 10
-1.9793
 20
142.3845
 30
0.0
 10
-1.9793
 20
142.3845
 30
0.0
 10
-1.9793
 20
219.0267
 30
0.0
 10
-1.9793
 20
219.0267
 30
0.0
  0
SPLINE
  5
4F
330
1F
100
AcDbEntity
  8
Layer 1
370
     9
100
AcDbSpline
210
0.0
220
0.0
230
1.0
 70
     8
 71
     3
 72
    16
 73
    12
 74
     0
 42
0.0000000001
 43
0.0000000001
 40
0.0
 40
0.0
 40
0.0
 40
0.0
 40
0.25
 40
0.25
 40
0.25
 40
0.25
 40
0.5
 40
0.5
 40
0.5
 40
0.5
 40
1.0
 40
1.0
 40
1.0
 40
1.0
 10
-399.5553
 20
142.4605
 30
0.0
 10
-399.5553
 20
128.8146
 30
0.0
 10
-394.1614
 20
115.7318
 30
0.0
 10
-384.5735
 20
106.0209
 30
0.0
 10
-384.5735
 20
106.0209
 30
0.0
 10
-337.0529
 20
57.8903
 30
0.0
 10
-182.9735
 20
-68.9204
 30
0.0
 10
-16.2421
 20
106.6829
 30
0.0
 10
-16.2421
 20
106.6829
 30
0.0
 10
-7.0932
 20
116.3198
 30
0.0
 10
-1.9793
 20
129.0966
 30
0.0
 10
-1.9793
 20
142.3845
 30
0.0
  0
SPLINE
  5
50
330
1F
100
AcDbEntity
  8
Layer 1
370
     9
100
AcDbSpline
210
0.0
220
0.0
230
1.0
 70
     8
 71
     3
 72
     8
 73
     4
 74
     0
 42
0.0000000001
 43
0.0000000001
 40
0.0
 40
0.0
 40
0.0
 40
0.0
 40
1.0
 40
1.0
 40
1.0
 40
1.0
 10
-1.9793
 20
219.0267
 30
0.0
 10
-1.9793
 20
235.8026
 30
0.0
 10
-15.5932
 20
249.3954
 30
0.0
 10
-32.369
 20
249.3694
 30
0.0
  0
SPLINE
  5
51
330
1F
100
AcDbEntity
  8
Layer 1
370
     9
100
AcDbSpline
210
0.0
220
0.0
230
1.0
 70
     8
 71
     3
 72
     8
 73
     4
 74
     0
 42
0.0000000001
 43
0.0000000001
 40
0.0
 40
0.0
 40
0.0
 40
0.0
 40
1.0
 40
1.0
 40
1.0
 40
1.0
 10
-369.1656
 20
249.3694
 30
0.0
 10
-385.9414
 20
249.3954
 30
0.0
 10
-399.5553
 20
235.8026
 30
0.0
 10
-399.5553
 20
219.0267
 30
0.0
  0
SPLINE
  5
52
330
1F
100
AcDbEntity
  8
Layer 1
 62
     1
370
     9
100
AcDbSpline
210
0.0
220
0.0
230
1.0
 70
    11
 71
     3
 72
    68
 73
    64
 74
     0
 42
0.0000000001
 43
0.0000000001
 40
0.0
 40
0.0
 40
0.0
 40
0.0
 40
0.0588235294117647
 40
0.0588235294117647
 40
0.0588235294117647
 40
0.0588235294117647
 40
0.1176470588235294
 40
0.1176470588235294
 40
0.1176470588235294
 40
0.1176470588235294
 40
0.1764705882352941
 40
0.1764705882352941
 40
0.1764705882352941
 40
0.1764705882352941
 40
0.2352941176470588
 40
0.2352941176470588
 40
0.2352941176470588
 40
0.2352941176470588
 40
0.2941176470588235
 40
0.2941176470588235
 40
0.2941176470588235
 40
0.2941176470588235
 40
0.3529411764705883
 40
0.3529411764705883
 40
0.3529411764705883
 40
0.3529411764705883
 40
0.4117647058823529
 40
0.4117647058823529
 40
0.4117647058823529
 40
0.4117647058823529
 40
0.4705882352941176
 40
0.4705882352941176
 40
0.4705882352941176
 40
0.4705882352941176
 40
0.5294117647058824
 40
0.5294117647058824
 40
0.5294117647058824
 40
0.5294117647058824
 40
0.5882352941176471
 40
0.5882352941176471
 40
0.5882352941176471
 40
0.5882352941176471
 40
0.6470588235294118
 40
0.6470588235294118
 40
0.6470588235294118
 40
0.6470588235294118
 40
0.7058823529411765
 40
0.7058823529411765
 40
0.7058823529411765
 40
0.7058823529411765
 40
0.7647058823529411
 40
0.7647058823529411
 40
0.7647058823529411
 40
0.7647058823529411
 40
0.8235294117647058
 40
0.8235294117647058
 40
0.8235294117647058
 40
0.8235294117647058
 40
0.8823529411764706
 40
0.8823529411764706
 40
0.8823529411764706
 40
0.8823529411764706
 40
1.0
 40
1.0
 40
1.0
 40
1.0
 10
300.6899
 20
245.9269
 30
0.0
 10
300.6899
 20
245.9269
 30
0.0
 10
253.8911
 20
245.9269
 30
0.0
 10
253.8911
 20
245.9269
 30
0.0
 10
253.8911
 20
245.9269
 30
0.0
 10
253.8911
 20
245.9269
 30
0.0
 10
244.9429
 20
245.9269
 30
0.0
 10
244.9429
 20
245.9269
 30
0.0
 10
244.9429
 20
245.9269
 30
0.0
 10
244.9429
 20
245.9269
 30
0.0
 10
57.9869
 20
245.9269
 30
0.0
 10
57.9869
 20
245.9269
 30
0.0
 10
57.9869
 20
245.9269
 30
0.0
 10
57.9869
 20
245.9269
 30
0.0
 10
45.2862
 20
245.9269
 30
0.0
 10
45.2862
 20
245.9269
 30
0.0
 10
45.2862
 20
245.9269
 30
0.0
 10
45.2862
 20
245.9269
 30
0.0
 10
2.2399
 20
245.9269
 30
0.0
 10
2.2399
 20
245.9269
 30
0.0
 10
2.2399
 20
245.9269
 30
0.0
 10
0.4859
 20
245.9269
 30
0.0
 10
-0.9351
 20
244.5056
 30
0.0
 10
-0.9351
 20
242.7519
 30
0.0
 10
-0.9351
 20
242.7519
 30
0.0
 10
-0.9351
 20
242.7519
 30
0.0
 10
-0.9351
 20
223.7019
 30
0.0
 10
-0.9351
 20
223.7019
 30
0.0
 10
-0.9351
 20
223.7019
 30
0.0
 10
-0.9351
 20
221.9482
 30
0.0
 10
0.4859
 20
220.5269
 30
0.0
 10
2.2399
 20
220.5269
 30
0.0
 10
2.2399
 20
220.5269
 30
0.0
 10
2.2399
 20
220.5269
 30
0.0
 10
45.2862
 20
220.5269
 30
0.0
 10
45.2862
 20
220.5269
 30
0.0
 10
45.2862
 20
220.5269
 30
0.0
 10
45.2862
 20
220.5269
 30
0.0
 10
57.9869
 20
220.5269
 30
0.0
 10
57.9869
 20
220.5269
 30
0.0
 10
57.9869
 20
220.5269
 30
0.0
 10
57.9869
 20
220.5269
 30
0.0
 10
244.9429
 20
220.5269
 30
0.0
 10
244.9429
 20
220.5269
 30
0.0
 10
244.9429
 20
220.5269
 30
0.0
 10
244.9429
 20
220.5269
 30
0.0
 10
253.8911
 20
220.5269
 30
0.0
 10
253.8911
 20
220.5269
 30
0.0
 10
253.8911
 20
220.5269
 30
0.0
 10
253.8911
 20
220.5269
 30
0.0
 10
300.6899
 20
220.5269
 30
0.0
 10
300.6899
 20
220.5269
 30
0.0
 10
300.6899
 20
220.5269
 30
0.0
 10
302.4435
 20
220.5269
 30
0.0
 10
303.8649
 20
221.9482
 30
0.0
 10
303.8649
 20
223.7019
 30
0.0
 10
303.8649
 20
223.7019
 30
0.0
 10
303.8649
 20
223.7019
 30
0.0
 10
303.8649
 20
242.7519
 30
0.0
 10
303.8649
 20
242.7519
 30
0.0
 10
303.8649
 20
242.7519
 30
0.0
 10
303.8649
 20
244.5056
 30
0.0
 10
302.4435
 20
245.9269
 30
0.0
 10
300.6899
 20
245.9269
 30
0.0
  0
SPLINE
  5
53
330
1F
100
AcDbEntity
  8
Layer 1
 62
     1
370
     9
100
AcDbSpline
210
0.0
220
0.0
230
1.0
 70
    11
 71
     3
 72
    20
 73
    16
 74
     0
 42
0.0000000001
 43
0.0000000001
 40
0.0
 40
0.0
 40
0.0
 40
0.0
 40
0.2
 40
0.2
 40
0.2
 40
0.2
 40
0.4
 40
0.4
 40
0.4
 40
0.4
 40
0.6
 40
0.6
 40
0.6
 40
0.6
 40
1.0
 40
1.0
 40
1.0
 40
1.0
 10
7.0022
 20
225.2894
 30
0.0
 10
7.0022
 20
225.2894
 30
0.0
 10
5.4147
 20
225.2894
 30
0.0
 10
5.4147
 20
225.2894
 30
0.0
 10
5.4147
 20
225.2894
 30
0.0
 10
5.4147
 20
225.2894
 30
0.0
 10
5.4147
 20
241.1644
 30
0.0
 10
5.4147
 20
241.1644
 30
0.0
 10
5.4147
 20
241.1644
 30
0.0
 10
5.4147
 20
241.1644
 30
0.0
 10
7.0022
 20
241.1644
 30
0.0
 10
7.0022
 20
241.1644
 30
0.0
 10
7.0022
 20
241.1644
 30
0.0
 10
7.0022
 20
241.1644
 30
0.0
 10
7.0022
 20
225.2894
 30
0.0
 10
7.0022
 20
225.2894
 30
0.0
  0
SPLINE
  5
54
330
1F
100
AcDbEntity
  8
Layer 1
 62
     1
370
     9
100
AcDbSpline
210
0.0
220
0.0
230
1.0
 70
    11
 71
     3
 72
    20
 73
    16
 74
     0
 42
0.0000000001
 43
0.0000000001
 40
0.0
 40
0.0
 40
0.0
 40
0.0
 40
0.2
 40
0.2
 40
0.2
 40
0.2
 40
0.4
 40
0.4
 40
0.4
 40
0.4
 40
0.6
 40
0.6
 40
0.6
 40
0.6
 40
1.0
 40
1.0
 40
1.0
 40
1.0
 10
37.1647
 20
225.2894
 30
0.0
 10
37.1647
 20
225.2894
 30
0.0
 10
35.5772
 20
225.2894
 30
0.0
 10
35.5772
 20
225.2894
 30
0.0
 10
35.5772
 20
225.2894
 30
0.0
 10
35.5772
 20
225.2894
 30
0.0
 10
35.5772
 20
241.1644
 30
0.0
 10
35.5772
 20
241.1644
 30
0.0
 10
35.5772
 20
241.1644
 30
0.0
 10
35.5772
 20
241.1644
 30
0.0
 10
37.1647
 20
241.1644
 30
0.0
 10
37.1647
 20
241.1644
 30
0.0
 10
37.1647
 20
241.1644
 30
0.0
 10
37.1647
 20
241.1644
 30
0.0
 10
37.1647
 20
225.2894
 30
0.0
 10
37.1647
 20
225.2894
 30
0.0
  0
SPLINE
  5
55
330
1F
100
AcDbEntity
  8
Layer 1
 62
     1
370
     9
100
AcDbSpline
210
0.0
220
0.0
230
1.0
 70
    11
 71
     3
 72
    20
 73
    16
 74
     0
 42
0.0000000001
 43
0.0000000001
 40
0.0
 40
0.0
 40
0.0
 40
0.0
 40
0.2
 40
0.2
 40
0.2
 40
0.2
 40
0.4
 40
0.4
 40
0.4
 40
0.4
 40
0.6
 40
0.6
 40
0.6
 40
0.6
 40
1.0
 40
1.0
 40
1.0
 40
1.0
 10
45.1022
 20
225.2894
 30
0.0
 10
45.1022
 20
225.2894
 30
0.0
 10
43.5147
 20
225.2894
 30
0.0
 10
43.5147
 20
225.2894
 30
0.0
 10
43.5147
 20
225.2894
 30
0.0
 10
43.5147
 20
225.2894
 30
0.0
 10
43.5147
 20
241.1644
 30
0.0
 10
43.5147
 20
241.1644
 30
0.0
 10
43.5147
 20
241.1644
 30
0.0
 10
43.5147
 20
241.1644
 30
0.0
 10
45.1022
 20
241.1644
 30
0.0
 10
45.1022
 20
241.1644
 30
0.0
 10
45.1022
 20
241.1644
 30
0.0
 10
45.1022
 20
241.1644
 30
0.0
 10
45.1022
 20
225.2894
 30
0.0
 10
45.1022
 20
225.2894
 30
0.0
  0
SPLINE
  5
56
330
1F
100
AcDbEntity
  8
Layer 1
 62
     1
370
     9
100
AcDbSpline
210
0.0
220
0.0
230
1.0
 70
    11
 71
     3
 72
    20
 73
    16
 74
     0
 42
0.0000000001
 43
0.0000000001
 40
0.0
 40
0.0
 40
0.0
 40
0.0
 40
0.2
 40
0.2
 40
0.2
 40
0.2
 40
0.4
 40
0.4
 40
0.4
 40
0.4
 40
0.6
 40
0.6
 40
0.6
 40
0.6
 40
1.0
 40
1.0
 40
1.0
 40
1.0
 10
259.4157
 20
225.2894
 30
0.0
 10
259.4157
 20
225.2894
 30
0.0
 10
257.8282
 20
225.2894
 30
0.0
 10
257.8282
 20
225.2894
 30
0.0
 10
257.8282
 20
225.2894
 30
0.0
 10
257.8282
 20
225.2894
 30
0.0
 10
257.8282
 20
241.1644
 30
0.0
 10
257.8282
 20
241.1644
 30
0.0
 10
257.8282
 20
241.1644
 30
0.0
 10
257.8282
 20
241.1644
 30
0.0
 10
259.4157
 20
241.1644
 30
0.0
 10
259.4157
 20
241.1644
 30
0.0
 10
259.4157
 20
241.1644
 30
0.0
 10
259.4157
 20
241.1644
 30
0.0
 10
259.4157
 20
225.2894
 30
0.0
 10
259.4157
 20
225.2894
 30
0.0
  0
SPLINE
  5
57
330
1F
100
AcDbEntity
  8
Layer 1
 62
     1
370
     9
100
AcDbSpline
210
0.0
220
0.0
230
1.0
 70
    11
 71
     3
 72
    20
 73
    16
 74
     0
 42
0.0000000001
 43
0.0000000001
 40
0.0
 40
0.0
 40
0.0
 40
0.0
 40
0.2
 40
0.2
 40
0.2
 40
0.2
 40
0.4
 40
0.4
 40
0.4
 40
0.4
 40
0.6
 40
0.6
 40
0.6
 40
0.6
 40
1.0
 40
1.0
 40
1.0
 40
1.0
 10
267.3532
 20
225.2894
 30
0.0
 10
267.3532
 20
225.2894
 30
0.0
 10
265.7657
 20
225.2894
 30
0.0
 10
265.7657
 20
225.2894
 30
0.0
 10
265.7657
 20
225.2894
 30
0.0
 10
265.7657
 20
225.2894
 30
0.0
 10
265.7657
 20
241.1644
 30
0.0
 10
265.7657
 20
241.1644
 30
0.0
 10
265.7657
 20
241.1644
 30
0.0
 10
265.7657
 20
241.1644
 30
0.0
 10
267.3532
 20
241.1644
 30
0.0
 10
267.3532
 20
241.1644
 30
0.0
 10
267.3532
 20
241.1644
 30
0.0
 10
267.3532
 20
241.1644
 30
0.0
 10
267.3532
 20
225.2894
 30
0.0
 10
267.3532
 20
225.2894
 30
0.0
  0
SPLINE
  5
58
330
1F
100
AcDbEntity
  8
Layer 1
 62
     1
370
     9
100
AcDbSpline
210
0.0
220
0.0
230
1.0
 70
    11
 71
     3
 72
    20
 73
    16
 74
     0
 42
0.0000000001
 43
0.0000000001
 40
0.0
 40
0.0
 40
0.0
 40
0.0
 40
0.2
 40
0.2
 40
0.2
 40
0.2
 40
0.4
 40
0.4
 40
0.4
 40
0.4
 40
0.6
 40
0.6
 40
0.6
 40
0.6
 40
1.0
 40
1.0
 40
1.0
 40
1.0
 10
297.515
 20
225.2894
 30
0.0
 10
297.515
 20
225.2894
 30
0.0
 10
295.9275
 20
225.2894
 30
0.0
 10
295.9275
 20
225.2894
 30
0.0
 10
295.9275
 20
225.2894
 30
0.0
 10
295.9275
 20
225.2894
 30
0.0
 10
295.9275
 20
241.1644
 30
0.0
 10
295.9275
 20
241.1644
 30
0.0
 10
295.9275
 20
241.1644
 30
0.0
 10
295.9275
 20
241.1644
 30
0.0
 10
297.515
 20
241.1644
 30
0.0
 10
297.515
 20
241.1644
 30
0.0
 10
297.515
 20
241.1644
 30
0.0
 10
297.515
 20
241.1644
 30
0.0
 10
297.515
 20
225.2894
 30
0.0
 10
297.515
 20
225.2894
 30
0.0
  0
SPLINE
  5
59
330
1F
100
AcDbEntity
  8
Layer 1
 62
     1
370
     9
100
AcDbSpline
210
0.0
220
0.0
230
1.0
 70
    11
 71
     3
 72
    20
 73
    16
 74
     0
 42
0.0000000001
 43
0.0000000001
 40
0.0
 40
0.0
 40
0.0
 40
0.0
 40
0.2
 40
0.2
 40
0.2
 40
0.2
 40
0.4
 40
0.4
 40
0.4
 40
0.4
 40
0.6
 40
0.6
 40
0.6
 40
0.6
 40
1.0
 40
1.0
 40
1.0
 40
1.0
 10
61.9239
 20
233.2269
 30
0.0
 10
61.9239
 20
229.7203
 30
0.0
 10
64.7669
 20
226.8769
 30
0.0
 10
68.2739
 20
226.8769
 30
0.0
 10
68.2739
 20
226.8769
 30
0.0
 10
71.7809
 20
226.8769
 30
0.0
 10
74.6239
 20
229.7203
 30
0.0
 10
74.6239
 20
233.2269
 30
0.0
 10
74.6239
 20
233.2269
 30
0.0
 10
74.6239
 20
236.7335
 30
0.0
 10
71.7809
 20
239.5769
 30
0.0
 10
68.2739
 20
239.5769
 30
0.0
 10
68.2739
 20
239.5769
 30
0.0
 10
64.7669
 20
239.5769
 30
0.0
 10
61.9239
 20
236.7335
 30
0.0
 10
61.9239
 20
233.2269
 30
0.0
  0
SPLINE
  5
5A
330
1F
100
AcDbEntity
  8
Layer 1
 62
     1
370
     9
100
AcDbSpline
210
0.0
220
0.0
230
1.0
 70
    11
 71
     3
 72
    20
 73
    16
 74
     0
 42
0.0000000001
 43
0.0000000001
 40
0.0
 40
0.0
 40
0.0
 40
0.0
 40
0.2
 40
0.2
 40
0.2
 40
0.2
 40
0.4
 40
0.4
 40
0.4
 40
0.4
 40
0.6
 40
0.6
 40
0.6
 40
0.6
 40
1.0
 40
1.0
 40
1.0
 40
1.0
 10
78.562
 20
233.2269
 30
0.0
 10
78.562
 20
229.7203
 30
0.0
 10
81.405
 20
226.8769
 30
0.0
 10
84.912
 20
226.8769
 30
0.0
 10
84.912
 20
226.8769
 30
0.0
 10
88.4186
 20
226.8769
 30
0.0
 10
91.262
 20
229.7203
 30
0.0
 10
91.262
 20
233.2269
 30
0.0
 10
91.262
 20
233.2269
 30
0.0
 10
91.262
 20
236.7335
 30
0.0
 10
88.4186
 20
239.5769
 30
0.0
 10
84.912
 20
239.5769
 30
0.0
 10
84.912
 20
239.5769
 30
0.0
 10
81.405
 20
239.5769
 30
0.0
 10
78.562
 20
236.7335
 30
0.0
 10
78.562
 20
233.2269
 30
0.0
  0
SPLINE
  5
5B
330
1F
100
AcDbEntity
  8
Layer 1
 62
     1
370
     9
100
AcDbSpline
210
0.0
220
0.0
230
1.0
 70
    11
 71
     3
 72
    20
 73
    16
 74
     0
 42
0.0000000001
 43
0.0000000001
 40
0.0
 40
0.0
 40
0.0
 40
0.0
 40
0.2
 40
0.2
 40
0.2
 40
0.2
 40
0.4
 40
0.4
 40
0.4
 40
0.4
 40
0.6
 40
0.6
 40
0.6
 40
0.6
 40
1.0
 40
1.0
 40
1.0
 40
1.0
 10
95.1997
 20
233.2269
 30
0.0
 10
95.1997
 20
229.7203
 30
0.0
 10
98.0428
 20
226.8769
 30
0.0
 10
101.5497
 20
226.8769
 30
0.0
 10
101.5497
 20
226.8769
 30
0.0
 10
105.0564
 20
226.8769
 30
0.0
 10
107.8997
 20
229.7203
 30
0.0
 10
107.8997
 20
233.2269
 30
0.0
 10
107.8997
 20
233.2269
 30
0.0
 10
107.8997
 20
236.7335
 30
0.0
 10
105.0564
 20
239.5769
 30
0.0
 10
101.5497
 20
239.5769
 30
0.0
 10
101.5497
 20
239.5769
 30
0.0
 10
98.0428
 20
239.5769
 30
0.0
 10
95.1997
 20
236.7335
 30
0.0
 10
95.1997
 20
233.2269
 30
0.0
  0
SPLINE
  5
5C
330
1F
100
AcDbEntity
  8
Layer 1
 62
     1
370
     9
100
AcDbSpline
210
0.0
220
0.0
230
1.0
 70
    11
 71
     3
 72
    20
 73
    16
 74
     0
 42
0.0000000001
 43
0.0000000001
 40
0.0
 40
0.0
 40
0.0
 40
0.0
 40
0.2
 40
0.2
 40
0.2
 40
0.2
 40
0.4
 40
0.4
 40
0.4
 40
0.4
 40
0.6
 40
0.6
 40
0.6
 40
0.6
 40
1.0
 40
1.0
 40
1.0
 40
1.0
 10
111.8382
 20
233.2269
 30
0.0
 10
111.8382
 20
229.7203
 30
0.0
 10
114.6809
 20
226.8769
 30
0.0
 10
118.1878
 20
226.8769
 30
0.0
 10
118.1878
 20
226.8769
 30
0.0
 10
121.6948
 20
226.8769
 30
0.0
 10
124.5378
 20
229.7203
 30
0.0
 10
124.5378
 20
233.2269
 30
0.0
 10
124.5378
 20
233.2269
 30
0.0
 10
124.5378
 20
236.7335
 30
0.0
 10
121.6948
 20
239.5769
 30
0.0
 10
118.1878
 20
239.5769
 30
0.0
 10
118.1878
 20
239.5769
 30
0.0
 10
114.6809
 20
239.5769
 30
0.0
 10
111.8382
 20
236.7335
 30
0.0
 10
111.8382
 20
233.2269
 30
0.0
  0
SPLINE
  5
5D
330
1F
100
AcDbEntity
  8
Layer 1
 62
     1
370
     9
100
AcDbSpline
210
0.0
220
0.0
230
1.0
 70
    11
 71
     3
 72
    20
 73
    16
 74
     0
 42
0.0000000001
 43
0.0000000001
 40
0.0
 40
0.0
 40
0.0
 40
0.0
 40
0.2
 40
0.2
 40
0.2
 40
0.2
 40
0.4
 40
0.4
 40
0.4
 40
0.4
 40
0.6
 40
0.6
 40
0.6
 40
0.6
 40
1.0
 40
1.0
 40
1.0
 40
1.0
 10
128.4756
 20
233.2269
 30
0.0
 10
128.4756
 20
229.7203
 30
0.0
 10
131.3186
 20
226.8769
 30
0.0
 10
134.8256
 20
226.8769
 30
0.0
 10
134.8256
 20
226.8769
 30
0.0
 10
138.3325
 20
226.8769
 30
0.0
 10
141.1756
 20
229.7203
 30
0.0
 10
141.1756
 20
233.2269
 30
0.0
 10
141.1756
 20
233.2269
 30
0.0
 10
141.1756
 20
236.7335
 30
0.0
 10
138.3325
 20
239.5769
 30
0.0
 10
134.8256
 20
239.5769
 30
0.0
 10
134.8256
 20
239.5769
 30
0.0
 10
131.3186
 20
239.5769
 30
0.0
 10
128.4756
 20
236.7335
 30
0.0
 10
128.4756
 20
233.2269
 30
0.0
  0
SPLINE
  5
5E
330
1F
100
AcDbEntity
  8
Layer 1
 62
     1
370
     9
100
AcDbSpline
210
0.0
220
0.0
230
1.0
 70
    11
 71
     3
 72
    20
 73
    16
 74
     0
 42
0.0000000001
 43
0.0000000001
 40
0.0
 40
0.0
 40
0.0
 40
0.0
 40
0.2
 40
0.2
 40
0.2
 40
0.2
 40
0.4
 40
0.4
 40
0.4
 40
0.4
 40
0.6
 40
0.6
 40
0.6
 40
0.6
 40
1.0
 40
1.0
 40
1.0
 40
1.0
 10
145.1133
 20
233.2269
 30
0.0
 10
145.1133
 20
229.7203
 30
0.0
 10
147.9564
 20
226.8769
 30
0.0
 10
151.4633
 20
226.8769
 30
0.0
 10
151.4633
 20
226.8769
 30
0.0
 10
154.9703
 20
226.8769
 30
0.0
 10
157.8133
 20
229.7203
 30
0.0
 10
157.8133
 20
233.2269
 30
0.0
 10
157.8133
 20
233.2269
 30
0.0
 10
157.8133
 20
236.7335
 30
0.0
 10
154.9703
 20
239.5769
 30
0.0
 10
151.4633
 20
239.5769
 30
0.0
 10
151.4633
 20
239.5769
 30
0.0
 10
147.9564
 20
239.5769
 30
0.0
 10
145.1133
 20
236.7335
 30
0.0
 10
145.1133
 20
233.2269
 30
0.0
  0
SPLINE
  5
5F
330
1F
100
AcDbEntity
  8
Layer 1
 62
     1
370
     9
100
AcDbSpline
210
0.0
220
0.0
230
1.0
 70
    11
 71
     3
 72
    20
 73
    16
 74
     0
 42
0.0000000001
 43
0.0000000001
 40
0.0
 40
0.0
 40
0.0
 40
0.0
 40
0.2
 40
0.2
 40
0.2
 40
0.2
 40
0.4
 40
0.4
 40
0.4
 40
0.4
 40
0.6
 40
0.6
 40
0.6
 40
0.6
 40
1.0
 40
1.0
 40
1.0
 40
1.0
 10
161.7518
 20
233.2269
 30
0.0
 10
161.7518
 20
229.7203
 30
0.0
 10
164.5948
 20
226.8769
 30
0.0
 10
168.1018
 20
226.8769
 30
0.0
 10
168.1018
 20
226.8769
 30
0.0
 10
171.6087
 20
226.8769
 30
0.0
 10
174.4518
 20
229.7203
 30
0.0
 10
174.4518
 20
233.2269
 30
0.0
 10
174.4518
 20
233.2269
 30
0.0
 10
174.4518
 20
236.7335
 30
0.0
 10
171.6087
 20
239.5769
 30
0.0
 10
168.1018
 20
239.5769
 30
0.0
 10
168.1018
 20
239.5769
 30
0.0
 10
164.5948
 20
239.5769
 30
0.0
 10
161.7518
 20
236.7335
 30
0.0
 10
161.7518
 20
233.2269
 30
0.0
  0
SPLINE
  5
60
330
1F
100
AcDbEntity
  8
Layer 1
 62
     1
370
     9
100
AcDbSpline
210
0.0
220
0.0
230
1.0
 70
    11
 71
     3
 72
    20
 73
    16
 74
     0
 42
0.0000000001
 43
0.0000000001
 40
0.0
 40
0.0
 40
0.0
 40
0.0
 40
0.2
 40
0.2
 40
0.2
 40
0.2
 40
0.4
 40
0.4
 40
0.4
 40
0.4
 40
0.6
 40
0.6
 40
0.6
 40
0.6
 40
1.0
 40
1.0
 40
1.0
 40
1.0
 10
178.3895
 20
233.2269
 30
0.0
 10
178.3895
 20
229.7203
 30
0.0
 10
181.2325
 20
226.8769
 30
0.0
 10
184.7395
 20
226.8769
 30
0.0
 10
184.7395
 20
226.8769
 30
0.0
 10
188.2479
 20
226.8769
 30
0.0
 10
191.092
 20
229.7203
 30
0.0
 10
191.092
 20
233.2269
 30
0.0
 10
191.092
 20
233.2269
 30
0.0
 10
191.092
 20
236.7335
 30
0.0
 10
188.2479
 20
239.5769
 30
0.0
 10
184.7395
 20
239.5769
 30
0.0
 10
184.7395
 20
239.5769
 30
0.0
 10
181.2325
 20
239.5769
 30
0.0
 10
178.3895
 20
236.7335
 30
0.0
 10
178.3895
 20
233.2269
 30
0.0
  0
SPLINE
  5
61
330
1F
100
AcDbEntity
  8
Layer 1
 62
     1
370
     9
100
AcDbSpline
210
0.0
220
0.0
230
1.0
 70
    11
 71
     3
 72
    20
 73
    16
 74
     0
 42
0.0000000001
 43
0.0000000001
 40
0.0
 40
0.0
 40
0.0
 40
0.0
 40
0.2
 40
0.2
 40
0.2
 40
0.2
 40
0.4
 40
0.4
 40
0.4
 40
0.4
 40
0.6
 40
0.6
 40
0.6
 40
0.6
 40
1.0
 40
1.0
 40
1.0
 40
1.0
 10
195.0297
 20
233.2269
 30
0.0
 10
195.0297
 20
229.7203
 30
0.0
 10
197.8727
 20
226.8769
 30
0.0
 10
201.3797
 20
226.8769
 30
0.0
 10
201.3797
 20
226.8769
 30
0.0
 10
204.8866
 20
226.8769
 30
0.0
 10
207.7297
 20
229.7203
 30
0.0
 10
207.7297
 20
233.2269
 30
0.0
 10
207.7297
 20
233.2269
 30
0.0
 10
207.7297
 20
236.7335
 30
0.0
 10
204.8866
 20
239.5769
 30
0.0
 10
201.3797
 20
239.5769
 30
0.0
 10
201.3797
 20
239.5769
 30
0.0
 10
197.8727
 20
239.5769
 30
0.0
 10
195.0297
 20
236.7335
 30
0.0
 10
195.0297
 20
233.2269
 30
0.0
  0
SPLINE
  5
62
330
1F
100
AcDbEntity
  8
Layer 1
 62
     1
370
     9
100
AcDbSpline
210
0.0
220
0.0
230
1.0
 70
    11
 71
     3
 72
    20
 73
    16
 74
     0
 42
0.0000000001
 43
0.0000000001
 40
0.0
 40
0.0
 40
0.0
 40
0.0
 40
0.2
 40
0.2
 40
0.2
 40
0.2
 40
0.4
 40
0.4
 40
0.4
 40
0.4
 40
0.6
 40
0.6
 40
0.6
 40
0.6
 40
1.0
 40
1.0
 40
1.0
 40
1.0
 10
211.6679
 20
233.2269
 30
0.0
 10
211.6679
 20
229.7203
 30
0.0
 10
214.511
 20
226.8769
 30
0.0
 10
218.0179
 20
226.8769
 30
0.0
 10
218.0179
 20
226.8769
 30
0.0
 10
221.5249
 20
226.8769
 30
0.0
 10
224.3679
 20
229.7203
 30
0.0
 10
224.3679
 20
233.2269
 30
0.0
 10
224.3679
 20
233.2269
 30
0.0
 10
224.3679
 20
236.7335
 30
0.0
 10
221.5249
 20
239.5769
 30
0.0
 10
218.0179
 20
239.5769
 30
0.0
 10
218.0179
 20
239.5769
 30
0.0
 10
214.511
 20
239.5769
 30
0.0
 10
211.6679
 20
236.7335
 30
0.0
 10
211.6679
 20
233.2269
 30
0.0
  0
SPLINE
  5
63
330
1F
100
AcDbEntity
  8
Layer 1
 62
     1
370
     9
100
AcDbSpline
210
0.0
220
0.0
230
1.0
 70
    11
 71
     3
 72
    20
 73
    16
 74
     0
 42
0.0000000001
 43
0.0000000001
 40
0.0
 40
0.0
 40
0.0
 40
0.0
 40
0.2
 40
0.2
 40
0.2
 40
0.2
 40
0.4
 40
0.4
 40
0.4
 40
0.4
 40
0.6
 40
0.6
 40
0.6
 40
0.6
 40
1.0
 40
1.0
 40
1.0
 40
1.0
 10
228.3057
 20
233.2269
 30
0.0
 10
228.3057
 20
229.7203
 30
0.0
 10
231.1487
 20
226.8769
 30
0.0
 10
234.6557
 20
226.8769
 30
0.0
 10
234.6557
 20
226.8769
 30
0.0
 10
238.1626
 20
226.8769
 30
0.0
 10
241.0057
 20
229.7203
 30
0.0
 10
241.0057
 20
233.2269
 30
0.0
 10
241.0057
 20
233.2269
 30
0.0
 10
241.0057
 20
236.7335
 30
0.0
 10
238.1626
 20
239.5769
 30
0.0
 10
234.6557
 20
239.5769
 30
0.0
 10
234.6557
 20
239.5769
 30
0.0
 10
231.1487
 20
239.5769
 30
0.0
 10
228.3057
 20
236.7335
 30
0.0
 10
228.3057
 20
233.2269
 30
0.0
  0
SPLINE
  5
64
330
1F
100
AcDbEntity
  8
Layer 1
 62
     1
370
     9
100
AcDbSpline
210
0.0
220
0.0
230
1.0
 70
    11
 71
     3
 72
   100
 73
    96
 74
     0
 42
0.0000000001
 43
0.0000000001
 40
0.0
 40
0.0
 40
0.0
 40
0.0
 40
0.04
 40
0.04
 40
0.04
 40
0.04
 40
0.08
 40
0.08
 40
0.08
 40
0.08
 40
0.12
 40
0.12
 40
0.12
 40
0.12
 40
0.16
 40
0.16
 40
0.16
 40
0.16
 40
0.2
 40
0.2
 40
0.2
 40
0.2
 40
0.24
 40
0.24
 40
0.24
 40
0.24
 40
0.28
 40
0.28
 40
0.28
 40
0.28
 40
0.32
 40
0.32
 40
0.32
 40
0.32
 40
0.36
 40
0.36
 40
0.36
 40
0.36
 40
0.4
 40
0.4
 40
0.4
 40
0.4
 40
0.44
 40
0.44
 40
0.44
 40
0.44
 40
0.48
 40
0.48
 40
0.48
 40
0.48
 40
0.52
 40
0.52
 40
0.52
 40
0.52
 40
0.56
 40
0.56
 40
0.56
 40
0.56
 40
0.6
 40
0.6
 40
0.6
 40
0.6
 40
0.64
 40
0.64
 40
0.64
 40
0.64
 40
0.68
 40
0.68
 40
0.68
 40
0.68
 40
0.72
 40
0.72
 40
0.72
 40
0.72
 40
0.76
 40
0.76
 40
0.76
 40
0.76
 40
0.8
 40
0.8
 40
0.8
 40
0.8
 40
0.84
 40
0.84
 40
0.84
 40
0.84
 40
0.88
 40
0.88
 40
0.88
 40
0.88
 40
0.92
 40
0.92
 40
0.92
 40
0.92
 40
1.0
 40
1.0
 40
1.0
 40
1.0
 10
376.8899
 20
217.3519
 30
0.0
 10
376.8899
 20
217.3519
 30
0.0
 10
375.126
 20
217.3519
 30
0.0
 10
375.126
 20
217.3519
 30
0.0
 10
375.126
 20
217.3519
 30
0.0
 10
375.126
 20
217.3519
 30
0.0
 10
369.2459
 20
217.3519
 30
0.0
 10
369.2459
 20
217.3519
 30
0.0
 10
369.2459
 20
217.3519
 30
0.0
 10
369.2459
 20
217.3519
 30
0.0
 10
329.0292
 20
217.3519
 30
0.0
 10
329.0292
 20
217.3519
 30
0.0
 10
329.0292
 20
217.3519
 30
0.0
 10
329.0292
 20
217.3519
 30
0.0
 10
320.5611
 20
217.3519
 30
0.0
 10
320.5611
 20
217.3519
 30
0.0
 10
320.5611
 20
217.3519
 30
0.0
 10
320.5611
 20
217.3519
 30
0.0
 10
54.4069
 20
217.3519
 30
0.0
 10
54.4069
 20
217.3519
 30
0.0
 10
54.4069
 20
217.3519
 30
0.0
 10
54.4069
 20
217.3519
 30
0.0
 10
45.2862
 20
217.3519
 30
0.0
 10
45.2862
 20
217.3519
 30
0.0
 10
45.2862
 20
217.3519
 30
0.0
 10
45.2862
 20
217.3519
 30
0.0
 10
8.0018
 20
217.3519
 30
0.0
 10
8.0018
 20
217.3519
 30
0.0
 10
8.0018
 20
217.3519
 30
0.0
 10
8.0018
 20
217.3519
 30
0.0
 10
3.5335
 20
217.3519
 30
0.0
 10
3.5335
 20
217.3519
 30
0.0
 10
3.5335
 20
217.3519
 30
0.0
 10
3.5335
 20
217.3519
 30
0.0
 10
2.2399
 20
217.3519
 30
0.0
 10
2.2399
 20
217.3519
 30
0.0
 10
2.2399
 20
217.3519
 30
0.0
 10
0.4862
 20
217.3519
 30
0.0
 10
-0.9351
 20
215.9306
 30
0.0
 10
-0.9351
 20
214.1769
 30
0.0
 10
-0.9351
 20
214.1769
 30
0.0
 10
-0.9351
 20
214.1769
 30
0.0
 10
-0.9351
 20
195.1269
 30
0.0
 10
-0.9351
 20
195.1269
 30
0.0
 10
-0.9351
 20
195.1269
 30
0.0
 10
-0.9351
 20
193.3732
 30
0.0
 10
0.4862
 20
191.9519
 30
0.0
 10
2.2399
 20
191.9519
 30
0.0
 10
2.2399
 20
191.9519
 30
0.0
 10
2.2399
 20
191.9519
 30
0.0
 10
3.5335
 20
191.9519
 30
0.0
 10
3.5335
 20
191.9519
 30
0.0
 10
3.5335
 20
191.9519
 30
0.0
 10
3.5335
 20
191.9519
 30
0.0
 10
8.0018
 20
191.9519
 30
0.0
 10
8.0018
 20
191.9519
 30
0.0
 10
8.0018
 20
191.9519
 30
0.0
 10
8.0018
 20
191.9519
 30
0.0
 10
45.2862
 20
191.9519
 30
0.0
 10
45.2862
 20
191.9519
 30
0.0
 10
45.2862
 20
191.9519
 30
0.0
 10
45.2862
 20
191.9519
 30
0.0
 10
54.4069
 20
191.9519
 30
0.0
 10
54.4069
 20
191.9519
 30
0.0
 10
54.4069
 20
191.9519
 30
0.0
 10
54.4069
 20
191.9519
 30
0.0
 10
320.5611
 20
191.9519
 30
0.0
 10
320.5611
 20
191.9519
 30
0.0
 10
320.5611
 20
191.9519
 30
0.0
 10
320.5611
 20
191.9519
 30
0.0
 10
329.0292
 20
191.9519
 30
0.0
 10
329.0292
 20
191.9519
 30
0.0
 10
329.0292
 20
191.9519
 30
0.0
 10
329.0292
 20
191.9519
 30
0.0
 10
369.2459
 20
191.9519
 30
0.0
 10
369.2459
 20
191.9519
 30
0.0
 10
369.2459
 20
191.9519
 30
0.0
 10
369.2459
 20
191.9519
 30
0.0
 10
375.126
 20
191.9519
 30
0.0
 10
375.126
 20
191.9519
 30
0.0
 10
375.126
 20
191.9519
 30
0.0
 10
375.126
 20
191.9519
 30
0.0
 10
376.8899
 20
191.9519
 30
0.0
 10
376.8899
 20
191.9519
 30
0.0
 10
376.8899
 20
191.9519
 30
0.0
 10
378.6435
 20
191.9519
 30
0.0
 10
380.0649
 20
193.3732
 30
0.0
 10
380.0649
 20
195.1269
 30
0.0
 10
380.0649
 20
195.1269
 30
0.0
 10
380.0649
 20
195.1269
 30
0.0
 10
380.0649
 20
214.1769
 30
0.0
 10
380.0649
 20
214.1769
 30
0.0
 10
380.0649
 20
214.1769
 30
0.0
 10
380.0649
 20
215.9306
 30
0.0
 10
378.6435
 20
217.3519
 30
0.0
 10
376.8899
 20
217.3519
 30
0.0
  0
SPLINE
  5
65
330
1F
100
AcDbEntity
  8
Layer 1
 62
     1
370
     9
100
AcDbSpline
210
0.0
220
0.0
230
1.0
 70
    11
 71
     3
 72
    20
 73
    16
 74
     0
 42
0.0000000001
 43
0.0000000001
 40
0.0
 40
0.0
 40
0.0
 40
0.0
 40
0.2
 40
0.2
 40
0.2
 40
0.2
 40
0.4
 40
0.4
 40
0.4
 40
0.4
 40
0.6
 40
0.6
 40
0.6
 40
0.6
 40
1.0
 40
1.0
 40
1.0
 40
1.0
 10
7.0022
 20
196.7148
 30
0.0
 10
7.0022
 20
196.7148
 30
0.0
 10
5.4147
 20
196.7148
 30
0.0
 10
5.4147
 20
196.7148
 30
0.0
 10
5.4147
 20
196.7148
 30
0.0
 10
5.4147
 20
196.7148
 30
0.0
 10
5.4147
 20
212.5898
 30
0.0
 10
5.4147
 20
212.5898
 30
0.0
 10
5.4147
 20
212.5898
 30
0.0
 10
5.4147
 20
212.5898
 30
0.0
 10
7.0022
 20
212.5898
 30
0.0
 10
7.0022
 20
212.5898
 30
0.0
 10
7.0022
 20
212.5898
 30
0.0
 10
7.0022
 20
212.5898
 30
0.0
 10
7.0022
 20
196.7148
 30
0.0
 10
7.0022
 20
196.7148
 30
0.0
  0
SPLINE
  5
66
330
1F
100
AcDbEntity
  8
Layer 1
 62
     1
370
     9
100
AcDbSpline
210
0.0
220
0.0
230
1.0
 70
    11
 71
     3
 72
    20
 73
    16
 74
     0
 42
0.0000000001
 43
0.0000000001
 40
0.0
 40
0.0
 40
0.0
 40
0.0
 40
0.2
 40
0.2
 40
0.2
 40
0.2
 40
0.4
 40
0.4
 40
0.4
 40
0.4
 40
0.6
 40
0.6
 40
0.6
 40
0.6
 40
1.0
 40
1.0
 40
1.0
 40
1.0
 10
37.1647
 20
196.7148
 30
0.0
 10
37.1647
 20
196.7148
 30
0.0
 10
35.5772
 20
196.7148
 30
0.0
 10
35.5772
 20
196.7148
 30
0.0
 10
35.5772
 20
196.7148
 30
0.0
 10
35.5772
 20
196.7148
 30
0.0
 10
35.5772
 20
212.5898
 30
0.0
 10
35.5772
 20
212.5898
 30
0.0
 10
35.5772
 20
212.5898
 30
0.0
 10
35.5772
 20
212.5898
 30
0.0
 10
37.1647
 20
212.5898
 30
0.0
 10
37.1647
 20
212.5898
 30
0.0
 10
37.1647
 20
212.5898
 30
0.0
 10
37.1647
 20
212.5898
 30
0.0
 10
37.1647
 20
196.7148
 30
0.0
 10
37.1647
 20
196.7148
 30
0.0
  0
SPLINE
  5
67
330
1F
100
AcDbEntity
  8
Layer 1
 62
     1
370
     9
100
AcDbSpline
210
0.0
220
0.0
230
1.0
 70
    11
 71
     3
 72
    20
 73
    16
 74
     0
 42
0.0000000001
 43
0.0000000001
 40
0.0
 40
0.0
 40
0.0
 40
0.0
 40
0.2
 40
0.2
 40
0.2
 40
0.2
 40
0.4
 40
0.4
 40
0.4
 40
0.4
 40
0.6
 40
0.6
 40
0.6
 40
0.6
 40
1.0
 40
1.0
 40
1.0
 40
1.0
 10
45.1022
 20
196.7148
 30
0.0
 10
45.1022
 20
196.7148
 30
0.0
 10
43.5147
 20
196.7148
 30
0.0
 10
43.5147
 20
196.7148
 30
0.0
 10
43.5147
 20
196.7148
 30
0.0
 10
43.5147
 20
196.7148
 30
0.0
 10
43.5147
 20
212.5898
 30
0.0
 10
43.5147
 20
212.5898
 30
0.0
 10
43.5147
 20
212.5898
 30
0.0
 10
43.5147
 20
212.5898
 30
0.0
 10
45.1022
 20
212.5898
 30
0.0
 10
45.1022
 20
212.5898
 30
0.0
 10
45.1022
 20
212.5898
 30
0.0
 10
45.1022
 20
212.5898
 30
0.0
 10
45.1022
 20
196.7148
 30
0.0
 10
45.1022
 20
196.7148
 30
0.0
  0
SPLINE
  5
68
330
1F
100
AcDbEntity
  8
Layer 1
 62
     1
370
     9
100
AcDbSpline
210
0.0
220
0.0
230
1.0
 70
    11
 71
     3
 72
    20
 73
    16
 74
     0
 42
0.0000000001
 43
0.0000000001
 40
0.0
 40
0.0
 40
0.0
 40
0.0
 40
0.2
 40
0.2
 40
0.2
 40
0.2
 40
0.4
 40
0.4
 40
0.4
 40
0.4
 40
0.6
 40
0.6
 40
0.6
 40
0.6
 40
1.0
 40
1.0
 40
1.0
 40
1.0
 10
335.615
 20
196.7148
 30
0.0
 10
335.615
 20
196.7148
 30
0.0
 10
334.0275
 20
196.7148
 30
0.0
 10
334.0275
 20
196.7148
 30
0.0
 10
334.0275
 20
196.7148
 30
0.0
 10
334.0275
 20
196.7148
 30
0.0
 10
334.0275
 20
212.5898
 30
0.0
 10
334.0275
 20
212.5898
 30
0.0
 10
334.0275
 20
212.5898
 30
0.0
 10
334.0275
 20
212.5898
 30
0.0
 10
335.615
 20
212.5898
 30
0.0
 10
335.615
 20
212.5898
 30
0.0
 10
335.615
 20
212.5898
 30
0.0
 10
335.615
 20
212.5898
 30
0.0
 10
335.615
 20
196.7148
 30
0.0
 10
335.615
 20
196.7148
 30
0.0
  0
SPLINE
  5
69
330
1F
100
AcDbEntity
  8
Layer 1
 62
     1
370
     9
100
AcDbSpline
210
0.0
220
0.0
230
1.0
 70
    11
 71
     3
 72
    20
 73
    16
 74
     0
 42
0.0000000001
 43
0.0000000001
 40
0.0
 40
0.0
 40
0.0
 40
0.0
 40
0.2
 40
0.2
 40
0.2
 40
0.2
 40
0.4
 40
0.4
 40
0.4
 40
0.4
 40
0.6
 40
0.6
 40
0.6
 40
0.6
 40
1.0
 40
1.0
 40
1.0
 40
1.0
 10
343.5525
 20
196.7148
 30
0.0
 10
343.5525
 20
196.7148
 30
0.0
 10
341.965
 20
196.7148
 30
0.0
 10
341.965
 20
196.7148
 30
0.0
 10
341.965
 20
196.7148
 30
0.0
 10
341.965
 20
196.7148
 30
0.0
 10
341.965
 20
212.5898
 30
0.0
 10
341.965
 20
212.5898
 30
0.0
 10
341.965
 20
212.5898
 30
0.0
 10
341.965
 20
212.5898
 30
0.0
 10
343.5525
 20
212.5898
 30
0.0
 10
343.5525
 20
212.5898
 30
0.0
 10
343.5525
 20
212.5898
 30
0.0
 10
343.5525
 20
212.5898
 30
0.0
 10
343.5525
 20
196.7148
 30
0.0
 10
343.5525
 20
196.7148
 30
0.0
  0
SPLINE
  5
6A
330
1F
100
AcDbEntity
  8
Layer 1
 62
     1
370
     9
100
AcDbSpline
210
0.0
220
0.0
230
1.0
 70
    11
 71
     3
 72
    20
 73
    16
 74
     0
 42
0.0000000001
 43
0.0000000001
 40
0.0
 40
0.0
 40
0.0
 40
0.0
 40
0.2
 40
0.2
 40
0.2
 40
0.2
 40
0.4
 40
0.4
 40
0.4
 40
0.4
 40
0.6
 40
0.6
 40
0.6
 40
0.6
 40
1.0
 40
1.0
 40
1.0
 40
1.0
 10
373.715
 20
196.7148
 30
0.0
 10
373.715
 20
196.7148
 30
0.0
 10
372.1275
 20
196.7148
 30
0.0
 10
372.1275
 20
196.7148
 30
0.0
 10
372.1275
 20
196.7148
 30
0.0
 10
372.1275
 20
196.7148
 30
0.0
 10
372.1275
 20
212.5898
 30
0.0
 10
372.1275
 20
212.5898
 30
0.0
 10
372.1275
 20
212.5898
 30
0.0
 10
372.1275
 20
212.5898
 30
0.0
 10
373.715
 20
212.5898
 30
0.0
 10
373.715
 20
212.5898
 30
0.0
 10
373.715
 20
212.5898
 30
0.0
 10
373.715
 20
212.5898
 30
0.0
 10
373.715
 20
196.7148
 30
0.0
 10
373.715
 20
196.7148
 30
0.0
  0
SPLINE
  5
6B
330
1F
100
AcDbEntity
  8
Layer 1
 62
     1
370
     9
100
AcDbSpline
210
0.0
220
0.0
230
1.0
 70
     8
 71
     3
 72
    44
 73
    40
 74
     0
 42
0.0000000001
 43
0.0000000001
 40
0.0
 40
0.0
 40
0.0
 40
0.0
 40
0.0909090909090909
 40
0.0909090909090909
 40
0.0909090909090909
 40
0.0909090909090909
 40
0.1818181818181818
 40
0.1818181818181818
 40
0.1818181818181818
 40
0.1818181818181818
 40
0.2727272727272727
 40
0.2727272727272727
 40
0.2727272727272727
 40
0.2727272727272727
 40
0.3636363636363636
 40
0.3636363636363636
 40
0.3636363636363636
 40
0.3636363636363636
 40
0.4545454545454545
 40
0.4545454545454545
 40
0.4545454545454545
 40
0.4545454545454545
 40
0.5454545454545454
 40
0.5454545454545454
 40
0.5454545454545454
 40
0.5454545454545454
 40
0.6363636363636364
 40
0.6363636363636364
 40
0.6363636363636364
 40
0.6363636363636364
 40
0.7272727272727273
 40
0.7272727272727273
 40
0.7272727272727273
 40
0.7272727272727273
 40
0.8181818181818182
 40
0.8181818181818182
 40
0.8181818181818182
 40
0.8181818181818182
 40
1.0
 40
1.0
 40
1.0
 40
1.0
 10
295.8433
 20
201.747
 30
0.0
 10
295.8433
 20
201.747
 30
0.0
 10
296.3372
 20
201.747
 30
0.0
 10
296.3372
 20
201.747
 30
0.0
 10
296.3372
 20
201.747
 30
0.0
 10
296.3372
 20
201.747
 30
0.0
 10
300.1525
 20
201.747
 30
0.0
 10
300.1525
 20
201.747
 30
0.0
 10
300.1525
 20
201.747
 30
0.0
 10
300.1525
 20
201.747
 30
0.0
 10
301.6402
 20
201.747
 30
0.0
 10
301.6402
 20
201.747
 30
0.0
 10
301.6402
 20
201.747
 30
0.0
 10
301.8536
 20
201.6016
 30
0.0
 10
302.0857
 20
201.5191
 30
0.0
 10
302.3299
 20
201.5191
 30
0.0
 10
302.3299
 20
201.5191
 30
0.0
 10
303.3469
 20
201.5191
 30
0.0
 10
304.1721
 20
202.9147
 30
0.0
 10
304.1721
 20
204.6345
 30
0.0
 10
304.1721
 20
204.6345
 30
0.0
 10
304.1721
 20
206.3543
 30
0.0
 10
303.3469
 20
207.7488
 30
0.0
 10
302.3299
 20
207.7488
 30
0.0
 10
302.3299
 20
207.7488
 30
0.0
 10
302.0857
 20
207.7488
 30
0.0
 10
301.8536
 20
207.6666
 30
0.0
 10
301.6402
 20
207.5209
 30
0.0
 10
301.6402
 20
207.5209
 30
0.0
 10
301.6402
 20
207.5209
 30
0.0
 10
301.3756
 20
207.5209
 30
0.0
 10
301.3756
 20
207.5209
 30
0.0
 10
301.3756
 20
207.5209
 30
0.0
 10
301.3756
 20
207.5209
 30
0.0
 10
296.3372
 20
207.5209
 30
0.0
 10
296.3372
 20
207.5209
 30
0.0
 10
296.3372
 20
207.5209
 30
0.0
 10
296.3372
 20
207.5209
 30
0.0
 10
295.8433
 20
207.5209
 30
0.0
 10
295.8433
 20
207.5209
 30
0.0
  0
SPLINE
  5
6C
330
1F
100
AcDbEntity
  8
Layer 1
 62
     1
370
     9
100
AcDbSpline
210
0.0
220
0.0
230
1.0
 70
     8
 71
     3
 72
    48
 73
    44
 74
     0
 42
0.0000000001
 43
0.0000000001
 40
0.0
 40
0.0
 40
0.0
 40
0.0
 40
0.0833333333333333
 40
0.0833333333333333
 40
0.0833333333333333
 40
0.0833333333333333
 40
0.1666666666666667
 40
0.1666666666666667
 40
0.1666666666666667
 40
0.1666666666666667
 40
0.25
 40
0.25
 40
0.25
 40
0.25
 40
0.3333333333333333
 40
0.3333333333333333
 40
0.3333333333333333
 40
0.3333333333333333
 40
0.4166666666666667
 40
0.4166666666666667
 40
0.4166666666666667
 40
0.4166666666666667
 40
0.5
 40
0.5
 40
0.5
 40
0.5
 40
0.5833333333333334
 40
0.5833333333333334
 40
0.5833333333333334
 40
0.5833333333333334
 40
0.6666666666666666
 40
0.6666666666666666
 40
0.6666666666666666
 40
0.6666666666666666
 40
0.75
 40
0.75
 40
0.75
 40
0.75
 40
0.8333333333333334
 40
0.8333333333333334
 40
0.8333333333333334
 40
0.8333333333333334
 40
1.0
 40
1.0
 40
1.0
 40
1.0
 10
94.2413
 20
212.1719
 30
0.0
 10
94.2413
 20
212.1719
 30
0.0
 10
79.1777
 20
212.1719
 30
0.0
 10
79.1777
 20
212.1719
 30
0.0
 10
79.1777
 20
212.1719
 30
0.0
 10
79.1777
 20
212.1719
 30
0.0
 10
74.2053
 20
212.1719
 30
0.0
 10
74.2053
 20
212.1719
 30
0.0
 10
74.2053
 20
212.1719
 30
0.0
 10
74.2053
 20
212.1719
 30
0.0
 10
71.8682
 20
212.1719
 30
0.0
 10
71.8682
 20
212.1719
 30
0.0
 10
71.8682
 20
212.1719
 30
0.0
 10
71.8682
 20
212.1719
 30
0.0
 10
70.7929
 20
212.1719
 30
0.0
 10
70.7929
 20
212.1719
 30
0.0
 10
70.7929
 20
212.1719
 30
0.0
 10
69.755
 20
212.1719
 30
0.0
 10
68.9133
 20
211.3301
 30
0.0
 10
68.9133
 20
210.2919
 30
0.0
 10
68.9133
 20
210.2919
 30
0.0
 10
68.9133
 20
210.2919
 30
0.0
 10
68.9133
 20
199.0115
 30
0.0
 10
68.9133
 20
199.0115
 30
0.0
 10
68.9133
 20
199.0115
 30
0.0
 10
68.9133
 20
197.9733
 30
0.0
 10
69.755
 20
197.1319
 30
0.0
 10
70.7929
 20
197.1319
 30
0.0
 10
70.7929
 20
197.1319
 30
0.0
 10
70.7929
 20
197.1319
 30
0.0
 10
71.8682
 20
197.1319
 30
0.0
 10
71.8682
 20
197.1319
 30
0.0
 10
71.8682
 20
197.1319
 30
0.0
 10
71.8682
 20
197.1319
 30
0.0
 10
74.2053
 20
197.1319
 30
0.0
 10
74.2053
 20
197.1319
 30
0.0
 10
74.2053
 20
197.1319
 30
0.0
 10
74.2053
 20
197.1319
 30
0.0
 10
79.1777
 20
197.1319
 30
0.0
 10
79.1777
 20
197.1319
 30
0.0
 10
79.1777
 20
197.1319
 30
0.0
 10
79.1777
 20
197.1319
 30
0.0
 10
94.2413
 20
197.1319
 30
0.0
 10
94.2413
 20
197.1319
 30
0.0
  0
SPLINE
  5
6D
330
1F
100
AcDbEntity
  8
Layer 1
 62
     1
370
     9
100
AcDbSpline
210
0.0
220
0.0
230
1.0
 70
     8
 71
     3
 72
    48
 73
    44
 74
     0
 42
0.0000000001
 43
0.0000000001
 40
0.0
 40
0.0
 40
0.0
 40
0.0
 40
0.0833333333333333
 40
0.0833333333333333
 40
0.0833333333333333
 40
0.0833333333333333
 40
0.1666666666666667
 40
0.1666666666666667
 40
0.1666666666666667
 40
0.1666666666666667
 40
0.25
 40
0.25
 40
0.25
 40
0.25
 40
0.3333333333333333
 40
0.3333333333333333
 40
0.3333333333333333
 40
0.3333333333333333
 40
0.4166666666666667
 40
0.4166666666666667
 40
0.4166666666666667
 40
0.4166666666666667
 40
0.5
 40
0.5
 40
0.5
 40
0.5
 40
0.5833333333333334
 40
0.5833333333333334
 40
0.5833333333333334
 40
0.5833333333333334
 40
0.6666666666666666
 40
0.6666666666666666
 40
0.6666666666666666
 40
0.6666666666666666
 40
0.75
 40
0.75
 40
0.75
 40
0.75
 40
0.8333333333333334
 40
0.8333333333333334
 40
0.8333333333333334
 40
0.8333333333333334
 40
1.0
 40
1.0
 40
1.0
 40
1.0
 10
284.7522
 20
197.1319
 30
0.0
 10
284.7522
 20
197.1319
 30
0.0
 10
299.952
 20
197.1319
 30
0.0
 10
299.952
 20
197.1319
 30
0.0
 10
299.952
 20
197.1319
 30
0.0
 10
299.952
 20
197.1319
 30
0.0
 10
304.924
 20
197.1319
 30
0.0
 10
304.924
 20
197.1319
 30
0.0
 10
304.924
 20
197.1319
 30
0.0
 10
304.924
 20
197.1319
 30
0.0
 10
307.2612
 20
197.1319
 30
0.0
 10
307.2612
 20
197.1319
 30
0.0
 10
307.2612
 20
197.1319
 30
0.0
 10
307.2612
 20
197.1319
 30
0.0
 10
308.3361
 20
197.1319
 30
0.0
 10
308.3361
 20
197.1319
 30
0.0
 10
308.3361
 20
197.1319
 30
0.0
 10
309.3743
 20
197.1319
 30
0.0
 10
310.2164
 20
197.9737
 30
0.0
 10
310.2164
 20
199.0115
 30
0.0
 10
310.2164
 20
199.0115
 30
0.0
 10
310.2164
 20
199.0115
 30
0.0
 10
310.2164
 20
210.292
 30
0.0
 10
310.2164
 20
210.292
 30
0.0
 10
310.2164
 20
210.292
 30
0.0
 10
310.2164
 20
211.3302
 30
0.0
 10
309.3743
 20
212.1719
 30
0.0
 10
308.3361
 20
212.1719
 30
0.0
 10
308.3361
 20
212.1719
 30
0.0
 10
308.3361
 20
212.1719
 30
0.0
 10
307.2612
 20
212.1719
 30
0.0
 10
307.2612
 20
212.1719
 30
0.0
 10
307.2612
 20
212.1719
 30
0.0
 10
307.2612
 20
212.1719
 30
0.0
 10
304.924
 20
212.1719
 30
0.0
 10
304.924
 20
212.1719
 30
0.0
 10
304.924
 20
212.1719
 30
0.0
 10
304.924
 20
212.1719
 30
0.0
 10
299.952
 20
212.1719
 30
0.0
 10
299.952
 20
212.1719
 30
0.0
 10
299.952
 20
212.1719
 30
0.0
 10
299.952
 20
212.1719
 30
0.0
 10
284.7522
 20
212.1719
 30
0.0
 10
284.7522
 20
212.1719
 30
0.0
  0
SPLINE
  5
6E
330
1F
100
AcDbEntity
  8
Layer 1
 62
     1
370
     9
100
AcDbSpline
210
0.0
220
0.0
230
1.0
 70
     8
 71
     3
 72
    44
 73
    40
 74
     0
 42
0.0000000001
 43
0.0000000001
 40
0.0
 40
0.0
 40
0.0
 40
0.0
 40
0.0909090909090909
 40
0.0909090909090909
 40
0.0909090909090909
 40
0.0909090909090909
 40
0.1818181818181818
 40
0.1818181818181818
 40
0.1818181818181818
 40
0.1818181818181818
 40
0.2727272727272727
 40
0.2727272727272727
 40
0.2727272727272727
 40
0.2727272727272727
 40
0.3636363636363636
 40
0.3636363636363636
 40
0.3636363636363636
 40
0.3636363636363636
 40
0.4545454545454545
 40
0.4545454545454545
 40
0.4545454545454545
 40
0.4545454545454545
 40
0.5454545454545454
 40
0.5454545454545454
 40
0.5454545454545454
 40
0.5454545454545454
 40
0.6363636363636364
 40
0.6363636363636364
 40
0.6363636363636364
 40
0.6363636363636364
 40
0.7272727272727273
 40
0.7272727272727273
 40
0.7272727272727273
 40
0.7272727272727273
 40
0.8181818181818182
 40
0.8181818181818182
 40
0.8181818181818182
 40
0.8181818181818182
 40
1.0
 40
1.0
 40
1.0
 40
1.0
 10
223.3647
 20
200.0265
 30
0.0
 10
223.3647
 20
200.0265
 30
0.0
 10
223.3647
 20
201.6334
 30
0.0
 10
223.3647
 20
201.6334
 30
0.0
 10
223.3647
 20
201.6334
 30
0.0
 10
223.3647
 20
201.6334
 30
0.0
 10
223.3647
 20
206.3585
 30
0.0
 10
223.3647
 20
206.3585
 30
0.0
 10
223.3647
 20
206.3585
 30
0.0
 10
223.3647
 20
206.3585
 30
0.0
 10
223.3647
 20
206.863
 30
0.0
 10
223.3647
 20
206.863
 30
0.0
 10
223.3647
 20
206.863
 30
0.0
 10
223.6046
 20
207.1925
 30
0.0
 10
223.7422
 20
207.5597
 30
0.0
 10
223.7422
 20
207.9474
 30
0.0
 10
223.7422
 20
207.9474
 30
0.0
 10
223.7422
 20
209.3684
 30
0.0
 10
221.9448
 20
210.5217
 30
0.0
 10
219.7272
 20
210.5217
 30
0.0
 10
219.7272
 20
210.5217
 30
0.0
 10
217.5093
 20
210.5217
 30
0.0
 10
215.7119
 20
209.3684
 30
0.0
 10
215.7119
 20
207.9474
 30
0.0
 10
215.7119
 20
207.9474
 30
0.0
 10
215.7119
 20
207.5594
 30
0.0
 10
215.8495
 20
207.1925
 30
0.0
 10
216.0894
 20
206.863
 30
0.0
 10
216.0894
 20
206.863
 30
0.0
 10
216.0894
 20
206.863
 30
0.0
 10
216.0894
 20
206.3585
 30
0.0
 10
216.0894
 20
206.3585
 30
0.0
 10
216.0894
 20
206.3585
 30
0.0
 10
216.0894
 20
206.3585
 30
0.0
 10
216.0894
 20
201.6334
 30
0.0
 10
216.0894
 20
201.6334
 30
0.0
 10
216.0894
 20
201.6334
 30
0.0
 10
216.0894
 20
201.6334
 30
0.0
 10
216.0894
 20
200.0265
 30
0.0
 10
216.0894
 20
200.0265
 30
0.0
  0
SPLINE
  5
6F
330
1F
100
AcDbEntity
  8
Layer 1
 62
     1
370
     9
100
AcDbSpline
210
0.0
220
0.0
230
1.0
 70
     8
 71
     3
 72
    44
 73
    40
 74
     0
 42
0.0000000001
 43
0.0000000001
 40
0.0
 40
0.0
 40
0.0
 40
0.0
 40
0.0909090909090909
 40
0.0909090909090909
 40
0.0909090909090909
 40
0.0909090909090909
 40
0.1818181818181818
 40
0.1818181818181818
 40
0.1818181818181818
 40
0.1818181818181818
 40
0.2727272727272727
 40
0.2727272727272727
 40
0.2727272727272727
 40
0.2727272727272727
 40
0.3636363636363636
 40
0.3636363636363636
 40
0.3636363636363636
 40
0.3636363636363636
 40
0.4545454545454545
 40
0.4545454545454545
 40
0.4545454545454545
 40
0.4545454545454545
 40
0.5454545454545454
 40
0.5454545454545454
 40
0.5454545454545454
 40
0.5454545454545454
 40
0.6363636363636364
 40
0.6363636363636364
 40
0.6363636363636364
 40
0.6363636363636364
 40
0.7272727272727273
 40
0.7272727272727273
 40
0.7272727272727273
 40
0.7272727272727273
 40
0.8181818181818182
 40
0.8181818181818182
 40
0.8181818181818182
 40
0.8181818181818182
 40
1.0
 40
1.0
 40
1.0
 40
1.0
 10
163.0399
 20
200.0265
 30
0.0
 10
163.0399
 20
200.0265
 30
0.0
 10
163.0399
 20
201.6334
 30
0.0
 10
163.0399
 20
201.6334
 30
0.0
 10
163.0399
 20
201.6334
 30
0.0
 10
163.0399
 20
201.6334
 30
0.0
 10
163.0399
 20
206.3585
 30
0.0
 10
163.0399
 20
206.3585
 30
0.0
 10
163.0399
 20
206.3585
 30
0.0
 10
163.0399
 20
206.3585
 30
0.0
 10
163.0399
 20
206.863
 30
0.0
 10
163.0399
 20
206.863
 30
0.0
 10
163.0399
 20
206.863
 30
0.0
 10
163.2798
 20
207.1925
 30
0.0
 10
163.4174
 20
207.5597
 30
0.0
 10
163.4174
 20
207.9474
 30
0.0
 10
163.4174
 20
207.9474
 30
0.0
 10
163.4174
 20
209.3684
 30
0.0
 10
161.6196
 20
210.5217
 30
0.0
 10
159.4021
 20
210.5217
 30
0.0
 10
159.4021
 20
210.5217
 30
0.0
 10
157.1845
 20
210.5217
 30
0.0
 10
155.3867
 20
209.3684
 30
0.0
 10
155.3867
 20
207.9474
 30
0.0
 10
155.3867
 20
207.9474
 30
0.0
 10
155.3867
 20
207.5594
 30
0.0
 10
155.5243
 20
207.1925
 30
0.0
 10
155.7642
 20
206.863
 30
0.0
 10
155.7642
 20
206.863
 30
0.0
 10
155.7642
 20
206.863
 30
0.0
 10
155.7642
 20
206.3585
 30
0.0
 10
155.7642
 20
206.3585
 30
0.0
 10
155.7642
 20
206.3585
 30
0.0
 10
155.7642
 20
206.3585
 30
0.0
 10
155.7642
 20
201.6334
 30
0.0
 10
155.7642
 20
201.6334
 30
0.0
 10
155.7642
 20
201.6334
 30
0.0
 10
155.7642
 20
201.6334
 30
0.0
 10
155.7642
 20
200.0265
 30
0.0
 10
155.7642
 20
200.0265
 30
0.0
  0
SPLINE
  5
70
330
1F
100
AcDbEntity
  8
Layer 1
 62
     1
370
     9
100
AcDbSpline
210
0.0
220
0.0
230
1.0
 70
     8
 71
     3
 72
    44
 73
    40
 74
     0
 42
0.0000000001
 43
0.0000000001
 40
0.0
 40
0.0
 40
0.0
 40
0.0
 40
0.0909090909090909
 40
0.0909090909090909
 40
0.0909090909090909
 40
0.0909090909090909
 40
0.1818181818181818
 40
0.1818181818181818
 40
0.1818181818181818
 40
0.1818181818181818
 40
0.2727272727272727
 40
0.2727272727272727
 40
0.2727272727272727
 40
0.2727272727272727
 40
0.3636363636363636
 40
0.3636363636363636
 40
0.3636363636363636
 40
0.3636363636363636
 40
0.4545454545454545
 40
0.4545454545454545
 40
0.4545454545454545
 40
0.4545454545454545
 40
0.5454545454545454
 40
0.5454545454545454
 40
0.5454545454545454
 40
0.5454545454545454
 40
0.6363636363636364
 40
0.6363636363636364
 40
0.6363636363636364
 40
0.6363636363636364
 40
0.7272727272727273
 40
0.7272727272727273
 40
0.7272727272727273
 40
0.7272727272727273
 40
0.8181818181818182
 40
0.8181818181818182
 40
0.8181818181818182
 40
0.8181818181818182
 40
1.0
 40
1.0
 40
1.0
 40
1.0
 10
83.2876
 20
207.5213
 30
0.0
 10
83.2876
 20
207.5213
 30
0.0
 10
82.7938
 20
207.5213
 30
0.0
 10
82.7938
 20
207.5213
 30
0.0
 10
82.7938
 20
207.5213
 30
0.0
 10
82.7938
 20
207.5213
 30
0.0
 10
78.9781
 20
207.5213
 30
0.0
 10
78.9781
 20
207.5213
 30
0.0
 10
78.9781
 20
207.5213
 30
0.0
 10
78.9781
 20
207.5213
 30
0.0
 10
77.4901
 20
207.5213
 30
0.0
 10
77.4901
 20
207.5213
 30
0.0
 10
77.4901
 20
207.5213
 30
0.0
 10
77.2777
 20
207.6667
 30
0.0
 10
77.0456
 20
207.7489
 30
0.0
 10
76.8015
 20
207.7489
 30
0.0
 10
76.8015
 20
207.7489
 30
0.0
 10
75.7841
 20
207.7489
 30
0.0
 10
74.9593
 20
206.354
 30
0.0
 10
74.9593
 20
204.6342
 30
0.0
 10
74.9593
 20
204.6342
 30
0.0
 10
74.9593
 20
202.9137
 30
0.0
 10
75.7841
 20
201.5192
 30
0.0
 10
76.8015
 20
201.5192
 30
0.0
 10
76.8015
 20
201.5192
 30
0.0
 10
77.0456
 20
201.5192
 30
0.0
 10
77.2777
 20
201.6017
 30
0.0
 10
77.4908
 20
201.7471
 30
0.0
 10
77.4908
 20
201.7471
 30
0.0
 10
77.4908
 20
201.7471
 30
0.0
 10
77.7554
 20
201.7471
 30
0.0
 10
77.7554
 20
201.7471
 30
0.0
 10
77.7554
 20
201.7471
 30
0.0
 10
77.7554
 20
201.7471
 30
0.0
 10
82.7938
 20
201.7471
 30
0.0
 10
82.7938
 20
201.7471
 30
0.0
 10
82.7938
 20
201.7471
 30
0.0
 10
82.7938
 20
201.7471
 30
0.0
 10
83.2876
 20
201.7471
 30
0.0
 10
83.2876
 20
201.7471
 30
0.0
  0
SPLINE
  5
71
330
1F
100
AcDbEntity
  8
Layer 1
 62
     1
370
     9
100
AcDbSpline
210
0.0
220
0.0
230
1.0
 70
    11
 71
     3
 72
   360
 73
   356
 74
     0
 42
0.0000000001
 43
0.0000000001
 40
0.0
 40
0.0
 40
0.0
 40
0.0
 40
0.0111111111111111
 40
0.0111111111111111
 40
0.0111111111111111
 40
0.0111111111111111
 40
0.0222222222222222
 40
0.0222222222222222
 40
0.0222222222222222
 40
0.0222222222222222
 40
0.0333333333333333
 40
0.0333333333333333
 40
0.0333333333333333
 40
0.0333333333333333
 40
0.0444444444444444
 40
0.0444444444444444
 40
0.0444444444444444
 40
0.0444444444444444
 40
0.0555555555555556
 40
0.0555555555555556
 40
0.0555555555555556
 40
0.0555555555555556
 40
0.0666666666666667
 40
0.0666666666666667
 40
0.0666666666666667
 40
0.0666666666666667
 40
0.0777777777777778
 40
0.0777777777777778
 40
0.0777777777777778
 40
0.0777777777777778
 40
0.0888888888888889
 40
0.0888888888888889
 40
0.0888888888888889
 40
0.0888888888888889
 40
0.1
 40
0.1
 40
0.1
 40
0.1
 40
0.1111111111111111
 40
0.1111111111111111
 40
0.1111111111111111
 40
0.1111111111111111
 40
0.1222222222222222
 40
0.1222222222222222
 40
0.1222222222222222
 40
0.1222222222222222
 40
0.1333333333333333
 40
0.1333333333333333
 40
0.1333333333333333
 40
0.1333333333333333
 40
0.1444444444444444
 40
0.1444444444444444
 40
0.1444444444444444
 40
0.1444444444444444
 40
0.1555555555555556
 40
0.1555555555555556
 40
0.1555555555555556
 40
0.1555555555555556
 40
0.1666666666666667
 40
0.1666666666666667
 40
0.1666666666666667
 40
0.1666666666666667
 40
0.1777777777777778
 40
0.1777777777777778
 40
0.1777777777777778
 40
0.1777777777777778
 40
0.1888888888888889
 40
0.1888888888888889
 40
0.1888888888888889
 40
0.1888888888888889
 40
0.2
 40
0.2
 40
0.2
 40
0.2
 40
0.2111111111111111
 40
0.2111111111111111
 40
0.2111111111111111
 40
0.2111111111111111
 40
0.2222222222222222
 40
0.2222222222222222
 40
0.2222222222222222
 40
0.2222222222222222
 40
0.2333333333333333
 40
0.2333333333333333
 40
0.2333333333333333
 40
0.2333333333333333
 40
0.2444444444444444
 40
0.2444444444444444
 40
0.2444444444444444
 40
0.2444444444444444
 40
0.2555555555555555
 40
0.2555555555555555
 40
0.2555555555555555
 40
0.2555555555555555
 40
0.2666666666666667
 40
0.2666666666666667
 40
0.2666666666666667
 40
0.2666666666666667
 40
0.2777777777777778
 40
0.2777777777777778
 40
0.2777777777777778
 40
0.2777777777777778
 40
0.2888888888888889
 40
0.2888888888888889
 40
0.2888888888888889
 40
0.2888888888888889
 40
0.3
 40
0.3
 40
0.3
 40
0.3
 40
0.3111111111111111
 40
0.3111111111111111
 40
0.3111111111111111
 40
0.3111111111111111
 40
0.3222222222222222
 40
0.3222222222222222
 40
0.3222222222222222
 40
0.3222222222222222
 40
0.3333333333333333
 40
0.3333333333333333
 40
0.3333333333333333
 40
0.3333333333333333
 40
0.3444444444444444
 40
0.3444444444444444
 40
0.3444444444444444
 40
0.3444444444444444
 40
0.3555555555555556
 40
0.3555555555555556
 40
0.3555555555555556
 40
0.3555555555555556
 40
0.3666666666666666
 40
0.3666666666666666
 40
0.3666666666666666
 40
0.3666666666666666
 40
0.3777777777777778
 40
0.3777777777777778
 40
0.3777777777777778
 40
0.3777777777777778
 40
0.3888888888888889
 40
0.3888888888888889
 40
0.3888888888888889
 40
0.3888888888888889
 40
0.4
 40
0.4
 40
0.4
 40
0.4
 40
0.4111111111111111
 40
0.4111111111111111
 40
0.4111111111111111
 40
0.4111111111111111
 40
0.4222222222222222
 40
0.4222222222222222
 40
0.4222222222222222
 40
0.4222222222222222
 40
0.4333333333333333
 40
0.4333333333333333
 40
0.4333333333333333
 40
0.4333333333333333
 40
0.4444444444444444
 40
0.4444444444444444
 40
0.4444444444444444
 40
0.4444444444444444
 40
0.4555555555555555
 40
0.4555555555555555
 40
0.4555555555555555
 40
0.4555555555555555
 40
0.4666666666666667
 40
0.4666666666666667
 40
0.4666666666666667
 40
0.4666666666666667
 40
0.4777777777777778
 40
0.4777777777777778
 40
0.4777777777777778
 40
0.4777777777777778
 40
0.4888888888888889
 40
0.4888888888888889
 40
0.4888888888888889
 40
0.4888888888888889
 40
0.5
 40
0.5
 40
0.5
 40
0.5
 40
0.5111111111111111
 40
0.5111111111111111
 40
0.5111111111111111
 40
0.5111111111111111
 40
0.5222222222222223
 40
0.5222222222222223
 40
0.5222222222222223
 40
0.5222222222222223
 40
0.5333333333333333
 40
0.5333333333333333
 40
0.5333333333333333
 40
0.5333333333333333
 40
0.5444444444444444
 40
0.5444444444444444
 40
0.5444444444444444
 40
0.5444444444444444
 40
0.5555555555555556
 40
0.5555555555555556
 40
0.5555555555555556
 40
0.5555555555555556
 40
0.5666666666666667
 40
0.5666666666666667
 40
0.5666666666666667
 40
0.5666666666666667
 40
0.5777777777777777
 40
0.5777777777777777
 40
0.5777777777777777
 40
0.5777777777777777
 40
0.5888888888888889
 40
0.5888888888888889
 40
0.5888888888888889
 40
0.5888888888888889
 40
0.6
 40
0.6
 40
0.6
 40
0.6
 40
0.6111111111111112
 40
0.6111111111111112
 40
0.6111111111111112
 40
0.6111111111111112
 40
0.6222222222222222
 40
0.6222222222222222
 40
0.6222222222222222
 40
0.6222222222222222
 40
0.6333333333333333
 40
0.6333333333333333
 40
0.6333333333333333
 40
0.6333333333333333
 40
0.6444444444444445
 40
0.6444444444444445
 40
0.6444444444444445
 40
0.6444444444444445
 40
0.6555555555555556
 40
0.6555555555555556
 40
0.6555555555555556
 40
0.6555555555555556
 40
0.6666666666666666
 40
0.6666666666666666
 40
0.6666666666666666
 40
0.6666666666666666
 40
0.6777777777777778
 40
0.6777777777777778
 40
0.6777777777777778
 40
0.6777777777777778
 40
0.6888888888888889
 40
0.6888888888888889
 40
0.6888888888888889
 40
0.6888888888888889
 40
0.7
 40
0.7
 40
0.7
 40
0.7
 40
0.7111111111111111
 40
0.7111111111111111
 40
0.7111111111111111
 40
0.7111111111111111
 40
0.7222222222222222
 40
0.7222222222222222
 40
0.7222222222222222
 40
0.7222222222222222
 40
0.7333333333333333
 40
0.7333333333333333
 40
0.7333333333333333
 40
0.7333333333333333
 40
0.7444444444444445
 40
0.7444444444444445
 40
0.7444444444444445
 40
0.7444444444444445
 40
0.7555555555555555
 40
0.7555555555555555
 40
0.7555555555555555
 40
0.7555555555555555
 40
0.7666666666666667
 40
0.7666666666666667
 40
0.7666666666666667
 40
0.7666666666666667
 40
0.7777777777777778
 40
0.7777777777777778
 40
0.7777777777777778
 40
0.7777777777777778
 40
0.7888888888888889
 40
0.7888888888888889
 40
0.7888888888888889
 40
0.7888888888888889
 40
0.8
 40
0.8
 40
0.8
 40
0.8
 40
0.8111111111111111
 40
0.8111111111111111
 40
0.8111111111111111
 40
0.8111111111111111
 40
0.8222222222222222
 40
0.8222222222222222
 40
0.8222222222222222
 40
0.8222222222222222
 40
0.8333333333333334
 40
0.8333333333333334
 40
0.8333333333333334
 40
0.8333333333333334
 40
0.8444444444444444
 40
0.8444444444444444
 40
0.8444444444444444
 40
0.8444444444444444
 40
0.8555555555555555
 40
0.8555555555555555
 40
0.8555555555555555
 40
0.8555555555555555
 40
0.8666666666666667
 40
0.8666666666666667
 40
0.8666666666666667
 40
0.8666666666666667
 40
0.8777777777777778
 40
0.8777777777777778
 40
0.8777777777777778
 40
0.8777777777777778
 40
0.8888888888888888
 40
0.8888888888888888
 40
0.8888888888888888
 40
0.8888888888888888
 40
0.9
 40
0.9
 40
0.9
 40
0.9
 40
0.9111111111111111
 40
0.9111111111111111
 40
0.9111111111111111
 40
0.9111111111111111
 40
0.9222222222222223
 40
0.9222222222222223
 40
0.9222222222222223
 40
0.9222222222222223
 40
0.9333333333333333
 40
0.9333333333333333
 40
0.9333333333333333
 40
0.9333333333333333
 40
0.9444444444444444
 40
0.9444444444444444
 40
0.9444444444444444
 40
0.9444444444444444
 40
0.9555555555555556
 40
0.9555555555555556
 40
0.9555555555555556
 40
0.9555555555555556
 40
0.9666666666666667
 40
0.9666666666666667
 40
0.9666666666666667
 40
0.9666666666666667
 40
0.9777777777777777
 40
0.9777777777777777
 40
0.9777777777777777
 40
0.9777777777777777
 40
1.0
 40
1.0
 40
1.0
 40
1.0
 10
91.3493
 20
163.1407
 30
0.0
 10
89.6556
 20
164.7631
 30
0.0
 10
87.6367
 20
165.4058
 30
0.0
 10
86.8387
 20
164.5747
 30
0.0
 10
86.8387
 20
164.5747
 30
0.0
 10
86.6665
 20
164.3934
 30
0.0
 10
86.5688
 20
164.1556
 30
0.0
 10
86.5339
 20
163.8808
 30
0.0
 10
86.5339
 20
163.8808
 30
0.0
 10
86.5339
 20
163.8808
 30
0.0
 10
86.1356
 20
163.4546
 30
0.0
 10
86.1356
 20
163.4546
 30
0.0
 10
86.1356
 20
163.4546
 30
0.0
 10
82.5136
 20
166.6776
 30
0.0
 10
78.8669
 20
169.4113
 30
0.0
 10
75.3586
 20
171.7054
 30
0.0
 10
75.3586
 20
171.7054
 30
0.0
 10
72.0453
 20
174.2549
 30
0.0
 10
68.2984
 20
176.5201
 30
0.0
 10
64.1995
 20
178.412
 30
0.0
 10
64.1995
 20
178.412
 30
0.0
 10
64.1988
 20
178.4124
 30
0.0
 10
64.1981
 20
178.4128
 30
0.0
 10
64.1967
 20
178.4131
 30
0.0
 10
64.1967
 20
178.4131
 30
0.0
 10
62.6215
 20
179.1402
 30
0.0
 10
60.9942
 20
179.8122
 30
0.0
 10
59.3195
 20
180.4239
 30
0.0
 10
59.3195
 20
180.4239
 30
0.0
 10
59.3167
 20
180.4261
 30
0.0
 10
59.3118
 20
180.4275
 30
0.0
 10
59.3086
 20
180.4289
 30
0.0
 10
59.3086
 20
180.4289
 30
0.0
 10
58.7755
 20
180.6233
 30
0.0
 10
58.2365
 20
180.8109
 30
0.0
 10
57.6943
 20
180.9933
 30
0.0
 10
57.6943
 20
180.9933
 30
0.0
 10
57.665
 20
181.0028
 30
0.0
 10
57.6368
 20
181.0134
 30
0.0
 10
57.6079
 20
181.0233
 30
0.0
 10
57.6079
 20
181.0233
 30
0.0
 10
57.0991
 20
181.1933
 30
0.0
 10
56.5848
 20
181.3563
 30
0.0
 10
56.068
 20
181.5151
 30
0.0
 10
56.068
 20
181.5151
 30
0.0
 10
56.0034
 20
181.5348
 30
0.0
 10
55.9406
 20
181.5564
 30
0.0
 10
55.8771
 20
181.5765
 30
0.0
 10
55.8771
 20
181.5765
 30
0.0
 10
55.3931
 20
181.7236
 30
0.0
 10
54.9038
 20
181.8629
 30
0.0
 10
54.4124
 20
181.9998
 30
0.0
 10
54.4124
 20
181.9998
 30
0.0
 10
54.3143
 20
182.027
 30
0.0
 10
54.2173
 20
182.0577
 30
0.0
 10
54.1192
 20
182.0845
 30
0.0
 10
54.1192
 20
182.0845
 30
0.0
 10
53.9266
 20
182.1381
 30
0.0
 10
53.7298
 20
182.1864
 30
0.0
 10
53.5343
 20
182.2372
 30
0.0
 10
53.5343
 20
182.2372
 30
0.0
 10
53.5343
 20
182.2372
 30
0.0
 10
53.679
 20
182.9075
 30
0.0
 10
53.679
 20
182.9075
 30
0.0
 10
53.679
 20
182.9075
 30
0.0
 10
53.9474
 20
183.1266
 30
0.0
 10
54.1323
 20
183.3954
 30
0.0
 10
54.2
 20
183.7083
 30
0.0
 10
54.2
 20
183.7083
 30
0.0
 10
54.4434
 20
184.8347
 30
0.0
 10
53.1043
 20
186.079
 30
0.0
 10
51.2074
 20
186.4889
 30
0.0
 10
51.2074
 20
186.4889
 30
0.0
 10
49.3112
 20
186.8981
 30
0.0
 10
47.5763
 20
186.3167
 30
0.0
 10
47.3328
 20
185.19
 30
0.0
 10
47.3328
 20
185.19
 30
0.0
 10
47.2662
 20
184.8806
 30
0.0
 10
47.3226
 20
184.5624
 30
0.0
 10
47.4733
 20
184.2548
 30
0.0
 10
47.4733
 20
184.2548
 30
0.0
 10
47.4733
 20
184.2548
 30
0.0
 10
47.3265
 20
183.5767
 30
0.0
 10
47.3265
 20
183.5767
 30
0.0
 10
47.3265
 20
183.5767
 30
0.0
 10
47.1282
 20
183.6106
 30
0.0
 10
46.9289
 20
183.6483
 30
0.0
 10
46.73
 20
183.6794
 30
0.0
 10
46.73
 20
183.6794
 30
0.0
 10
46.6305
 20
183.6952
 30
0.0
 10
46.531
 20
183.7072
 30
0.0
 10
46.4329
 20
183.7228
 30
0.0
 10
46.4329
 20
183.7228
 30
0.0
 10
45.9267
 20
183.8004
 30
0.0
 10
45.4229
 20
183.8745
 30
0.0
 10
44.9195
 20
183.9404
 30
0.0
 10
44.9195
 20
183.9404
 30
0.0
 10
44.8549
 20
183.9489
 30
0.0
 10
44.7904
 20
183.9552
 30
0.0
 10
44.7258
 20
183.963
 30
0.0
 10
44.7258
 20
183.963
 30
0.0
 10
44.1871
 20
184.0322
 30
0.0
 10
43.6502
 20
184.0953
 30
0.0
 10
43.115
 20
184.151
 30
0.0
 10
43.115
 20
184.151
 30
0.0
 10
43.0851
 20
184.1535
 30
0.0
 10
43.0554
 20
184.156
 30
0.0
 10
43.0265
 20
184.1588
 30
0.0
 10
43.0265
 20
184.1588
 30
0.0
 10
42.4564
 20
184.217
 30
0.0
 10
41.8877
 20
184.2675
 30
0.0
 10
41.3208
 20
184.3101
 30
0.0
 10
41.3208
 20
184.3101
 30
0.0
 10
41.318
 20
184.3108
 30
0.0
 10
41.3152
 20
184.3108
 30
0.0
 10
41.313
 20
184.3112
 30
0.0
 10
41.313
 20
184.3112
 30
0.0
 10
39.5336
 20
184.4445
 30
0.0
 10
37.7722
 20
184.5028
 30
0.0
 10
36.0355
 20
184.4904
 30
0.0
 10
36.0355
 20
184.4904
 30
0.0
 10
36.0355
 20
184.4904
 30
0.0
 10
36.0327
 20
184.4904
 30
0.0
 10
36.0327
 20
184.4904
 30
0.0
 10
36.0327
 20
184.4904
 30
0.0
 10
31.5203
 20
184.4562
 30
0.0
 10
27.1716
 20
183.9387
 30
0.0
 10
23.102
 20
182.9819
 30
0.0
 10
23.102
 20
182.9819
 30
0.0
 10
18.9593
 20
182.3392
 30
0.0
 10
14.5097
 20
181.3535
 30
0.0
 10
9.8823
 20
179.9106
 30
0.0
 10
9.8823
 20
179.9106
 30
0.0
 10
9.8823
 20
179.9106
 30
0.0
 10
9.6957
 20
180.4617
 30
0.0
 10
9.6957
 20
180.4617
 30
0.0
 10
9.6957
 20
180.4617
 30
0.0
 10
9.7775
 20
180.727
 30
0.0
 10
9.7874
 20
180.9834
 30
0.0
 10
9.7038
 20
181.2198
 30
0.0
 10
9.7038
 20
181.2198
 30
0.0
 10
9.3196
 20
182.3064
 30
0.0
 10
7.2143
 20
182.554
 30
0.0
 10
5.0034
 20
181.773
 30
0.0
 10
5.0034
 20
181.773
 30
0.0
 10
2.7915
 20
180.9923
 30
0.0
 10
1.308
 20
179.4781
 30
0.0
 10
1.6929
 20
178.3916
 30
0.0
 10
1.6929
 20
178.3916
 30
0.0
 10
1.7825
 20
178.1369
 30
0.0
 10
1.9699
 20
177.9305
 30
0.0
 10
2.227
 20
177.7711
 30
0.0
 10
2.227
 20
177.7711
 30
0.0
 10
2.227
 20
177.7711
 30
0.0
 10
2.4225
 20
177.1953
 30
0.0
 10
2.4225
 20
177.1953
 30
0.0
 10
2.4225
 20
177.1953
 30
0.0
 10
2.0065
 20
176.6912
 30
0.0
 10
1.7021
 20
176.0837
 30
0.0
 10
1.5546
 20
175.4
 30
0.0
 10
1.5546
 20
175.4
 30
0.0
 10
1.0608
 20
173.1123
 30
0.0
 10
2.516
 20
170.858
 30
0.0
 10
4.8037
 20
170.3641
 30
0.0
 10
4.8037
 20
170.3641
 30
0.0
 10
5.4588
 20
170.223
 30
0.0
 10
6.1111
 20
170.2467
 30
0.0
 10
6.7211
 20
170.398
 30
0.0
 10
6.7211
 20
170.398
 30
0.0
 10
6.7211
 20
170.398
 30
0.0
 10
6.7211
 20
170.3955
 30
0.0
 10
6.7211
 20
170.3955
 30
0.0
 10
6.7211
 20
170.3955
 30
0.0
 10
11.7161
 20
171.4884
 30
0.0
 10
16.5361
 20
172.1382
 30
0.0
 10
21.0068
 20
172.4819
 30
0.0
 10
21.0068
 20
172.4819
 30
0.0
 10
24.9667
 20
173.0407
 30
0.0
 10
29.2209
 20
173.2456
 30
0.0
 10
33.6595
 20
173.0636
 30
0.0
 10
33.6595
 20
173.0636
 30
0.0
 10
33.6602
 20
173.0636
 30
0.0
 10
33.6609
 20
173.0636
 30
0.0
 10
33.6617
 20
173.0632
 30
0.0
 10
33.6617
 20
173.0632
 30
0.0
 10
35.3698
 20
172.9937
 30
0.0
 10
37.1055
 20
172.8664
 30
0.0
 10
38.8612
 20
172.6805
 30
0.0
 10
38.8612
 20
172.6805
 30
0.0
 10
38.8641
 20
172.6801
 30
0.0
 10
38.8669
 20
172.6801
 30
0.0
 10
38.869
 20
172.6798
 30
0.0
 10
38.869
 20
172.6798
 30
0.0
 10
39.4292
 20
172.6205
 30
0.0
 10
39.9912
 20
172.5549
 30
0.0
 10
40.5553
 20
172.4822
 30
0.0
 10
40.5553
 20
172.4822
 30
0.0
 10
40.5839
 20
172.479
 30
0.0
 10
40.6128
 20
172.4759
 30
0.0
 10
40.641
 20
172.4727
 30
0.0
 10
40.641
 20
172.4727
 30
0.0
 10
41.1719
 20
172.4049
 30
0.0
 10
41.7029
 20
172.3305
 30
0.0
 10
42.2345
 20
172.2525
 30
0.0
 10
42.2345
 20
172.2525
 30
0.0
 10
42.2994
 20
172.243
 30
0.0
 10
42.3629
 20
172.2346
 30
0.0
 10
42.4268
 20
172.2254
 30
0.0
 10
42.4268
 20
172.2254
 30
0.0
 10
42.9245
 20
172.1513
 30
0.0
 10
43.4248
 20
172.0698
 30
0.0
 10
43.925
 20
171.9858
 30
0.0
 10
43.925
 20
171.9858
 30
0.0
 10
44.0241
 20
171.9689
 30
0.0
 10
44.1219
 20
171.9552
 30
0.0
 10
44.2203
 20
171.9382
 30
0.0
 10
44.2203
 20
171.9382
 30
0.0
 10
44.7011
 20
171.8557
 30
0.0
 10
45.1827
 20
171.7664
 30
0.0
 10
45.6656
 20
171.6754
 30
0.0
 10
45.6656
 20
171.6754
 30
0.0
 10
45.7831
 20
171.6532
 30
0.0
 10
45.9009
 20
171.6338
 30
0.0
 10
46.0198
 20
171.6105
 30
0.0
 10
46.0198
 20
171.6105
 30
0.0
 10
46.6188
 20
171.4951
 30
0.0
 10
47.22
 20
171.3731
 30
0.0
 10
47.8214
 20
171.244
 30
0.0
 10
47.8214
 20
171.244
 30
0.0
 10
47.8214
 20
171.244
 30
0.0
 10
47.8222
 20
171.244
 30
0.0
 10
47.8222
 20
171.244
 30
0.0
 10
47.8222
 20
171.244
 30
0.0
 10
47.8391
 20
171.2397
 30
0.0
 10
47.8553
 20
171.2365
 30
0.0
 10
47.8719
 20
171.2334
 30
0.0
 10
47.8719
 20
171.2334
 30
0.0
 10
47.8931
 20
171.2291
 30
0.0
 10
47.9082
 20
171.2256
 30
0.0
 10
47.9082
 20
171.2256
 30
0.0
 10
47.9082
 20
171.2256
 30
0.0
 10
47.9082
 20
171.2256
 30
0.0
 10
47.9086
 20
171.2253
 30
0.0
 10
47.9086
 20
171.2253
 30
0.0
 10
47.9086
 20
171.2253
 30
0.0
 10
47.9086
 20
171.2253
 30
0.0
 10
47.9093
 20
171.2253
 30
0.0
 10
47.9093
 20
171.2253
 30
0.0
 10
47.9093
 20
171.2253
 30
0.0
 10
47.9093
 20
171.2253
 30
0.0
 10
47.91
 20
171.2253
 30
0.0
 10
47.91
 20
171.2253
 30
0.0
 10
47.91
 20
171.2253
 30
0.0
 10
47.91
 20
171.2253
 30
0.0
 10
47.9107
 20
171.2253
 30
0.0
 10
47.9107
 20
171.2253
 30
0.0
 10
47.9107
 20
171.2253
 30
0.0
 10
47.9107
 20
171.2253
 30
0.0
 10
47.9114
 20
171.2253
 30
0.0
 10
47.9114
 20
171.2253
 30
0.0
 10
47.9114
 20
171.2253
 30
0.0
 10
47.9114
 20
171.2253
 30
0.0
 10
47.9259
 20
171.2217
 30
0.0
 10
47.9474
 20
171.2168
 30
0.0
 10
47.9474
 20
171.2168
 30
0.0
 10
47.9633
 20
171.2136
 30
0.0
 10
47.9788
 20
171.2094
 30
0.0
 10
47.9961
 20
171.2062
 30
0.0
 10
47.9961
 20
171.2062
 30
0.0
 10
47.9961
 20
171.2062
 30
0.0
 10
47.9968
 20
171.2062
 30
0.0
 10
47.9968
 20
171.2062
 30
0.0
 10
47.9968
 20
171.2062
 30
0.0
 10
48.599
 20
171.076
 30
0.0
 10
49.1976
 20
170.9388
 30
0.0
 10
49.791
 20
170.797
 30
0.0
 10
49.791
 20
170.797
 30
0.0
 10
49.9088
 20
170.7691
 30
0.0
 10
50.026
 20
170.7374
 30
0.0
 10
50.1438
 20
170.7091
 30
0.0
 10
50.1438
 20
170.7091
 30
0.0
 10
50.6197
 20
170.5927
 30
0.0
 10
51.0956
 20
170.4763
 30
0.0
 10
51.5655
 20
170.3532
 30
0.0
 10
51.5655
 20
170.3532
 30
0.0
 10
51.6632
 20
170.3278
 30
0.0
 10
51.7595
 20
170.2999
 30
0.0
 10
51.8569
 20
170.2738
 30
0.0
 10
51.8569
 20
170.2738
 30
0.0
 10
52.3465
 20
170.144
 30
0.0
 10
52.8344
 20
170.0124
 30
0.0
 10
53.3167
 20
169.8759
 30
0.0
 10
53.3167
 20
169.8759
 30
0.0
 10
53.3809
 20
169.8572
 30
0.0
 10
53.4433
 20
169.8378
 30
0.0
 10
53.5079
 20
169.8194
 30
0.0
 10
53.5079
 20
169.8194
 30
0.0
 10
54.0226
 20
169.6716
 30
0.0
 10
54.5362
 20
169.5206
 30
0.0
 10
55.0442
 20
169.3647
 30
0.0
 10
55.0442
 20
169.3647
 30
0.0
 10
55.0735
 20
169.3552
 30
0.0
 10
55.1017
 20
169.346
 30
0.0
 10
55.1303
 20
169.3375
 30
0.0
 10
55.1303
 20
169.3375
 30
0.0
 10
55.6718
 20
169.1703
 30
0.0
 10
56.2112
 20
168.9989
 30
0.0
 10
56.745
 20
168.8221
 30
0.0
 10
56.745
 20
168.8221
 30
0.0
 10
56.7485
 20
168.8204
 30
0.0
 10
56.7527
 20
168.82
 30
0.0
 10
56.7559
 20
168.8183
 30
0.0
 10
56.7559
 20
168.8183
 30
0.0
 10
58.4319
 20
168.2637
 30
0.0
 10
60.0628
 20
167.664
 30
0.0
 10
61.6468
 20
167.0244
 30
0.0
 10
61.6468
 20
167.0244
 30
0.0
 10
61.6475
 20
167.0244
 30
0.0
 10
61.6482
 20
167.0237
 30
0.0
 10
61.6496
 20
167.0233
 30
0.0
 10
61.6496
 20
167.0233
 30
0.0
 10
65.768
 20
165.3575
 30
0.0
 10
69.5589
 20
163.4179
 30
0.0
 10
72.9368
 20
161.2752
 30
0.0
 10
72.9368
 20
161.2752
 30
0.0
 10
76.8642
 20
159.1204
 30
0.0
 10
80.9843
 20
156.5434
 30
0.0
 10
85.0801
 20
153.4915
 30
0.0
 10
85.0801
 20
153.4915
 30
0.0
 10
85.0801
 20
153.4915
 30
0.0
 10
85.0822
 20
153.4943
 30
0.0
 10
85.0822
 20
153.4943
 30
0.0
 10
85.0822
 20
153.4943
 30
0.0
 10
85.5782
 20
153.0995
 30
0.0
 10
86.1659
 20
152.8064
 30
0.0
 10
86.8267
 20
152.6649
 30
0.0
 10
86.8267
 20
152.6649
 30
0.0
 10
89.1141
 20
152.1703
 30
0.0
 10
91.3694
 20
153.6241
 30
0.0
 10
91.8622
 20
155.9122
 30
0.0
 10
91.8622
 20
155.9122
 30
0.0
 10
92.009
 20
156.5952
 30
0.0
 10
91.9843
 20
157.2743
 30
0.0
 10
91.8132
 20
157.9054
 30
0.0
 10
91.8132
 20
157.9054
 30
0.0
 10
91.8132
 20
157.9054
 30
0.0
 10
92.2273
 20
158.3492
 30
0.0
 10
92.2273
 20
158.3492
 30
0.0
 10
92.2273
 20
158.3492
 30
0.0
 10
92.529
 20
158.3891
 30
0.0
 10
92.784
 20
158.4999
 30
0.0
 10
92.9703
 20
158.6942
 30
0.0
 10
92.9703
 20
158.6942
 30
0.0
 10
93.7693
 20
159.5261
 30
0.0
 10
93.0433
 20
161.5161
 30
0.0
 10
91.3493
 20
163.1407
 30
0.0
  0
SPLINE
  5
72
330
1F
100
AcDbEntity
  8
Layer 1
 62
     1
370
     9
100
AcDbSpline
210
0.0
220
0.0
230
1.0
 70
    11
 71
     3
 72
    28
 73
    24
 74
     0
 42
0.0000000001
 43
0.0000000001
 40
0.0
 40
0.0
 40
0.0
 40
0.0
 40
0.1428571428571428
 40
0.1428571428571428
 40
0.1428571428571428
 40
0.1428571428571428
 40
0.2857142857142857
 40
0.2857142857142857
 40
0.2857142857142857
 40
0.2857142857142857
 40
0.4285714285714285
 40
0.4285714285714285
 40
0.4285714285714285
 40
0.4285714285714285
 40
0.5714285714285714
 40
0.5714285714285714
 40
0.5714285714285714
 40
0.5714285714285714
 40
0.7142857142857143
 40
0.7142857142857143
 40
0.7142857142857143
 40
0.7142857142857143
 40
1.0
 40
1.0
 40
1.0
 40
1.0
 10
-231.9349
 20
228.9005
 30
0.0
 10
-233.4617
 20
228.9005
 30
0.0
 10
-234.7
 20
230.1384
 30
0.0
 10
-234.7
 20
231.6653
 30
0.0
 10
-234.7
 20
231.6653
 30
0.0
 10
-234.7
 20
233.1924
 30
0.0
 10
-233.4617
 20
234.4303
 30
0.0
 10
-231.9349
 20
234.4303
 30
0.0
 10
-231.9349
 20
234.4303
 30
0.0
 10
-231.9349
 20
234.4303
 30
0.0
 10
-229.9244
 20
234.4303
 30
0.0
 10
-229.9244
 20
234.4303
 30
0.0
 10
-229.9244
 20
234.4303
 30
0.0
 10
-228.3969
 20
234.4303
 30
0.0
 10
-227.1593
 20
233.1924
 30
0.0
 10
-227.1593
 20
231.6653
 30
0.0
 10
-227.1593
 20
231.6653
 30
0.0
 10
-227.1593
 20
230.1384
 30
0.0
 10
-228.3969
 20
228.9005
 30
0.0
 10
-229.9244
 20
228.9005
 30
0.0
 10
-229.9244
 20
228.9005
 30
0.0
 10
-229.9244
 20
228.9005
 30
0.0
 10
-231.9349
 20
228.9005
 30
0.0
 10
-231.9349
 20
228.9005
 30
0.0
  0
SPLINE
  5
73
330
1F
100
AcDbEntity
  8
Layer 1
 62
     1
370
     9
100
AcDbSpline
210
0.0
220
0.0
230
1.0
 70
    11
 71
     3
 72
    28
 73
    24
 74
     0
 42
0.0000000001
 43
0.0000000001
 40
0.0
 40
0.0
 40
0.0
 40
0.0
 40
0.1428571428571428
 40
0.1428571428571428
 40
0.1428571428571428
 40
0.1428571428571428
 40
0.2857142857142857
 40
0.2857142857142857
 40
0.2857142857142857
 40
0.2857142857142857
 40
0.4285714285714285
 40
0.4285714285714285
 40
0.4285714285714285
 40
0.4285714285714285
 40
0.5714285714285714
 40
0.5714285714285714
 40
0.5714285714285714
 40
0.5714285714285714
 40
0.7142857142857143
 40
0.7142857142857143
 40
0.7142857142857143
 40
0.7142857142857143
 40
1.0
 40
1.0
 40
1.0
 40
1.0
 10
-169.5995
 20
228.9005
 30
0.0
 10
-169.5995
 20
228.9005
 30
0.0
 10
-171.61
 20
228.9005
 30
0.0
 10
-171.61
 20
228.9005
 30
0.0
 10
-171.61
 20
228.9005
 30
0.0
 10
-173.1365
 20
228.9005
 30
0.0
 10
-174.3751
 20
230.1384
 30
0.0
 10
-174.3751
 20
231.6653
 30
0.0
 10
-174.3751
 20
231.6653
 30
0.0
 10
-174.3751
 20
233.1924
 30
0.0
 10
-173.1365
 20
234.4303
 30
0.0
 10
-171.61
 20
234.4303
 30
0.0
 10
-171.61
 20
234.4303
 30
0.0
 10
-171.61
 20
234.4303
 30
0.0
 10
-169.5995
 20
234.4303
 30
0.0
 10
-169.5995
 20
234.4303
 30
0.0
 10
-169.5995
 20
234.4303
 30
0.0
 10
-168.0727
 20
234.4303
 30
0.0
 10
-166.8345
 20
233.1924
 30
0.0
 10
-166.8345
 20
231.6653
 30
0.0
 10
-166.8345
 20
231.6653
 30
0.0
 10
-166.8345
 20
230.1384
 30
0.0
 10
-168.0727
 20
228.9005
 30
0.0
 10
-169.5995
 20
228.9005
 30
0.0
  0
SPLINE
  5
74
330
1F
100
AcDbEntity
  8
Layer 1
 62
     1
370
     9
100
AcDbSpline
210
0.0
220
0.0
230
1.0
 70
    11
 71
     3
 72
    28
 73
    24
 74
     0
 42
0.0000000001
 43
0.0000000001
 40
0.0
 40
0.0
 40
0.0
 40
0.0
 40
0.1428571428571428
 40
0.1428571428571428
 40
0.1428571428571428
 40
0.1428571428571428
 40
0.2857142857142857
 40
0.2857142857142857
 40
0.2857142857142857
 40
0.2857142857142857
 40
0.4285714285714285
 40
0.4285714285714285
 40
0.4285714285714285
 40
0.4285714285714285
 40
0.5714285714285714
 40
0.5714285714285714
 40
0.5714285714285714
 40
0.5714285714285714
 40
0.7142857142857143
 40
0.7142857142857143
 40
0.7142857142857143
 40
0.7142857142857143
 40
1.0
 40
1.0
 40
1.0
 40
1.0
 10
-92.182
 20
234.4303
 30
0.0
 10
-92.182
 20
234.4303
 30
0.0
 10
-90.1715
 20
234.4303
 30
0.0
 10
-90.1715
 20
234.4303
 30
0.0
 10
-90.1715
 20
234.4303
 30
0.0
 10
-88.6447
 20
234.4303
 30
0.0
 10
-87.4065
 20
233.1924
 30
0.0
 10
-87.4065
 20
231.6652
 30
0.0
 10
-87.4065
 20
231.6652
 30
0.0
 10
-87.4065
 20
230.1384
 30
0.0
 10
-88.6447
 20
228.9005
 30
0.0
 10
-90.1715
 20
228.9005
 30
0.0
 10
-90.1715
 20
228.9005
 30
0.0
 10
-90.1715
 20
228.9005
 30
0.0
 10
-92.182
 20
228.9005
 30
0.0
 10
-92.182
 20
228.9005
 30
0.0
 10
-92.182
 20
228.9005
 30
0.0
 10
-93.7095
 20
228.9005
 30
0.0
 10
-94.9471
 20
230.1384
 30
0.0
 10
-94.9471
 20
231.6652
 30
0.0
 10
-94.9471
 20
231.6652
 30
0.0
 10
-94.9471
 20
233.1924
 30
0.0
 10
-93.7095
 20
234.4303
 30
0.0
 10
-92.182
 20
234.4303
 30
0.0
  0
SPLINE
  5
75
330
1F
100
AcDbEntity
  8
Layer 1
 62
     1
370
     9
100
AcDbSpline
210
0.0
220
0.0
230
1.0
 70
    11
 71
     3
 72
    28
 73
    24
 74
     0
 42
0.0000000001
 43
0.0000000001
 40
0.0
 40
0.0
 40
0.0
 40
0.0
 40
0.1428571428571428
 40
0.1428571428571428
 40
0.1428571428571428
 40
0.1428571428571428
 40
0.2857142857142857
 40
0.2857142857142857
 40
0.2857142857142857
 40
0.2857142857142857
 40
0.4285714285714285
 40
0.4285714285714285
 40
0.4285714285714285
 40
0.4285714285714285
 40
0.5714285714285714
 40
0.5714285714285714
 40
0.5714285714285714
 40
0.5714285714285714
 40
0.7142857142857143
 40
0.7142857142857143
 40
0.7142857142857143
 40
0.7142857142857143
 40
1.0
 40
1.0
 40
1.0
 40
1.0
 10
-309.3524
 20
234.4303
 30
0.0
 10
-307.8249
 20
234.4303
 30
0.0
 10
-306.5873
 20
233.1924
 30
0.0
 10
-306.5873
 20
231.6652
 30
0.0
 10
-306.5873
 20
231.6652
 30
0.0
 10
-306.5873
 20
230.1384
 30
0.0
 10
-307.8249
 20
228.9005
 30
0.0
 10
-309.3524
 20
228.9005
 30
0.0
 10
-309.3524
 20
228.9005
 30
0.0
 10
-309.3524
 20
228.9005
 30
0.0
 10
-311.3629
 20
228.9005
 30
0.0
 10
-311.3629
 20
228.9005
 30
0.0
 10
-311.3629
 20
228.9005
 30
0.0
 10
-312.8897
 20
228.9005
 30
0.0
 10
-314.128
 20
230.1384
 30
0.0
 10
-314.128
 20
231.6652
 30
0.0
 10
-314.128
 20
231.6652
 30
0.0
 10
-314.128
 20
233.1924
 30
0.0
 10
-312.8897
 20
234.4303
 30
0.0
 10
-311.3629
 20
234.4303
 30
0.0
 10
-311.3629
 20
234.4303
 30
0.0
 10
-311.3629
 20
234.4303
 30
0.0
 10
-309.3524
 20
234.4303
 30
0.0
 10
-309.3524
 20
234.4303
 30
0.0
  0
ENDSEC
  0
SECTION
  2
OBJECTS
  0
DICTIONARY
  5
C
330
0
100
AcDbDictionary
281
     1
  3
ACAD_GROUP
350
D
  3
ACAD_LAYOUT
350
1A
  3
ACAD_MATERIAL
350
3B
  3
ACAD_MLEADERSTYLE
350
97
  3
ACAD_MLINESTYLE
350
17
  3
ACAD_PLOTSETTINGS
350
19
  3
ACAD_PLOTSTYLENAME
350
E
  3
ACAD_TABLESTYLE
350
96
  3
ACAD_VISUALSTYLE
350
2A
  0
DICTIONARY
  5
D
102
{ACAD_REACTORS
330
C
102
}
330
C
100
AcDbDictionary
281
     1
  0
DICTIONARY
  5
1A
102
{ACAD_REACTORS
330
C
102
}
330
C
100
AcDbDictionary
281
     1
  3
Layout1
350
1E
  3
Layout2
350
26
  3
Model
350
22
  0
DICTIONARY
  5
3B
102
{ACAD_REACTORS
330
C
102
}
330
C
100
AcDbDictionary
281
     1
  3
ByBlock
350
3D
  3
ByLayer
350
3C
  3
Global
350
3E
  0
DICTIONARY
  5
97
102
{ACAD_REACTORS
330
C
102
}
330
C
100
AcDbDictionary
281
     1
  0
DICTIONARY
  5
17
102
{ACAD_REACTORS
330
C
102
}
330
C
100
AcDbDictionary
281
     1
  3
Standard
350
18
  0
DICTIONARY
  5
19
102
{ACAD_REACTORS
330
C
102
}
330
C
100
AcDbDictionary
281
     1
  0
ACDBDICTIONARYWDFLT
  5
E
102
{ACAD_REACTORS
330
C
102
}
330
C
100
AcDbDictionary
281
     1
  3
Normal
350
F
100
AcDbDictionaryWithDefault
340
F
  0
DICTIONARY
  5
96
102
{ACAD_REACTORS
330
C
102
}
330
C
100
AcDbDictionary
281
     1
  0
DICTIONARY
  5
2A
102
{ACAD_REACTORS
330
C
102
}
330
C
100
AcDbDictionary
281
     1
  3
2dWireframe
350
2F
  3
3D Hidden
350
31
  3
3dWireframe
350
30
  3
Basic
350
32
  3
Brighten
350
36
  3
ColorChange
350
3A
  3
Conceptual
350
34
  3
Dim
350
35
  3
Facepattern
350
39
  3
Flat
350
2B
  3
FlatWithEdges
350
2C
  3
Gouraud
350
2D
  3
GouraudWithEdges
350
2E
  3
Linepattern
350
38
  3
Realistic
350
33
  3
Thicken
350
37
  0
LAYOUT
  5
1E
102
{ACAD_REACTORS
330
1A
102
}
330
1A
100
AcDbPlotSettings
  1

  2
none_device
  4

  6

 40
0.0
 41
0.0
 42
0.0
 43
0.0
 44
0.0
 45
0.0
 46
0.0
 47
0.0
 48
0.0
 49
0.0
140
0.0
141
0.0
142
1.0
143
1.0
 70
   688
 72
     0
 73
     0
 74
     5
  7

 75
    16
 76
     0
 77
     2
 78
   300
147
1.0
148
0.0
149
0.0
100
AcDbLayout
  1
Layout1
 70
     1
 71
     1
 10
0.0
 20
0.0
 11
12.0
 21
9.0
 12
0.0
 22
0.0
 32
0.0
 14
1.000000000000000E+20
 24
1.000000000000000E+20
 34
1.000000000000000E+20
 15
-1.000000000000000E+20
 25
-1.000000000000000E+20
 35
-1.000000000000000E+20
146
0.0
 13
0.0
 23
0.0
 33
0.0
 16
1.0
 26
0.0
 36
0.0
 17
0.0
 27
1.0
 37
0.0
 76
     0
330
1B
  0
LAYOUT
  5
26
102
{ACAD_REACTORS
330
1A
102
}
330
1A
100
AcDbPlotSettings
  1

  2
none_device
  4

  6

 40
0.0
 41
0.0
 42
0.0
 43
0.0
 44
0.0
 45
0.0
 46
0.0
 47
0.0
 48
0.0
 49
0.0
140
0.0
141
0.0
142
1.0
143
1.0
 70
   688
 72
     0
 73
     0
 74
     5
  7

 75
    16
 76
     0
 77
     2
 78
   300
147
1.0
148
0.0
149
0.0
100
AcDbLayout
  1
Layout2
 70
     1
 71
     2
 10
0.0
 20
0.0
 11
0.0
 21
0.0
 12
0.0
 22
0.0
 32
0.0
 14
0.0
 24
0.0
 34
0.0
 15
0.0
 25
0.0
 35
0.0
146
0.0
 13
0.0
 23
0.0
 33
0.0
 16
1.0
 26
0.0
 36
0.0
 17
0.0
 27
1.0
 37
0.0
 76
     0
330
23
  0
LAYOUT
  5
22
102
{ACAD_REACTORS
330
1A
102
}
330
1A
100
AcDbPlotSettings
  1

  2
none_device
  4

  6

 40
0.0
 41
0.0
 42
0.0
 43
0.0
 44
0.0
 45
0.0
 46
0.0
 47
0.0
 48
0.0
 49
0.0
140
0.0
141
0.0
142
1.0
143
1.0
 70
  1712
 72
     0
 73
     0
 74
     0
  7

 75
     0
 76
     0
 77
     2
 78
   300
147
1.0
148
0.0
149
0.0
100
AcDbLayout
  1
Model
 70
     1
 71
     0
 10
0.0
 20
0.0
 11
12.0
 21
9.0
 12
0.0
 22
0.0
 32
0.0
 14
-399.5934
 24
16.5752
 34
0.0
 15
380.103
 25
249.4075
 35
0.0
146
0.0
 13
0.0
 23
0.0
 33
0.0
 16
1.0
 26
0.0
 36
0.0
 17
0.0
 27
1.0
 37
0.0
 76
     0
330
1F
331
29
  0
MATERIAL
  5
3D
102
{ACAD_REACTORS
330
3B
102
}
330
3B
100
AcDbMaterial
  1
ByBlock
 72
     1
 94
      127
  0
MATERIAL
  5
3C
102
{ACAD_REACTORS
330
3B
102
}
330
3B
100
AcDbMaterial
  1
ByLayer
 72
     1
 94
      127
  0
MATERIAL
  5
3E
102
{ACAD_REACTORS
330
3B
102
}
330
3B
100
AcDbMaterial
  1
Global
 72
     1
 94
      127
  0
MLINESTYLE
  5
18
102
{ACAD_REACTORS
330
17
102
}
330
17
100
AcDbMlineStyle
  2
Standard
 70
     0
  3

 62
   256
 51
90.0
 52
90.0
 71
     2
 49
0.5
 62
   256
  6
BYLAYER
 49
-0.5
 62
   256
  6
BYLAYER
  0
ACDBPLACEHOLDER
  5
F
102
{ACAD_REACTORS
330
E
102
}
330
E
  0
VISUALSTYLE
  5
2F
102
{ACAD_REACTORS
330
2A
102
}
102
{ACAD_XDICTIONARY
360
7E
102
}
330
2A
100
AcDbVisualStyle
  2
2dWireframe
 70
     4
 71
     0
 72
     2
 73
     0
 90
        0
 40
-0.6
 41
-30.0
 62
     5
 63
     7
421
 16777215
 74
     1
 91
        4
 64
     7
 65
   257
 75
     1
175
     1
 42
1.0
 92
        0
 66
   257
 43
1.0
 76
     1
 77
     6
 78
     2
 67
     7
 79
     5
170
     0
171
     0
290
     0
174
     0
 93
        1
 44
0.0
173
     0
291
     0
 45
0.0
  0
VISUALSTYLE
  5
31
102
{ACAD_REACTORS
330
2A
102
}
102
{ACAD_XDICTIONARY
360
82
102
}
330
2A
100
AcDbVisualStyle
  2
3D Hidden
 70
     6
 71
     1
 72
     2
 73
     2
 90
        0
 40
-0.6
 41
-30.0
 62
     5
 63
     7
421
 16777215
 74
     2
 91
        2
 64
     7
 65
   257
 75
     2
175
     1
 42
40.0
 92
        0
 66
   257
 43
1.0
 76
     1
 77
     6
 78
     2
 67
     7
 79
     3
170
     0
171
     0
290
     0
174
     0
 93
        1
 44
0.0
173
     0
291
     0
 45
0.0
  0
VISUALSTYLE
  5
30
102
{ACAD_REACTORS
330
2A
102
}
102
{ACAD_XDICTIONARY
360
80
102
}
330
2A
100
AcDbVisualStyle
  2
3dWireframe
 70
     5
 71
     0
 72
     2
 73
     0
 90
        0
 40
-0.6
 41
-30.0
 62
     5
 63
     7
421
 16777215
 74
     1
 91
        4
 64
     7
 65
   257
 75
     1
175
     1
 42
1.0
 92
        0
 66
   257
 43
1.0
 76
     1
 77
     6
 78
     2
 67
     7
 79
     5
170
     0
171
     0
290
     0
174
     0
 93
        1
 44
0.0
173
     0
291
     0
 45
0.0
  0
VISUALSTYLE
  5
32
102
{ACAD_REACTORS
330
2A
102
}
102
{ACAD_XDICTIONARY
360
84
102
}
330
2A
100
AcDbVisualStyle
  2
Basic
 70
     7
 71
     1
 72
     0
 73
     1
 90
        0
 40
-0.6
 41
-30.0
 62
     5
 63
     7
421
 16777215
 74
     0
 91
        4
 64
     7
 65
   257
 75
     1
175
     1
 42
1.0
 92
        8
 66
     7
 43
1.0
 76
     1
 77
     6
 78
     2
 67
     7
 79
     5
170
     0
171
     0
290
     0
174
     0
 93
        1
 44
0.0
173
     0
291
     1
 45
0.0
  0
VISUALSTYLE
  5
36
102
{ACAD_REACTORS
330
2A
102
}
102
{ACAD_XDICTIONARY
360
8C
102
}
330
2A
100
AcDbVisualStyle
  2
Brighten
 70
    12
 71
     2
 72
     2
 73
     0
 90
        0
 40
-0.6
 41
-30.0
 62
     5
 63
     7
421
 16777215
 74
     1
 91
        4
 64
     7
 65
   257
 75
     1
175
     1
 42
1.0
 92
        8
 66
     7
 43
1.0
 76
     1
 77
     6
 78
     2
 67
     7
 79
     5
170
     0
171
     0
290
     0
174
     0
 93
        1
 44
50.0
173
     0
291
     1
 45
0.0
  0
VISUALSTYLE
  5
3A
102
{ACAD_REACTORS
330
2A
102
}
102
{ACAD_XDICTIONARY
360
94
102
}
330
2A
100
AcDbVisualStyle
  2
ColorChange
 70
    16
 71
     2
 72
     2
 73
     3
 90
        0
 40
-0.6
 41
-30.0
 62
     5
 63
     8
421
  8421504
 74
     1
 91
        4
 64
     7
 65
   257
 75
     1
175
     1
 42
1.0
 92
        8
 66
     8
424
  8421504
 43
1.0
 76
     1
 77
     6
 78
     2
 67
     7
 79
     5
170
     0
171
     0
290
     0
174
     0
 93
        1
 44
0.0
173
     0
291
     1
 45
0.0
  0
VISUALSTYLE
  5
34
102
{ACAD_REACTORS
330
2A
102
}
102
{ACAD_XDICTIONARY
360
88
102
}
330
2A
100
AcDbVisualStyle
  2
Conceptual
 70
     9
 71
     3
 72
     2
 73
     0
 90
        0
 40
-0.6
 41
-30.0
 62
     5
 63
     7
421
 16777215
 74
     2
 91
        2
 64
     7
 65
   257
 75
     1
175
     1
 42
40.0
 92
        8
 66
     7
 43
1.0
 76
     1
 77
     6
 78
     2
 67
     7
 79
     3
170
     0
171
     0
290
     0
174
     0
 93
        1
 44
0.0
173
     0
291
     0
 45
0.0
  0
VISUALSTYLE
  5
35
102
{ACAD_REACTORS
330
2A
102
}
102
{ACAD_XDICTIONARY
360
8A
102
}
330
2A
100
AcDbVisualStyle
  2
Dim
 70
    11
 71
     2
 72
     2
 73
     0
 90
        0
 40
-0.6
 41
-30.0
 62
     5
 63
     7
421
 16777215
 74
     1
 91
        4
 64
     7
 65
   257
 75
     1
175
     1
 42
1.0
 92
        8
 66
     7
 43
1.0
 76
     1
 77
     6
 78
     2
 67
     7
 79
     5
170
     0
171
     0
290
     0
174
     0
 93
        1
 44
-50.0
173
     0
291
     1
 45
0.0
  0
VISUALSTYLE
  5
39
102
{ACAD_REACTORS
330
2A
102
}
102
{ACAD_XDICTIONARY
360
92
102
}
330
2A
100
AcDbVisualStyle
  2
Facepattern
 70
    15
 71
     2
 72
     2
 73
     0
 90
        0
 40
-0.6
 41
-30.0
 62
     5
 63
     7
421
 16777215
 74
     1
 91
        4
 64
     7
 65
   257
 75
     1
175
     1
 42
1.0
 92
        8
 66
     7
 43
1.0
 76
     1
 77
     6
 78
     2
 67
     7
 79
     5
170
     0
171
     0
290
     0
174
     0
 93
        1
 44
0.0
173
     0
291
     1
 45
0.0
  0
VISUALSTYLE
  5
2B
102
{ACAD_REACTORS
330
2A
102
}
102
{ACAD_XDICTIONARY
360
76
102
}
330
2A
100
AcDbVisualStyle
  2
Flat
 70
     0
 71
     2
 72
     1
 73
     1
 90
        2
 40
-0.6
 41
30.0
 62
     5
 63
     7
421
 16777215
 74
     0
 91
        4
 64
     7
 65
   257
 75
     1
175
     1
 42
1.0
 92
        8
 66
     7
 43
1.0
 76
     1
 77
     6
 78
     2
 67
     7
 79
     5
170
     0
171
     0
290
     0
174
     0
 93
       13
 44
0.0
173
     0
291
     1
 45
0.0
  0
VISUALSTYLE
  5
2C
102
{ACAD_REACTORS
330
2A
102
}
102
{ACAD_XDICTIONARY
360
78
102
}
330
2A
100
AcDbVisualStyle
  2
FlatWithEdges
 70
     1
 71
     2
 72
     1
 73
     1
 90
        2
 40
-0.6
 41
30.0
 62
     5
 63
     7
421
 16777215
 74
     1
 91
        4
 64
     7
 65
   257
 75
     1
175
     1
 42
1.0
 92
        0
 66
   257
 43
1.0
 76
     1
 77
     6
 78
     2
 67
     7
 79
     5
170
     0
171
     0
290
     0
174
     0
 93
       13
 44
0.0
173
     0
291
     1
 45
0.0
  0
VISUALSTYLE
  5
2D
102
{ACAD_REACTORS
330
2A
102
}
102
{ACAD_XDICTIONARY
360
7A
102
}
330
2A
100
AcDbVisualStyle
  2
Gouraud
 70
     2
 71
     2
 72
     2
 73
     1
 90
        2
 40
-0.6
 41
30.0
 62
     5
 63
     7
421
 16777215
 74
     0
 91
        4
 64
     7
 65
   257
 75
     1
175
     1
 42
1.0
 92
        0
 66
     7
 43
1.0
 76
     1
 77
     6
 78
     2
 67
     7
 79
     5
170
     0
171
     0
290
     0
174
     0
 93
       13
 44
0.0
173
     0
291
     1
 45
0.0
  0
VISUALSTYLE
  5
2E
102
{ACAD_REACTORS
330
2A
102
}
102
{ACAD_XDICTIONARY
360
7C
102
}
330
2A
100
AcDbVisualStyle
  2
GouraudWithEdges
 70
     3
 71
     2
 72
     2
 73
     1
 90
        2
 40
-0.6
 41
30.0
 62
     5
 63
     7
421
 16777215
 74
     1
 91
        4
 64
     7
 65
   257
 75
     1
175
     1
 42
1.0
 92
        0
 66
   257
 43
1.0
 76
     1
 77
     6
 78
     2
 67
     7
 79
     5
170
     0
171
     0
290
     0
174
     0
 93
       13
 44
0.0
173
     0
291
     1
 45
0.0
  0
VISUALSTYLE
  5
38
102
{ACAD_REACTORS
330
2A
102
}
102
{ACAD_XDICTIONARY
360
90
102
}
330
2A
100
AcDbVisualStyle
  2
Linepattern
 70
    14
 71
     2
 72
     2
 73
     0
 90
        0
 40
-0.6
 41
-30.0
 62
     5
 63
     7
421
 16777215
 74
     1
 91
        4
 64
     7
 65
   257
 75
     7
175
     7
 42
1.0
 92
        8
 66
     7
 43
1.0
 76
     1
 77
     6
 78
     2
 67
     7
 79
     5
170
     0
171
     0
290
     0
174
     0
 93
        1
 44
0.0
173
     0
291
     1
 45
0.0
  0
VISUALSTYLE
  5
33
102
{ACAD_REACTORS
330
2A
102
}
102
{ACAD_XDICTIONARY
360
86
102
}
330
2A
100
AcDbVisualStyle
  2
Realistic
 70
     8
 71
     2
 72
     2
 73
     0
 90
        0
 40
-0.6
 41
-30.0
 62
     5
 63
     7
421
 16777215
 74
     1
 91
        0
 64
     7
 65
   257
 75
     1
175
     1
 42
1.0
 92
        8
 66
     8
424
  7895160
 43
1.0
 76
     1
 77
     6
 78
     2
 67
     7
 79
     5
170
     0
171
     0
290
     0
174
     0
 93
       13
 44
0.0
173
     0
291
     0
 45
0.0
  0
VISUALSTYLE
  5
37
102
{ACAD_REACTORS
330
2A
102
}
102
{ACAD_XDICTIONARY
360
8E
102
}
330
2A
100
AcDbVisualStyle
  2
Thicken
 70
    13
 71
     2
 72
     2
 73
     0
 90
        0
 40
-0.6
 41
-30.0
 62
     5
 63
     7
421
 16777215
 74
     1
 91
        4
 64
     7
 65
   257
 75
     1
175
     1
 42
1.0
 92
       12
 66
     7
 43
1.0
 76
     1
 77
     6
 78
     2
 67
     7
 79
     5
170
     0
171
     0
290
     0
174
     0
 93
        1
 44
0.0
173
     0
291
     1
 45
0.0
  0
DICTIONARY
  5
7E
330
2F
100
AcDbDictionary
280
     1
281
     1
  3
ACAD_XREC_ROUNDTRIP
360
7F
  0
DICTIONARY
  5
82
330
31
100
AcDbDictionary
280
     1
281
     1
  3
ACAD_XREC_ROUNDTRIP
360
83
  0
DICTIONARY
  5
80
330
30
100
AcDbDictionary
280
     1
281
     1
  3
ACAD_XREC_ROUNDTRIP
360
81
  0
DICTIONARY
  5
84
330
32
100
AcDbDictionary
280
     1
281
     1
  3
ACAD_XREC_ROUNDTRIP
360
85
  0
DICTIONARY
  5
8C
330
36
100
AcDbDictionary
280
     1
281
     1
  3
ACAD_XREC_ROUNDTRIP
360
8D
  0
DICTIONARY
  5
94
330
3A
100
AcDbDictionary
280
     1
281
     1
  3
ACAD_XREC_ROUNDTRIP
360
95
  0
DICTIONARY
  5
88
330
34
100
AcDbDictionary
280
     1
281
     1
  3
ACAD_XREC_ROUNDTRIP
360
89
  0
DICTIONARY
  5
8A
330
35
100
AcDbDictionary
280
     1
281
     1
  3
ACAD_XREC_ROUNDTRIP
360
8B
  0
DICTIONARY
  5
92
330
39
100
AcDbDictionary
280
     1
281
     1
  3
ACAD_XREC_ROUNDTRIP
360
93
  0
DICTIONARY
  5
76
330
2B
100
AcDbDictionary
280
     1
281
     1
  3
ACAD_XREC_ROUNDTRIP
360
77
  0
DICTIONARY
  5
78
330
2C
100
AcDbDictionary
280
     1
281
     1
  3
ACAD_XREC_ROUNDTRIP
360
79
  0
DICTIONARY
  5
7A
330
2D
100
AcDbDictionary
280
     1
281
     1
  3
ACAD_XREC_ROUNDTRIP
360
7B
  0
DICTIONARY
  5
7C
330
2E
100
AcDbDictionary
280
     1
281
     1
  3
ACAD_XREC_ROUNDTRIP
360
7D
  0
DICTIONARY
  5
90
330
38
100
AcDbDictionary
280
     1
281
     1
  3
ACAD_XREC_ROUNDTRIP
360
91
  0
DICTIONARY
  5
86
330
33
100
AcDbDictionary
280
     1
281
     1
  3
ACAD_XREC_ROUNDTRIP
360
87
  0
DICTIONARY
  5
8E
330
37
100
AcDbDictionary
280
     1
281
     1
  3
ACAD_XREC_ROUNDTRIP
360
8F
  0
XRECORD
  5
7F
102
{ACAD_REACTORS
330
7E
102
}
330
7E
100
AcDbXrecord
280
     1
102
RTVSPropertyOp0
 70
     1
102
RTVSPropertyOp1
 70
     1
102
RTVSPropertyOp2
 70
     1
102
RTVSPropertyOp3
 70
     1
102
RTVSPropertyOp4
 70
     1
102
RTVSPropertyOp5
 70
     1
102
RTVSPropertyOp6
 70
     1
102
RTVSPropertyOp7
 70
     1
102
RTVSPropertyOp8
 70
     1
102
RTVSPropertyOp9
 70
     1
102
RTVSPropertyOp10
 70
     1
102
RTVSPropertyOp11
 70
     1
102
RTVSPropertyOp12
 70
     1
102
RTVSPropertyOp13
 70
     1
102
RTVSPropertyOp14
 70
     1
102
RTVSPropertyOp15
 70
     1
102
RTVSPropertyOp16
 70
     1
102
RTVSPropertyOp17
 70
     1
102
RTVSPropertyOp18
 70
     1
102
RTVSPropertyOp19
 70
     1
102
RTVSPropertyOp20
 70
     1
102
RTVSPropertyOp21
 70
     1
102
RTVSPropertyOp22
 70
     1
102
RTVSPropertyOp23
 70
     1
102
RTVSPropertyOp24
 70
     1
102
RTVSPropertyOp25
 70
     1
102
RTVSPropertyOp26
 70
     1
102
RTVSPropertyOp27
 70
     1
  0
XRECORD
  5
83
102
{ACAD_REACTORS
330
82
102
}
330
82
100
AcDbXrecord
280
     1
102
RTVSPropertyOp0
 70
     1
102
RTVSPropertyOp1
 70
     1
102
RTVSPropertyOp2
 70
     1
102
RTVSPropertyOp3
 70
     1
102
RTVSPropertyOp4
 70
     1
102
RTVSPropertyOp5
 70
     1
102
RTVSPropertyOp6
 70
     1
102
RTVSPropertyOp7
 70
     1
102
RTVSPropertyOp8
 70
     1
102
RTVSPropertyOp9
 70
     1
102
RTVSPropertyOp10
 70
     1
102
RTVSPropertyOp11
 70
     1
102
RTVSPropertyOp12
 70
     1
102
RTVSPropertyOp13
 70
     1
102
RTVSPropertyOp14
 70
     1
102
RTVSPropertyOp15
 70
     1
102
RTVSPropertyOp16
 70
     1
102
RTVSPropertyOp17
 70
     1
102
RTVSPropertyOp18
 70
     1
102
RTVSPropertyOp19
 70
     1
102
RTVSPropertyOp20
 70
     1
102
RTVSPropertyOp21
 70
     1
102
RTVSPropertyOp22
 70
     1
102
RTVSPropertyOp23
 70
     1
102
RTVSPropertyOp24
 70
     1
102
RTVSPropertyOp25
 70
     1
102
RTVSPropertyOp26
 70
     1
102
RTVSPropertyOp27
 70
     1
  0
XRECORD
  5
81
102
{ACAD_REACTORS
330
80
102
}
330
80
100
AcDbXrecord
280
     1
102
RTVSPropertyOp0
 70
     1
102
RTVSPropertyOp1
 70
     1
102
RTVSPropertyOp2
 70
     1
102
RTVSPropertyOp3
 70
     1
102
RTVSPropertyOp4
 70
     1
102
RTVSPropertyOp5
 70
     1
102
RTVSPropertyOp6
 70
     1
102
RTVSPropertyOp7
 70
     1
102
RTVSPropertyOp8
 70
     1
102
RTVSPropertyOp9
 70
     1
102
RTVSPropertyOp10
 70
     1
102
RTVSPropertyOp11
 70
     1
102
RTVSPropertyOp12
 70
     1
102
RTVSPropertyOp13
 70
     1
102
RTVSPropertyOp14
 70
     1
102
RTVSPropertyOp15
 70
     1
102
RTVSPropertyOp16
 70
     1
102
RTVSPropertyOp17
 70
     1
102
RTVSPropertyOp18
 70
     1
102
RTVSPropertyOp19
 70
     1
102
RTVSPropertyOp20
 70
     1
102
RTVSPropertyOp21
 70
     1
102
RTVSPropertyOp22
 70
     1
102
RTVSPropertyOp23
 70
     1
102
RTVSPropertyOp24
 70
     1
102
RTVSPropertyOp25
 70
     1
102
RTVSPropertyOp26
 70
     1
102
RTVSPropertyOp27
 70
     1
  0
XRECORD
  5
85
102
{ACAD_REACTORS
330
84
102
}
330
84
100
AcDbXrecord
280
     1
102
RTVSPropertyOp0
 70
     1
102
RTVSPropertyOp1
 70
     1
102
RTVSPropertyOp2
 70
     1
102
RTVSPropertyOp3
 70
     1
102
RTVSPropertyOp4
 70
     1
102
RTVSPropertyOp5
 70
     1
102
RTVSPropertyOp6
 70
     1
102
RTVSPropertyOp7
 70
     1
102
RTVSPropertyOp8
 70
     1
102
RTVSPropertyOp9
 70
     1
102
RTVSPropertyOp10
 70
     1
102
RTVSPropertyOp11
 70
     1
102
RTVSPropertyOp12
 70
     1
102
RTVSPropertyOp13
 70
     1
102
RTVSPropertyOp14
 70
     1
102
RTVSPropertyOp15
 70
     1
102
RTVSPropertyOp16
 70
     1
102
RTVSPropertyOp17
 70
     1
102
RTVSPropertyOp18
 70
     1
102
RTVSPropertyOp19
 70
     1
102
RTVSPropertyOp20
 70
     1
102
RTVSPropertyOp21
 70
     1
102
RTVSPropertyOp22
 70
     1
102
RTVSPropertyOp23
 70
     1
102
RTVSPropertyOp24
 70
     1
102
RTVSPropertyOp25
 70
     1
102
RTVSPropertyOp26
 70
     1
102
RTVSPropertyOp27
 70
     1
  0
XRECORD
  5
8D
102
{ACAD_REACTORS
330
8C
102
}
330
8C
100
AcDbXrecord
280
     1
102
RTVSPropertyOp0
 70
     1
102
RTVSPropertyOp1
 70
     1
102
RTVSPropertyOp2
 70
     1
102
RTVSPropertyOp3
 70
     1
102
RTVSPropertyOp4
 70
     1
102
RTVSPropertyOp5
 70
     1
102
RTVSPropertyOp6
 70
     1
102
RTVSPropertyOp7
 70
     1
102
RTVSPropertyOp8
 70
     1
102
RTVSPropertyOp9
 70
     1
102
RTVSPropertyOp10
 70
     1
102
RTVSPropertyOp11
 70
     1
102
RTVSPropertyOp12
 70
     1
102
RTVSPropertyOp13
 70
     1
102
RTVSPropertyOp14
 70
     1
102
RTVSPropertyOp15
 70
     1
102
RTVSPropertyOp16
 70
     1
102
RTVSPropertyOp17
 70
     1
102
RTVSPropertyOp18
 70
     1
102
RTVSPropertyOp19
 70
     1
102
RTVSPropertyOp20
 70
     1
102
RTVSPropertyOp21
 70
     1
102
RTVSPropertyOp22
 70
     1
102
RTVSPropertyOp23
 70
     1
102
RTVSPropertyOp24
 70
     1
102
RTVSPropertyOp25
 70
     1
102
RTVSPropertyOp26
 70
     1
102
RTVSPropertyOp27
 70
     1
  0
XRECORD
  5
95
102
{ACAD_REACTORS
330
94
102
}
330
94
100
AcDbXrecord
280
     1
102
RTVSPropertyOp0
 70
     1
102
RTVSPropertyOp1
 70
     1
102
RTVSPropertyOp2
 70
     1
102
RTVSPropertyOp3
 70
     1
102
RTVSPropertyOp4
 70
     1
102
RTVSPropertyOp5
 70
     1
102
RTVSPropertyOp6
 70
     1
102
RTVSPropertyOp7
 70
     1
102
RTVSPropertyOp8
 70
     1
102
RTVSPropertyOp9
 70
     1
102
RTVSPropertyOp10
 70
     1
102
RTVSPropertyOp11
 70
     1
102
RTVSPropertyOp12
 70
     1
102
RTVSPropertyOp13
 70
     1
102
RTVSPropertyOp14
 70
     1
102
RTVSPropertyOp15
 70
     1
102
RTVSPropertyOp16
 70
     1
102
RTVSPropertyOp17
 70
     1
102
RTVSPropertyOp18
 70
     1
102
RTVSPropertyOp19
 70
     1
102
RTVSPropertyOp20
 70
     1
102
RTVSPropertyOp21
 70
     1
102
RTVSPropertyOp22
 70
     1
102
RTVSPropertyOp23
 70
     1
102
RTVSPropertyOp24
 70
     1
102
RTVSPropertyOp25
 70
     1
102
RTVSPropertyOp26
 70
     1
102
RTVSPropertyOp27
 70
     1
  0
XRECORD
  5
89
102
{ACAD_REACTORS
330
88
102
}
330
88
100
AcDbXrecord
280
     1
102
RTVSPropertyOp0
 70
     1
102
RTVSPropertyOp1
 70
     1
102
RTVSPropertyOp2
 70
     1
102
RTVSPropertyOp3
 70
     1
102
RTVSPropertyOp4
 70
     1
102
RTVSPropertyOp5
 70
     1
102
RTVSPropertyOp6
 70
     1
102
RTVSPropertyOp7
 70
     1
102
RTVSPropertyOp8
 70
     1
102
RTVSPropertyOp9
 70
     1
102
RTVSPropertyOp10
 70
     1
102
RTVSPropertyOp11
 70
     1
102
RTVSPropertyOp12
 70
     1
102
RTVSPropertyOp13
 70
     1
102
RTVSPropertyOp14
 70
     1
102
RTVSPropertyOp15
 70
     1
102
RTVSPropertyOp16
 70
     1
102
RTVSPropertyOp17
 70
     1
102
RTVSPropertyOp18
 70
     1
102
RTVSPropertyOp19
 70
     1
102
RTVSPropertyOp20
 70
     1
102
RTVSPropertyOp21
 70
     1
102
RTVSPropertyOp22
 70
     1
102
RTVSPropertyOp23
 70
     1
102
RTVSPropertyOp24
 70
     1
102
RTVSPropertyOp25
 70
     1
102
RTVSPropertyOp26
 70
     1
102
RTVSPropertyOp27
 70
     1
  0
XRECORD
  5
8B
102
{ACAD_REACTORS
330
8A
102
}
330
8A
100
AcDbXrecord
280
     1
102
RTVSPropertyOp0
 70
     1
102
RTVSPropertyOp1
 70
     1
102
RTVSPropertyOp2
 70
     1
102
RTVSPropertyOp3
 70
     1
102
RTVSPropertyOp4
 70
     1
102
RTVSPropertyOp5
 70
     1
102
RTVSPropertyOp6
 70
     1
102
RTVSPropertyOp7
 70
     1
102
RTVSPropertyOp8
 70
     1
102
RTVSPropertyOp9
 70
     1
102
RTVSPropertyOp10
 70
     1
102
RTVSPropertyOp11
 70
     1
102
RTVSPropertyOp12
 70
     1
102
RTVSPropertyOp13
 70
     1
102
RTVSPropertyOp14
 70
     1
102
RTVSPropertyOp15
 70
     1
102
RTVSPropertyOp16
 70
     1
102
RTVSPropertyOp17
 70
     1
102
RTVSPropertyOp18
 70
     1
102
RTVSPropertyOp19
 70
     1
102
RTVSPropertyOp20
 70
     1
102
RTVSPropertyOp21
 70
     1
102
RTVSPropertyOp22
 70
     1
102
RTVSPropertyOp23
 70
     1
102
RTVSPropertyOp24
 70
     1
102
RTVSPropertyOp25
 70
     1
102
RTVSPropertyOp26
 70
     1
102
RTVSPropertyOp27
 70
     1
  0
XRECORD
  5
93
102
{ACAD_REACTORS
330
92
102
}
330
92
100
AcDbXrecord
280
     1
102
RTVSPropertyOp0
 70
     1
102
RTVSPropertyOp1
 70
     1
102
RTVSPropertyOp2
 70
     1
102
RTVSPropertyOp3
 70
     1
102
RTVSPropertyOp4
 70
     1
102
RTVSPropertyOp5
 70
     1
102
RTVSPropertyOp6
 70
     1
102
RTVSPropertyOp7
 70
     1
102
RTVSPropertyOp8
 70
     1
102
RTVSPropertyOp9
 70
     1
102
RTVSPropertyOp10
 70
     1
102
RTVSPropertyOp11
 70
     1
102
RTVSPropertyOp12
 70
     1
102
RTVSPropertyOp13
 70
     1
102
RTVSPropertyOp14
 70
     1
102
RTVSPropertyOp15
 70
     1
102
RTVSPropertyOp16
 70
     1
102
RTVSPropertyOp17
 70
     1
102
RTVSPropertyOp18
 70
     1
102
RTVSPropertyOp19
 70
     1
102
RTVSPropertyOp20
 70
     1
102
RTVSPropertyOp21
 70
     1
102
RTVSPropertyOp22
 70
     1
102
RTVSPropertyOp23
 70
     1
102
RTVSPropertyOp24
 70
     1
102
RTVSPropertyOp25
 70
     1
102
RTVSPropertyOp26
 70
     1
102
RTVSPropertyOp27
 70
     1
  0
XRECORD
  5
77
102
{ACAD_REACTORS
330
76
102
}
330
76
100
AcDbXrecord
280
     1
102
RTVSPropertyOp0
 70
     1
102
RTVSPropertyOp1
 70
     1
102
RTVSPropertyOp2
 70
     1
102
RTVSPropertyOp3
 70
     1
102
RTVSPropertyOp4
 70
     1
102
RTVSPropertyOp5
 70
     1
102
RTVSPropertyOp6
 70
     1
102
RTVSPropertyOp7
 70
     1
102
RTVSPropertyOp8
 70
     1
102
RTVSPropertyOp9
 70
     1
102
RTVSPropertyOp10
 70
     1
102
RTVSPropertyOp11
 70
     1
102
RTVSPropertyOp12
 70
     1
102
RTVSPropertyOp13
 70
     1
102
RTVSPropertyOp14
 70
     1
102
RTVSPropertyOp15
 70
     1
102
RTVSPropertyOp16
 70
     1
102
RTVSPropertyOp17
 70
     1
102
RTVSPropertyOp18
 70
     1
102
RTVSPropertyOp19
 70
     1
102
RTVSPropertyOp20
 70
     1
102
RTVSPropertyOp21
 70
     1
102
RTVSPropertyOp22
 70
     1
102
RTVSPropertyOp23
 70
     1
102
RTVSPropertyOp24
 70
     1
102
RTVSPropertyOp25
 70
     1
102
RTVSPropertyOp26
 70
     1
102
RTVSPropertyOp27
 70
     1
  0
XRECORD
  5
79
102
{ACAD_REACTORS
330
78
102
}
330
78
100
AcDbXrecord
280
     1
102
RTVSPropertyOp0
 70
     1
102
RTVSPropertyOp1
 70
     1
102
RTVSPropertyOp2
 70
     1
102
RTVSPropertyOp3
 70
     1
102
RTVSPropertyOp4
 70
     1
102
RTVSPropertyOp5
 70
     1
102
RTVSPropertyOp6
 70
     1
102
RTVSPropertyOp7
 70
     1
102
RTVSPropertyOp8
 70
     1
102
RTVSPropertyOp9
 70
     1
102
RTVSPropertyOp10
 70
     1
102
RTVSPropertyOp11
 70
     1
102
RTVSPropertyOp12
 70
     1
102
RTVSPropertyOp13
 70
     1
102
RTVSPropertyOp14
 70
     1
102
RTVSPropertyOp15
 70
     1
102
RTVSPropertyOp16
 70
     1
102
RTVSPropertyOp17
 70
     1
102
RTVSPropertyOp18
 70
     1
102
RTVSPropertyOp19
 70
     1
102
RTVSPropertyOp20
 70
     1
102
RTVSPropertyOp21
 70
     1
102
RTVSPropertyOp22
 70
     1
102
RTVSPropertyOp23
 70
     1
102
RTVSPropertyOp24
 70
     1
102
RTVSPropertyOp25
 70
     1
102
RTVSPropertyOp26
 70
     1
102
RTVSPropertyOp27
 70
     1
  0
XRECORD
  5
7B
102
{ACAD_REACTORS
330
7A
102
}
330
7A
100
AcDbXrecord
280
     1
102
RTVSPropertyOp0
 70
     1
102
RTVSPropertyOp1
 70
     1
102
RTVSPropertyOp2
 70
     1
102
RTVSPropertyOp3
 70
     1
102
RTVSPropertyOp4
 70
     1
102
RTVSPropertyOp5
 70
     1
102
RTVSPropertyOp6
 70
     1
102
RTVSPropertyOp7
 70
     1
102
RTVSPropertyOp8
 70
     1
102
RTVSPropertyOp9
 70
     1
102
RTVSPropertyOp10
 70
     1
102
RTVSPropertyOp11
 70
     1
102
RTVSPropertyOp12
 70
     1
102
RTVSPropertyOp13
 70
     1
102
RTVSPropertyOp14
 70
     1
102
RTVSPropertyOp15
 70
     1
102
RTVSPropertyOp16
 70
     1
102
RTVSPropertyOp17
 70
     1
102
RTVSPropertyOp18
 70
     1
102
RTVSPropertyOp19
 70
     1
102
RTVSPropertyOp20
 70
     1
102
RTVSPropertyOp21
 70
     1
102
RTVSPropertyOp22
 70
     1
102
RTVSPropertyOp23
 70
     1
102
RTVSPropertyOp24
 70
     1
102
RTVSPropertyOp25
 70
     1
102
RTVSPropertyOp26
 70
     1
102
RTVSPropertyOp27
 70
     1
  0
XRECORD
  5
7D
102
{ACAD_REACTORS
330
7C
102
}
330
7C
100
AcDbXrecord
280
     1
102
RTVSPropertyOp0
 70
     1
102
RTVSPropertyOp1
 70
     1
102
RTVSPropertyOp2
 70
     1
102
RTVSPropertyOp3
 70
     1
102
RTVSPropertyOp4
 70
     1
102
RTVSPropertyOp5
 70
     1
102
RTVSPropertyOp6
 70
     1
102
RTVSPropertyOp7
 70
     1
102
RTVSPropertyOp8
 70
     1
102
RTVSPropertyOp9
 70
     1
102
RTVSPropertyOp10
 70
     1
102
RTVSPropertyOp11
 70
     1
102
RTVSPropertyOp12
 70
     1
102
RTVSPropertyOp13
 70
     1
102
RTVSPropertyOp14
 70
     1
102
RTVSPropertyOp15
 70
     1
102
RTVSPropertyOp16
 70
     1
102
RTVSPropertyOp17
 70
     1
102
RTVSPropertyOp18
 70
     1
102
RTVSPropertyOp19
 70
     1
102
RTVSPropertyOp20
 70
     1
102
RTVSPropertyOp21
 70
     1
102
RTVSPropertyOp22
 70
     1
102
RTVSPropertyOp23
 70
     1
102
RTVSPropertyOp24
 70
     1
102
RTVSPropertyOp25
 70
     1
102
RTVSPropertyOp26
 70
     1
102
RTVSPropertyOp27
 70
     1
  0
XRECORD
  5
91
102
{ACAD_REACTORS
330
90
102
}
330
90
100
AcDbXrecord
280
     1
102
RTVSPropertyOp0
 70
     1
102
RTVSPropertyOp1
 70
     1
102
RTVSPropertyOp2
 70
     1
102
RTVSPropertyOp3
 70
     1
102
RTVSPropertyOp4
 70
     1
102
RTVSPropertyOp5
 70
     1
102
RTVSPropertyOp6
 70
     1
102
RTVSPropertyOp7
 70
     1
102
RTVSPropertyOp8
 70
     1
102
RTVSPropertyOp9
 70
     1
102
RTVSPropertyOp10
 70
     1
102
RTVSPropertyOp11
 70
     1
102
RTVSPropertyOp12
 70
     1
102
RTVSPropertyOp13
 70
     1
102
RTVSPropertyOp14
 70
     1
102
RTVSPropertyOp15
 70
     1
102
RTVSPropertyOp16
 70
     1
102
RTVSPropertyOp17
 70
     1
102
RTVSPropertyOp18
 70
     1
102
RTVSPropertyOp19
 70
     1
102
RTVSPropertyOp20
 70
     1
102
RTVSPropertyOp21
 70
     1
102
RTVSPropertyOp22
 70
     1
102
RTVSPropertyOp23
 70
     1
102
RTVSPropertyOp24
 70
     1
102
RTVSPropertyOp25
 70
     1
102
RTVSPropertyOp26
 70
     1
102
RTVSPropertyOp27
 70
     1
  0
XRECORD
  5
87
102
{ACAD_REACTORS
330
86
102
}
330
86
100
AcDbXrecord
280
     1
102
RTVSPropertyOp0
 70
     1
102
RTVSPropertyOp1
 70
     1
102
RTVSPropertyOp2
 70
     1
102
RTVSPropertyOp3
 70
     1
102
RTVSPropertyOp4
 70
     1
102
RTVSPropertyOp5
 70
     1
102
RTVSPropertyOp6
 70
     1
102
RTVSPropertyOp7
 70
     1
102
RTVSPropertyOp8
 70
     1
102
RTVSPropertyOp9
 70
     1
102
RTVSPropertyOp10
 70
     1
102
RTVSPropertyOp11
 70
     1
102
RTVSPropertyOp12
 70
     1
102
RTVSPropertyOp13
 70
     1
102
RTVSPropertyOp14
 70
     1
102
RTVSPropertyOp15
 70
     1
102
RTVSPropertyOp16
 70
     1
102
RTVSPropertyOp17
 70
     1
102
RTVSPropertyOp18
 70
     1
102
RTVSPropertyOp19
 70
     1
102
RTVSPropertyOp20
 70
     1
102
RTVSPropertyOp21
 70
     1
102
RTVSPropertyOp22
 70
     1
102
RTVSPropertyOp23
 70
     1
102
RTVSPropertyOp24
 70
     1
102
RTVSPropertyOp25
 70
     1
102
RTVSPropertyOp26
 70
     1
102
RTVSPropertyOp27
 70
     1
  0
XRECORD
  5
8F
102
{ACAD_REACTORS
330
8E
102
}
330
8E
100
AcDbXrecord
280
     1
102
RTVSPropertyOp0
 70
     1
102
RTVSPropertyOp1
 70
     1
102
RTVSPropertyOp2
 70
     1
102
RTVSPropertyOp3
 70
     1
102
RTVSPropertyOp4
 70
     1
102
RTVSPropertyOp5
 70
     1
102
RTVSPropertyOp6
 70
     1
102
RTVSPropertyOp7
 70
     1
102
RTVSPropertyOp8
 70
     1
102
RTVSPropertyOp9
 70
     1
102
RTVSPropertyOp10
 70
     1
102
RTVSPropertyOp11
 70
     1
102
RTVSPropertyOp12
 70
     1
102
RTVSPropertyOp13
 70
     1
102
RTVSPropertyOp14
 70
     1
102
RTVSPropertyOp15
 70
     1
102
RTVSPropertyOp16
 70
     1
102
RTVSPropertyOp17
 70
     1
102
RTVSPropertyOp18
 70
     1
102
RTVSPropertyOp19
 70
     1
102
RTVSPropertyOp20
 70
     1
102
RTVSPropertyOp21
 70
     1
102
RTVSPropertyOp22
 70
     1
102
RTVSPropertyOp23
 70
     1
102
RTVSPropertyOp24
 70
     1
102
RTVSPropertyOp25
 70
     1
102
RTVSPropertyOp26
 70
     1
102
RTVSPropertyOp27
 70
     1
  0
ENDSEC
  0
EOF
